<svg height='100px' width='100px'  fill="#000000" xmlns="http://www.w3.org/2000/svg" viewBox="0 0 512 512" x="0px" y="0px"><title>coach-business-whiteboard-finance-planning</title><g><path d="M38,408H274.6A112,112,0,1,0,448,292.141V120a8,8,0,0,0-8-8H328V64a24.027,24.027,0,0,0-24-24H160a24.027,24.027,0,0,0-24,24v48H24a8,8,0,0,0-8,8V386A22.025,22.025,0,0,0,38,408Zm442-24a96,96,0,0,1-189.319,22.546c.358-.469.725-.938,1.118-1.4a36.911,36.911,0,0,1,16.693-11.269,52.985,52.985,0,0,0,105.135,3.119H448a8,8,0,0,0,8-8v-44a8,8,0,0,0-7.956-8l-79.117-.434A52.961,52.961,0,0,0,309.6,377.065a53.227,53.227,0,0,0-21.552,9.733c-.027-.93-.044-1.862-.044-2.8a96,96,0,0,1,192,0Zm-51.219-19.465V352.886l11.219.062v28.044H406.215a8,8,0,0,0-8,8,36.6,36.6,0,0,1-7.962,22.94,36.981,36.981,0,1,1-23.2-59.481,8,8,0,0,0,1.207.1l44.524.244v11.737ZM296,56h8a8.009,8.009,0,0,1,8,8v48H296ZM184,56h96V80H184Zm0,40h96v16H184ZM152,64a8.009,8.009,0,0,1,8-8h8v56H152ZM32,128H432v17.6A46.453,46.453,0,0,1,385.6,192H78.4A46.453,46.453,0,0,1,32,145.6Zm0,59.269A62.252,62.252,0,0,0,78.4,208H385.6A62.252,62.252,0,0,0,432,187.269v95.552A111.964,111.964,0,0,0,279.39,344H272V272a8,8,0,0,0-8-8H232a8,8,0,0,0-8,8v72H208V232a8,8,0,0,0-8-8H168a8,8,0,0,0-8,8V344H144V296a8,8,0,0,0-8-8H104a8,8,0,0,0-8,8v48H80V251.314l2.343,2.343a8,8,0,0,0,11.314-11.314l-16-16a8,8,0,0,0-11.314,0l-16,16a8,8,0,0,0,11.314,11.314L64,251.314V352a8,8,0,0,0,8,8H274.6a112.013,112.013,0,0,0-2.6,24c0,2.69.1,5.357.289,8H38a6.006,6.006,0,0,1-6-6ZM256,280v64H240V280Zm-64-40V344H176V240Zm-64,64v40H112V304Z"></path><path d="M361,364.992a24,24,0,1,0,24,24A24.027,24.027,0,0,0,361,364.992Zm0,32a8,8,0,1,1,8-8A8.009,8.009,0,0,1,361,396.992Z"></path><rect x="288" y="224" width="16" height="16"></rect><rect x="320" y="224" width="40" height="16"></rect><rect x="288" y="256" width="40" height="16"></rect></g></svg>