<svg height='100px' width='100px'  fill="#000000" xmlns:x="http://ns.adobe.com/Extensibility/1.0/" xmlns:i="http://ns.adobe.com/AdobeIllustrator/10.0/" xmlns:graph="http://ns.adobe.com/Graphs/1.0/" xmlns="http://www.w3.org/2000/svg" xmlns:xlink="http://www.w3.org/1999/xlink" version="1.1" x="0px" y="0px" viewBox="0 0 90 90" enable-background="new 0 0 90 90" xml:space="preserve"><metadata><sfw xmlns="http://ns.adobe.com/SaveForWeb/1.0/"><slices></slices><sliceSourceBounds width="721.352" height="437.919" bottomLeftOrigin="true" x="962.438" y="-116.56"></sliceSourceBounds><optimizationSettings><targetSettings targetSettingsID="0" fileFormat="PNG24Format"><PNG24Format transparency="false" interlaced="false" noMatteColor="false" filtered="false" matteColor="#FFFFFF"></PNG24Format></targetSettings></optimizationSettings></sfw></metadata><g><g i:extraneous="self"><g><g><path fill="#000000" stroke="#000000" stroke-width="5" stroke-miterlimit="10" d="M-636.917-360.306"></path></g><path fill="#000000" stroke="#000000" stroke-width="3" stroke-miterlimit="10" d="M-548.753-360.306"></path><g><path fill="#000000" d="M24.986,31.441H14.01c-0.861,0-1.559,0.698-1.559,1.559s0.697,1.559,1.559,1.559h10.976      c0.861,0,1.559-0.698,1.559-1.559S25.847,31.441,24.986,31.441z"></path><path fill="#000000" d="M24.986,36.247H14.01c-0.861,0-1.559,0.698-1.559,1.559s0.697,1.559,1.559,1.559h10.976      c0.861,0,1.559-0.698,1.559-1.559S25.847,36.247,24.986,36.247z"></path><path fill="#000000" d="M24.986,45.86H14.01c-0.861,0-1.559,0.698-1.559,1.559s0.697,1.559,1.559,1.559h10.976      c0.861,0,1.559-0.698,1.559-1.559S25.847,45.86,24.986,45.86z"></path><path fill="#000000" d="M24.986,41.053H14.01c-0.861,0-1.559,0.698-1.559,1.559s0.697,1.559,1.559,1.559h10.976      c0.861,0,1.559-0.698,1.559-1.559S25.847,41.053,24.986,41.053z"></path><path fill="#000000" d="M82.876,8.705H34.024c-0.861,0-1.559,0.698-1.559,1.559v6.231H7.125c-0.861,0-1.559,0.698-1.559,1.559      V65.72c0,0.861,0.697,1.559,1.559,1.559h28.441v2.031l-8.817,2.191c-0.695,0.173-1.183,0.797-1.183,1.513v3.039      c0,0.861,0.697,1.559,1.559,1.559h31.334c0.861,0,1.559-0.698,1.559-1.559v-3.039c0-0.716-0.487-1.34-1.183-1.513l-8.817-2.191      v-2.031h28.441c0.861,0,1.559-0.698,1.559-1.559v-19.25h2.858c0.861,0,1.559-0.698,1.559-1.559V10.264      C84.435,9.403,83.738,8.705,82.876,8.705z M81.318,37.288l-13.197-9.528l13.197-9.529V37.288z M81.318,11.823v2.563      c-0.005,0.004-0.011,0.006-0.017,0.01L58.558,30.818L35.814,14.396c-0.074-0.053-0.152-0.095-0.231-0.134v-2.439H81.318z       M76.901,49.862v3.633H8.684V27.613h23.781v17.299c0,0.861,0.697,1.559,1.559,1.559h3.874v3.391H76.901z M35.582,18.075      l13.412,9.684l-13.412,9.684V18.075z M32.465,19.613v4.882H8.684v-4.882H32.465z M56.901,74.235v0.26H28.684v-0.26l8.817-2.191      c0.695-0.173,1.183-0.797,1.183-1.513v-1.977h8.217v1.977c0,0.716,0.487,1.34,1.183,1.513L56.901,74.235z M8.684,64.161v-7.548      h68.217v7.548H8.684z M35.582,43.353v-2.285c0.231-0.038,0.459-0.11,0.662-0.256l15.414-11.129l5.987,4.323      c0.272,0.197,0.593,0.295,0.913,0.295s0.641-0.098,0.913-0.295l5.986-4.322L80.87,40.812c0.14,0.101,0.291,0.174,0.447,0.223      v2.318H35.582z"></path><circle fill="#000000" cx="43.278" cy="60.192" r="1.522"></circle></g></g></g></g></svg>