<svg height='100px' width='100px'  fill="#000000" xmlns="http://www.w3.org/2000/svg" viewBox="0 0 64 64" x="0px" y="0px"><title>discovery-search-note-idea-sticky note-ux</title><g data-name="discovery-search-note-idea-sticky note-ux"><rect x="20.71" y="30.12" width="9.81" height="2" transform="translate(-2.41 2.15) rotate(-4.59)"></rect><rect x="10.94" y="31.1" width="4.9" height="2" transform="matrix(1, -0.08, 0.08, 1, -2.54, 1.18)"></rect><path d="M61.58,55.8l-4.64-9.65a1,1,0,0,0-1-.55l-2.65.33-1.6-3.32a13.83,13.83,0,0,0-9.93-25.5l-1-7.53a1,1,0,0,0-.39-.66,1,1,0,0,0-.74-.19l-6.79.94-.48-3.45a1,1,0,0,0-.38-.66,1,1,0,0,0-.74-.2L8.92,8.44a1,1,0,0,0-.86,1.13L8.54,13l-5.68.78a1,1,0,0,0-.66.39,1,1,0,0,0-.19.74L7.09,51.63a1,1,0,0,0,.39.66,1,1,0,0,0,.6.2h.14L44.91,47.4a1,1,0,0,0,.66-.39,1,1,0,0,0,.19-.74l-.26-1.85a13.69,13.69,0,0,0,4.36-.94l1.6,3.32-1.91,1.86a1,1,0,0,0-.21,1.15L54,59.46a4.23,4.23,0,0,0,5.62,2h0A4.22,4.22,0,0,0,61.58,55.8ZM48.69,19.42a11.79,11.79,0,1,1-3.93-.67A12.11,12.11,0,0,1,48.69,19.42ZM30.44,7.48l.72,5.21.23,1.7L11.14,17.2l-.25-1.82-.71-5.09ZM8.93,50.36,4.13,15.65,8.82,15l.06.42.42,3a1,1,0,0,0,.12.36.55.55,0,0,0,.12.14.47.47,0,0,0,.11.13,1.22,1.22,0,0,0,.19.12l.13.06.2,0,.12,0h.14l22.23-3.08a1,1,0,0,0,.37-.13,1,1,0,0,0,.48-1l-.35-2.53L33,11.65l5.8-.8.95,6.85c-.35.13-.69.27-1,.43A13.78,13.78,0,0,0,33.25,23L10,25.34l.2,2,21.94-2.24a13.79,13.79,0,0,0,.15,11.4L11.3,38.69l.2,2,21.81-2.28a13.84,13.84,0,0,0,10.17,6l.16,1.17Zm49.82,9.27a2.23,2.23,0,0,1-3-1l-4.33-9L53.13,48l2.32-.3,4.33,9A2.22,2.22,0,0,1,58.75,59.63Z"></path><path d="M52.91,26.68l-1.81.87a7,7,0,0,1-3.28,9.38l.87,1.81A9.05,9.05,0,0,0,52.91,26.68Z"></path></g></svg>