<svg height='100px' width='100px'  fill="#000000" xmlns="http://www.w3.org/2000/svg" xmlns:xlink="http://www.w3.org/1999/xlink" version="1.1" x="0px" y="0px" viewBox="0 0 60 60" enable-background="new 0 0 60 60" xml:space="preserve"><rect x="-330" y="-11" display="none" fill="#000000" width="802" height="805"></rect><path d="M10.8339844,45.6806641c-0.2763672,0-0.5,0.2236328-0.5,0.5v7.0703125c0,2.0131836,1.6381836,3.6513672,3.6518555,3.6513672  H45.671875c2.0136719,0,3.6518555-1.6381836,3.6518555-3.6513672v-5.8632812l3.699707,3.699707  c0.0976562,0.0976562,0.2255859,0.1464844,0.3535156,0.1464844s0.2558594-0.0488281,0.3535156-0.1464844  c0.1953125-0.1953125,0.1953125-0.5117188,0-0.7070312l-4.5526123-4.5526123  c-0.0462646-0.0463867-0.1016846-0.0831909-0.163208-0.1086426c-0.1221924-0.0505371-0.2596436-0.0505371-0.3818359,0  c-0.0615234,0.0254517-0.1169434,0.0622559-0.163208,0.1086426l-4.5526123,4.5526123  c-0.1953125,0.1953125-0.1953125,0.5117188,0,0.7070312s0.5117188,0.1953125,0.7070312,0l3.699707-3.699707v5.8632812  c0,1.4619141-1.1894531,2.6513672-2.6518555,2.6513672H13.9858398c-1.4624023,0-2.6518555-1.1894531-2.6518555-2.6513672v-7.0703125  C11.3339844,45.9042969,11.1103516,45.6806641,10.8339844,45.6806641z"></path><path d="M10.4798584,14.1722412c0.0462646,0.0463867,0.1016846,0.0831909,0.163208,0.1086426  c0.0610962,0.0252686,0.1258545,0.0384521,0.190918,0.0384521s0.1298218-0.0131836,0.190918-0.0384521  c0.0615234-0.0254517,0.1169434-0.0622559,0.163208-0.1086426l4.5526123-4.5526123  c0.1953125-0.1953125,0.1953125-0.5117188,0-0.7070312s-0.5117188-0.1953125-0.7070312,0l-3.699707,3.699707V6.7490234  c0-1.4619141,1.1894531-2.6513672,2.6518555-2.6513672H45.671875c1.4624023,0,2.6518555,1.1894531,2.6518555,2.6513672v7.0703125  c0,0.2763672,0.2236328,0.5,0.5,0.5s0.5-0.2236328,0.5-0.5V6.7490234c0-2.0131836-1.6381836-3.6513672-3.6518555-3.6513672  H13.9858398c-2.0136719,0-3.6518555,1.6381836-3.6518555,3.6513672v5.8632812l-3.699707-3.699707  c-0.1953125-0.1953125-0.5117188-0.1953125-0.7070312,0s-0.1953125,0.5117188,0,0.7070312L10.4798584,14.1722412z"></path><path d="M43.9853516,20.3618164c-0.6455078,1.2089844-0.6757812,2.8144531-0.6733398,4.5620117  c-0.3930664,0.3344727-0.5727539,1.0292969-0.4384766,1.847168c0.1450195,0.8027344,0.5307617,1.3896484,1.0063477,1.5766602  c0.519043,1.331543,1.3754883,2.5507812,2.3955078,3.4116211c-0.0136719,0.4746094-0.0336914,1.0253906-0.0751953,1.1914062  c-0.105957,0.4355469-0.465332,0.7548828-0.9624023,0.8544922c-2.0239258,0.4086914-4.9160156,2.4707031-6.5839844,4.6943359  c-0.5429688,0.7236328-0.6640625,1.7470703-0.293457,2.4882812c0.3164062,0.6337891,0.9291992,0.9824219,1.7255859,0.9824219  h17.4750977c0.7963867,0,1.4091797-0.3491211,1.7260742-0.9824219c0.3701172-0.7412109,0.2495117-1.7646484-0.293457-2.487793  c-1.6679688-2.2241211-4.5600586-4.2861328-6.5849609-4.6948242c-0.4960938-0.0996094-0.8554688-0.4189453-0.9624023-0.8579102  c-0.0400391-0.1606445-0.0600586-0.6962891-0.074707-1.1879883c1.0205078-0.8603516,1.8769531-2.0800781,2.3959961-3.4116211  c0.4755859-0.1870117,0.8613281-0.7753906,1.0073242-1.5844727c0.1337891-0.8115234-0.0463867-1.5053711-0.4394531-1.8393555  c0.0029297-1.7255859-0.0234375-3.3447266-0.6733398-4.5620117c-0.78125-1.4638672-2.3100586-2.1479492-4.8657227-2.1523438  C46.2954102,18.2138672,44.7666016,18.8979492,43.9853516,20.3618164z M52.7802734,20.8325195  c0.5629883,1.0551758,0.559082,2.5791016,0.5546875,4.3852539c-0.0004883,0.2407227,0.121582,0.4272461,0.3588867,0.4716797  c0.0541992,0.0498047,0.1835938,0.3710938,0.0957031,0.9038086c-0.0961914,0.5327148-0.3217773,0.7939453-0.3339844,0.8188477  c-0.2299805-0.03125-0.453125,0.1103516-0.5302734,0.3310547c-0.4663086,1.328125-1.3515625,2.5952148-2.3681641,3.3896484  c-0.1254883,0.0976562-0.1958008,0.28125-0.1914062,0.4399414c0.0229492,0.8232422,0.0419922,1.3427734,0.1098633,1.6142578  c0.1972656,0.8110352,0.862793,1.4233398,1.7358398,1.5986328c1.784668,0.3598633,4.4682617,2.2954102,5.9824219,4.3144531  c0.3144531,0.418457,0.3999023,1.0380859,0.1987305,1.4404297c-0.1425781,0.2851562-0.4223633,0.4296875-0.831543,0.4296875  H40.0859375c-0.4091797,0-0.6884766-0.1445312-0.8310547-0.4291992c-0.2011719-0.402832-0.1157227-1.0219727,0.1987305-1.4414062  c1.5141602-2.0185547,4.1977539-3.9541016,5.9814453-4.3139648c0.8740234-0.175293,1.5395508-0.7875977,1.7358398-1.5952148  c0.0683594-0.2729492,0.0869141-0.7871094,0.1113281-1.6494141c0.0043945-0.1586914-0.0668945-0.3100586-0.1918945-0.4082031  c-1.0166016-0.7944336-1.9018555-2.0620117-2.3681641-3.3896484c-0.0708008-0.2016602-0.2148438-0.3295898-0.4160156-0.3295898  c-0.019043,0-0.0390625,0.0009766-0.0595703,0.003418c-0.0668945-0.0297852-0.2924805-0.2910156-0.3876953-0.815918  c-0.0888672-0.5405273,0.0405273-0.8618164,0.0454102-0.890625c0.2373047-0.0444336,0.4086914-0.293457,0.4082031-0.534668  c-0.0043945-1.7641602-0.0083008-3.2880859,0.5546875-4.3432617c0.3706055-0.6943359,1.1816406-1.6181641,3.9819336-1.6230469  C51.5986328,19.2143555,52.409668,20.1381836,52.7802734,20.8325195z"></path><path d="M2.4389648,41.9702148h17.4750977c0.7963867,0,1.4091797-0.3486328,1.7255859-0.9824219  c0.3706055-0.7412109,0.2495117-1.7646484-0.293457-2.487793c-1.6679688-2.2241211-4.5600586-4.2861328-6.5849609-4.6948242  c-0.4960938-0.0996094-0.8554688-0.4189453-0.9624023-0.8579102c-0.0400391-0.159668-0.0595703-0.6904297-0.0742188-1.1879883  c1.0200195-0.8608398,1.8764648-2.0805664,2.3955078-3.4116211c0.4755859-0.1870117,0.8613281-0.7753906,1.0073242-1.5844727  c0.1337891-0.8115234-0.0463867-1.5053711-0.4394531-1.8393555c0.0029297-1.7255859-0.0234375-3.3447266-0.6733398-4.5620117  c-0.78125-1.4638672-2.3100586-2.1479492-4.8657227-2.1523438c-2.5009766,0.0043945-4.0297852,0.6884766-4.8110352,2.1523438  c-0.6455078,1.2089844-0.6757812,2.8144531-0.6733398,4.5620117c-0.3930664,0.3344727-0.5727539,1.0292969-0.4384766,1.847168  c0.1450195,0.8027344,0.5307617,1.3896484,1.0063477,1.5766602c0.519043,1.331543,1.3754883,2.5512695,2.3959961,3.4116211  c-0.0136719,0.4765625-0.0341797,1.0253906-0.0756836,1.1914062c-0.105957,0.4355469-0.465332,0.7548828-0.9624023,0.8544922  c-2.0239258,0.4086914-4.9160156,2.4707031-6.5839844,4.6943359c-0.5429688,0.7236328-0.6635742,1.7470703-0.293457,2.4882812  C1.0297852,41.6210938,1.6425781,41.9702148,2.4389648,41.9702148z M1.8061523,39.0996094  c1.5141602-2.0185547,4.1977539-3.9541016,5.9814453-4.3139648c0.8740234-0.175293,1.5395508-0.7875977,1.7358398-1.5952148  c0.0688477-0.2749023,0.0878906-0.7944336,0.1118164-1.6494141c0.0043945-0.1591797-0.0668945-0.3105469-0.1923828-0.4082031  c-1.0166016-0.7944336-1.9018555-2.0615234-2.3681641-3.3896484c-0.0708008-0.2016602-0.2148438-0.3295898-0.4160156-0.3295898  c-0.019043,0-0.0390625,0.0009766-0.0595703,0.003418c-0.0668945-0.0297852-0.2924805-0.2910156-0.3876953-0.815918  c-0.0888672-0.5405273,0.0405273-0.8618164,0.0454102-0.890625c0.2373047-0.0444336,0.4086914-0.293457,0.4082031-0.534668  c-0.0043945-1.7641602-0.0083008-3.2880859,0.5546875-4.3432617c0.3706055-0.6943359,1.1816406-1.6181641,3.9819336-1.6230469  c2.7495117,0.0048828,3.5605469,0.9287109,3.9311523,1.6230469c0.5629883,1.0551758,0.559082,2.5791016,0.5546875,4.3852539  c-0.0004883,0.2407227,0.121582,0.4272461,0.3588867,0.4716797c0.0541992,0.0498047,0.1835938,0.3710938,0.0957031,0.9038086  c-0.0961914,0.5327148-0.3217773,0.7939453-0.3339844,0.8188477c-0.2304688-0.03125-0.453125,0.1103516-0.5302734,0.3310547  c-0.4663086,1.3276367-1.3515625,2.5952148-2.3681641,3.3896484c-0.125,0.0976562-0.1948242,0.296875-0.1904297,0.4555664  c0.0229492,0.8149414,0.0415039,1.3291016,0.1088867,1.5986328c0.1972656,0.8110352,0.862793,1.4233398,1.7358398,1.5986328  c1.784668,0.3598633,4.4682617,2.2954102,5.9824219,4.3144531c0.3144531,0.4189453,0.3999023,1.0380859,0.1987305,1.440918  c-0.1425781,0.284668-0.421875,0.4291992-0.8310547,0.4291992H2.4389648c-0.4091797,0-0.6889648-0.1445312-0.831543-0.4296875  C1.40625,40.1381836,1.4916992,39.5185547,1.8061523,39.0996094z"></path></svg>