<svg height='100px' width='100px'  fill="#000000" xmlns="http://www.w3.org/2000/svg" xmlns:xlink="http://www.w3.org/1999/xlink" version="1.1" x="0px" y="0px" viewBox="0 0 200 150" enable-background="new 0 0 200 150" xml:space="preserve"><path d="M0,0v150h200V0H0z M196,146H4V4h192V146z"></path><path d="M35,130h26c2.761,0,5-2.239,5-5V99c0-2.761-2.239-5-5-5H50v-6c0-0.552,0.448-1,1-1h46.998v7H87c-2.761,0-5,2.239-5,5v26  c0,2.761,2.239,5,5,5h26c2.761,0,5-2.239,5-5V99c0-2.761-2.239-5-5-5h-11.002v-7H149c0.552,0,1,0.448,1,1v6h-11  c-2.761,0-5,2.239-5,5v26c0,2.761,2.239,5,5,5h26c2.761,0,5-2.239,5-5V99c0-2.761-2.239-5-5-5h-10.998l0.016-7.031  c0.005-2.191-1.769-3.969-3.96-3.969h-48.06v-7H113c2.761,0,5-2.239,5-5V45c0-2.761-2.239-5-5-5H87c-2.761,0-5,2.239-5,5v26  c0,2.761,2.239,5,5,5h10.998v7H49.96C47.773,83,46,84.773,46,86.96V87v7H35c-2.761,0-5,2.239-5,5v26C30,127.761,32.239,130,35,130z   M114,99v26c0,0.551-0.449,1-1,1H87c-0.551,0-1-0.449-1-1V99c0-0.551,0.449-1,1-1h26C113.551,98,114,98.449,114,99z M166,99v26  c0,0.551-0.449,1-1,1h-26c-0.551,0-1-0.449-1-1V99c0-0.551,0.449-1,1-1h26C165.551,98,166,98.449,166,99z M86,71V45  c0-0.551,0.449-1,1-1h26c0.551,0,1,0.449,1,1v26c0,0.551-0.449,1-1,1H87C86.449,72,86,71.551,86,71z M34,99c0-0.551,0.449-1,1-1h26  c0.551,0,1,0.449,1,1v26c0,0.551-0.449,1-1,1H35c-0.551,0-1-0.449-1-1V99z"></path><rect x="65" y="21" width="70" height="4"></rect></svg>