<svg xmlns="http://www.w3.org/2000/svg" viewBox="0 0 123.18 123.18"><defs><style>.cls-1{fill:#fff;}</style></defs><g id="Layer_2" data-name="Layer 2"><g id="Option_1" data-name="Option 1"><path class="cls-1" d="M73.22,106.87c-8.27,3.8-14.47,4.62-22.92,3.82-8.72-.83-17.5,1-24.64-4.06C18.73,101.72,10.87,96,7.08,87.75S9.14,70.28,9.94,61.83c.83-8.72-2.51-18.49,2.56-25.64,4.9-6.92,12.44-12.82,20.72-16.61s17.49-3.92,25.94-3.12a49.39,49.39,0,0,1,23.89,9.36C90,30.72,96,37,99.82,45.25s7.82,17.25,7,25.7c-.83,8.72-11,13.66-16.12,20.8C85.82,98.68,81.49,103.08,73.22,106.87Z"/><path d="M122.15,60.56h-7.26A53.38,53.38,0,0,0,62.62,8.29V1a1,1,0,0,0-2.06,0V8.29A53.38,53.38,0,0,0,8.29,60.56H1a1,1,0,1,0,0,2.06H8.29a53.38,53.38,0,0,0,52.27,52.27v7.26a1,1,0,0,0,2.06,0v-7.26a53.38,53.38,0,0,0,52.27-52.27h7.26a1,1,0,0,0,0-2.06Zm-9.32,0H97.66a36.11,36.11,0,0,0-35-35V10.35A51.3,51.3,0,0,1,112.83,60.56ZM88.42,62.62h7.19a34.07,34.07,0,0,1-33,33V88.42a1,1,0,0,0-2.06,0v7.19a34.07,34.07,0,0,1-33-33h7.19a1,1,0,0,0,0-2.06H27.57a34.07,34.07,0,0,1,33-33v7.19a1,1,0,0,0,2.06,0V27.57a34.07,34.07,0,0,1,33,33H88.42a1,1,0,0,0,0,2.06ZM60.56,10.35V25.52a36.12,36.12,0,0,0-35,35H10.35A51.3,51.3,0,0,1,60.56,10.35ZM10.35,62.62H25.52a36.11,36.11,0,0,0,35,35v15.17A51.3,51.3,0,0,1,10.35,62.62Zm52.27,50.21V97.66a36.11,36.11,0,0,0,35-35h15.17A51.3,51.3,0,0,1,62.62,112.83Z"/><path d="M66.15,64.3a1.07,1.07,0,0,1-.89-.77,10.87,10.87,0,0,1-.08-1.21,11.31,11.31,0,0,0,2.9-4.15,3.52,3.52,0,0,0,.8-4.75c0-2.14-.06-4.14-.89-5.71-1-1.94-3.12-2.89-6.43-2.9s-5.33,1-6.37,2.9c-.83,1.56-.89,3.55-.89,5.71A3,3,0,0,0,53.76,56a2.9,2.9,0,0,0,1.32,2.14A11.34,11.34,0,0,0,58,62.32a11.48,11.48,0,0,1-.08,1.21,1.06,1.06,0,0,1-.89.77c-2.61.53-6.33,3.17-8.47,6a3.51,3.51,0,0,0-.4,3.53,2.69,2.69,0,0,0,2.52,1.45H72.51A2.68,2.68,0,0,0,75,73.85a3.51,3.51,0,0,0-.4-3.53C72.48,67.47,68.76,64.83,66.15,64.3Zm7,8.63c0,.09-.15.31-.67.31H50.68c-.53,0-.64-.22-.68-.31a1.44,1.44,0,0,1,.21-1.38c1.84-2.45,5.08-4.8,7.23-5.24A3.14,3.14,0,0,0,59.92,64a13.34,13.34,0,0,0,.15-2.15,1,1,0,0,0-.4-.84,9.11,9.11,0,0,1-2.82-4A1,1,0,0,0,56,56.3a1.86,1.86,0,0,1-.24-.67,1.58,1.58,0,0,1,0-.75,1.14,1.14,0,0,0,.56-1c0-2.15,0-4,.64-5.24.42-.78,1.34-1.81,4.62-1.82s4.14,1,4.56,1.82c.65,1.23.65,3.09.64,5.29a1.05,1.05,0,0,0,.57.92,1.77,1.77,0,0,1,0,.72,1.87,1.87,0,0,1-.26.7,1,1,0,0,0-.8.68,9.21,9.21,0,0,1-2.83,4,1.15,1.15,0,0,0-.39.91A13.1,13.1,0,0,0,63.26,64a3.14,3.14,0,0,0,2.48,2.29c2.15.44,5.39,2.79,7.23,5.24A1.44,1.44,0,0,1,73.18,72.93Z"/></g></g></svg>