<svg xmlns="http://www.w3.org/2000/svg" viewBox="0 0 115.95 118.89"><defs><style>.cls-1{fill:#fff;}</style></defs><g id="Layer_2" data-name="Layer 2"><g id="Option_1" data-name="Option 1"><path class="cls-1" d="M94.57,107.32c-8.11,6.41-19.29,4.32-28.84,5.7-9.85,1.43-20.84,8.5-30.09,4.82A65.09,65.09,0,0,1,10.19,99.11C3.78,91,7.37,78.38,6,68.83,4.56,59-2.64,47.73,1,38.47,4.59,29.5,15.92,24.4,24,18S39.93,2.92,49.48,1.54C59.33.11,72.37-1.37,81.62,2.3c9,3.57,13.87,16.27,20.28,24.39s5,17.67,6.35,27.22c1.43,9.85,10.51,20.71,6.84,30C111.53,92.84,102.69,100.91,94.57,107.32Z"/><path d="M102.46,12.25H13.89A5.86,5.86,0,0,0,8,18.1v88.57a5.86,5.86,0,0,0,5.85,5.85h88.57a5.86,5.86,0,0,0,5.85-5.85V18.1A5.86,5.86,0,0,0,102.46,12.25ZM83.66,38.57h23v23h-23Zm0,24.65h23v23h-23Zm23-45.12V36.9h-23v-23h18.8A4.18,4.18,0,0,1,106.63,18.1ZM9.71,106.67V18.1a4.19,4.19,0,0,1,4.18-4.18H82v96.93H13.89A4.19,4.19,0,0,1,9.71,106.67Zm92.75,4.18H83.66v-23h23v18.8A4.18,4.18,0,0,1,102.46,110.85Z"/><path d="M95.15,26.7a1.29,1.29,0,1,0-1.29-1.29A1.28,1.28,0,0,0,95.15,26.7Zm0-1.67a.38.38,0,0,1,.38.38c0,.43-.77.43-.77,0A.38.38,0,0,1,95.15,25Z"/><path d="M95.15,48.78a1.29,1.29,0,1,0,1.28,1.28A1.28,1.28,0,0,0,95.15,48.78Zm-.39,1.28a.39.39,0,0,1,.77,0C95.53,50.49,94.76,50.49,94.76,50.06Z"/><path d="M95.15,73.42a1.29,1.29,0,1,0,0,2.57,1.29,1.29,0,0,0,0-2.57Zm-.39,1.29a.39.39,0,1,1,.77,0C95.53,75.13,94.76,75.13,94.76,74.71Z"/><path d="M95.15,98.07a1.29,1.29,0,1,0,0,2.57,1.29,1.29,0,0,0,0-2.57Zm-.39,1.29a.39.39,0,1,1,.77,0C95.53,99.78,94.76,99.78,94.76,99.36Z"/><path d="M67.24,79.91c-3.43-4.57-9.37-8.8-13.51-9.64a2.63,2.63,0,0,1-2.15-1.92,21.87,21.87,0,0,1-.17-2.6,17.56,17.56,0,0,0,5-7.13c1-.32,1.75-1.5,2-3.15s-.11-3.07-.92-3.68c0-3.59,0-6.95-1.37-9.45-1.58-3-4.69-4.34-9.89-4.35s-8.21,1.39-9.79,4.35c-1.32,2.48-1.37,5.82-1.37,9.45-.81.61-1.18,2-.91,3.69s1.09,2.82,2,3.14a17.65,17.65,0,0,0,5,7.13,21.74,21.74,0,0,1-.16,2.6A2.63,2.63,0,0,1,39,70.27c-4.15.84-10.08,5.07-13.51,9.64a4.93,4.93,0,0,0-.59,5,3.57,3.57,0,0,0,3.4,1.92H64.43a3.56,3.56,0,0,0,3.39-1.92A4.91,4.91,0,0,0,67.24,79.91Zm-.91,4.2a1.93,1.93,0,0,1-1.9,1H28.26a1.93,1.93,0,0,1-1.9-1,3.25,3.25,0,0,1,.43-3.19c3.16-4.22,8.77-8.26,12.5-9a4.32,4.32,0,0,0,3.44-3.16A20.6,20.6,0,0,0,43,65.38a.82.82,0,0,0-.32-.68,16.12,16.12,0,0,1-5-7.11A.81.81,0,0,0,36.9,57h-.1c-.18,0-.72-.65-.93-1.85a2.71,2.71,0,0,1,.25-2.07.92.92,0,0,0,.68-.91c0-3.67,0-6.85,1.18-9.08.79-1.48,2.51-3.46,8.41-3.47s7.53,2,8.32,3.47c1.19,2.23,1.18,5.41,1.17,9.17a.83.83,0,0,0,.66.82,2.54,2.54,0,0,1,.28,2.06A2.79,2.79,0,0,1,55.91,57a.83.83,0,0,0-.89.55,16,16,0,0,1-5,7.11,1.06,1.06,0,0,0-.31.8A18.79,18.79,0,0,0,50,68.75a4.31,4.31,0,0,0,3.44,3.16c3.73.75,9.34,4.79,12.5,9A3.27,3.27,0,0,1,66.33,84.11Z"/></g></g></svg>