<svg width="72" height="72" viewBox="0 0 72 72" fill="none" xmlns="http://www.w3.org/2000/svg">
<path d="M27 66H45C60 66 66 60 66 45V27C66 12 60 6 45 6H27C12 6 6 12 6 27V45C6 60 12 66 27 66Z" stroke="white" stroke-width="3" stroke-linecap="round" stroke-linejoin="round"/>
<path d="M46.5 29.25C48.9853 29.25 51 27.2353 51 24.75C51 22.2647 48.9853 20.25 46.5 20.25C44.0147 20.25 42 22.2647 42 24.75C42 27.2353 44.0147 29.25 46.5 29.25Z" stroke="white" stroke-width="3" stroke-miterlimit="10" stroke-linecap="round" stroke-linejoin="round"/>
<path d="M25.5 29.25C27.9853 29.25 30 27.2353 30 24.75C30 22.2647 27.9853 20.25 25.5 20.25C23.0147 20.25 21 22.2647 21 24.75C21 27.2353 23.0147 29.25 25.5 29.25Z" stroke="white" stroke-width="3" stroke-miterlimit="10" stroke-linecap="round" stroke-linejoin="round"/>
<path d="M25.2 39.9H46.8C48.3 39.9 49.5 41.1 49.5 42.6C49.5 50.07 43.47 56.1 36 56.1C28.53 56.1 22.5 50.07 22.5 42.6C22.5 41.1 23.7 39.9 25.2 39.9Z" stroke="white" stroke-width="3" stroke-miterlimit="10" stroke-linecap="round" stroke-linejoin="round"/>
</svg>
