<svg xmlns="http://www.w3.org/2000/svg" xmlns:xlink="http://www.w3.org/1999/xlink" width="541" height="632" xmlns:v="https://vecta.io/nano"><style><![CDATA[.B{fill:#fff}.C{fill:#fde1c4}.D{fill:#fba786}]]></style><defs><path d="M135.719 346.25c12.895 5.423 24.379 13.538 33.749 23.641 7.484-2.056 15.364-3.154 23.501-3.154 48.883 0 88.51 39.627 88.51 88.51s-39.627 88.51-88.51 88.51c-20.568 0-39.497-7.016-54.526-18.784-12.339 5.641-26.058 8.784-40.512 8.784-53.874 0-97.548-43.674-97.548-97.548 0-45.581 31.263-83.86 73.516-94.565-30.367-14.025-51.44-44.75-51.44-80.397 0-48.883 39.627-88.51 88.51-88.51s88.51 39.627 88.51 88.51c0 40.292-26.923 74.296-63.76 85.003zm238.644-158.453c-13.025-9.834-23.239-23.195-29.221-38.662-16.177 17.595-39.387 28.621-65.173 28.621-48.883 0-88.51-39.627-88.51-88.51S231.086.737 279.969.737c37.68 0 69.861 23.545 82.632 56.725 16.13-17.488 39.239-28.441 64.905-28.441 48.755 0 88.279 39.524 88.279 88.279 0 46.521-35.984 84.637-81.637 88.033 21.437 16.153 35.297 41.825 35.297 70.734 0 48.882-39.627 88.51-88.51 88.51s-88.51-39.628-88.51-88.51c0-46.672 36.124-84.907 81.938-88.27z" id="A"/><path d="M416.308 160.42l-7.596 7.595c-9.155 9.155-23.767 9.388-32.636.519s-8.636-23.48.52-32.635l79.831-79.832c11.432-11.431 11.722-29.675.648-40.749s-29.317-10.783-40.749.649l-76.934 76.932c-10.756 10.757-27.922 11.03-38.341.611s-10.146-27.585.609-38.341l5.806-5.805c11.224-11.223 12.329-29.237 1.861-40.501-10.987-11.825-29.784-11.778-41.465-.096L76.725 199.904c-14.317 14.317-14.681 37.166-.813 51.035h.001c13.869 13.869 13.505 36.717-.812 51.035l-53.033 53.033c-28.458 28.458-29.181 73.874-1.615 101.44h.001c27.565 27.566 72.982 26.844 101.44-1.614l6.119-6.119c9.155-9.155 23.767-9.388 32.636-.519s8.637 23.479-.52 32.636l-79.831 79.831c-11.431 11.432-11.721 29.676-.648 40.749s29.318 10.783 40.75-.648l76.932-76.933c10.756-10.757 27.922-11.029 38.341-.61s10.146 27.585-.61 38.341l-5.805 5.805c-11.223 11.224-12.328 29.236-1.862 40.501 10.988 11.824 29.785 11.778 41.468.096L460 416.825c14.317-14.317 14.681-37.166.812-51.035s-13.505-36.718.812-51.035l54.509-54.509c28.458-28.458 29.181-73.874 1.614-101.441s-72.981-26.843-101.439 1.615" id="B"/><linearGradient x1="5.37104345e-09%" y1="5.60628523e-06%" x2="5.37104345e-09%" y2="166.037028%" id="C"><stop stop-color="#ffdc67" offset="0%"/><stop stop-color="#fba786" offset="100%"/></linearGradient><linearGradient x1="43.1122516%" y1="8.63691098%" x2="58.2543678%" y2="88.1268952%" id="D"><stop stop-color="#ffdc67" offset="0%"/><stop stop-color="#fba786" offset="100%"/></linearGradient><path d="M46.694 23.628c-20.497 1.327-21.573 2.403-22.9 22.9-1.329-20.497-2.405-21.573-22.902-22.9C21.389 22.3 22.465 21.224 23.794.727c1.327 20.496 2.403 21.573 22.9 22.901z" id="E"/><path d="M26.312 14.031c-11.704.759-12.318 1.373-13.077 13.077C12.478 15.404 11.863 14.79.159 14.031c11.704-.758 12.319-1.372 13.076-13.076.759 11.704 1.372 12.318 13.077 13.076z" id="F"/><path d="M36.815 18.957c-16.221 1.051-17.073 1.902-18.123 18.123C17.641 20.859 16.789 20.008.568 18.957 16.789 17.906 17.641 17.055 18.691.833c1.051 16.221 1.903 17.073 18.124 18.124z" id="G"/><path d="M8.24 4.24a4.02 4.02 0 0 1-4.019 4.019A4.02 4.02 0 0 1 .203 4.24 4.02 4.02 0 0 1 4.221.221 4.02 4.02 0 0 1 8.24 4.24z" id="H"/><path d="M8.593 4.488a4.02 4.02 0 0 1-4.019 4.019A4.02 4.02 0 0 1 .556 4.488 4.02 4.02 0 0 1 4.574.469a4.02 4.02 0 0 1 4.019 4.019z" id="I"/><path d="M8.05 4.446a4.02 4.02 0 0 1-4.019 4.019A4.02 4.02 0 0 1 .013 4.446 4.02 4.02 0 0 1 4.031.426a4.02 4.02 0 0 1 4.019 4.02z" id="J"/><path d="M46.694 23.628c-20.497 1.327-21.573 2.403-22.9 22.9-1.329-20.497-2.404-21.573-22.901-22.9C21.39 22.3 22.465 21.224 23.794.727c1.327 20.497 2.403 21.573 22.9 22.901z" id="K"/><path d="M26.312 14.032c-11.704.758-12.318 1.373-13.076 13.077C12.477 15.405 11.863 14.79.159 14.032c11.704-.758 12.318-1.373 13.077-13.077.757 11.703 1.371 12.318 13.076 13.077z" id="L"/><path d="M18.692 37.08C17.641 20.859 16.789 20.008.568 18.957 16.789 17.906 17.641 17.054 18.691.833c1.051 16.221 1.904 17.073 18.124 18.124-16.221 1.051-17.073 1.902-18.123 18.123z" id="M"/><path d="M8.24 4.24a4.02 4.02 0 0 1-4.02 4.019A4.02 4.02 0 0 1 .202 4.24 4.02 4.02 0 0 1 4.22.221 4.02 4.02 0 0 1 8.24 4.24z" id="N"/><path d="M8.593 4.488a4.02 4.02 0 0 1-4.019 4.019A4.02 4.02 0 0 1 .555 4.488 4.02 4.02 0 0 1 4.574.469a4.02 4.02 0 0 1 4.019 4.019z" id="O"/><path d="M8.05 4.446a4.02 4.02 0 0 1-4.019 4.019A4.02 4.02 0 0 1 .012 4.446 4.02 4.02 0 0 1 4.031.426a4.02 4.02 0 0 1 4.019 4.02z" id="P"/><path d="M21.384 10.596c-9.436.611-9.931 1.106-10.542 10.542C10.231 11.702 9.736 11.207.3 10.596 9.736 9.985 10.231 9.489 10.842.054c.611 9.435 1.106 9.931 10.542 10.542z" id="Q"/><path d="M30.129 14.636c-13.076.847-13.763 1.534-14.61 14.611C14.672 16.17 13.985 15.483.908 14.636c13.077-.847 13.764-1.534 14.611-14.61.847 13.076 1.534 13.763 14.61 14.61z" id="R"/><path d="M7 3.997a3.24 3.24 0 0 1-3.239 3.24 3.24 3.24 0 0 1 0-6.48A3.24 3.24 0 0 1 7 3.997z" id="S"/><path d="M6.839 3.635a3.24 3.24 0 1 1-6.48 0 3.24 3.24 0 1 1 6.48 0z" id="T"/><path d="M37.691 18.866c-16.524 1.07-17.392 1.938-18.462 18.463-1.07-16.525-1.938-17.393-18.462-18.463C17.29 17.796 18.159 16.928 19.229.404c1.071 16.525 1.938 17.392 18.462 18.462z" id="U"/><path d="M21.973 10.589c-9.436.61-9.931 1.106-10.542 10.542-.611-9.436-1.106-9.932-10.542-10.542C10.325 9.978 10.82 9.482 11.431.047c.611 9.434 1.106 9.93 10.542 10.542z" id="V"/><path d="M29.719 14.629c-13.077.848-13.764 1.534-14.61 14.611-.848-13.077-1.535-13.764-14.611-14.611 13.076-.847 13.764-1.533 14.61-14.61.847 13.077 1.534 13.763 14.611 14.61z" id="W"/><path d="M6.589 3.99A3.24 3.24 0 0 1 3.35 7.229 3.24 3.24 0 0 1 .111 3.99 3.24 3.24 0 0 1 3.35.75a3.24 3.24 0 0 1 3.239 3.24z" id="X"/><path d="M6.75 3.265a3.24 3.24 0 0 1-3.239 3.24 3.24 3.24 0 0 1 0-6.48 3.24 3.24 0 0 1 3.239 3.24z" id="Y"/><path d="M7.428 3.628a3.24 3.24 0 0 1-3.24 3.239A3.24 3.24 0 0 1 .949 3.628 3.24 3.24 0 0 1 4.188.388a3.24 3.24 0 0 1 3.24 3.24z" id="Z"/><path d="M37.691 18.533c-16.524 1.07-17.392 1.938-18.462 18.462-1.07-16.524-1.938-17.392-18.462-18.462 16.524-1.07 17.392-1.937 18.462-18.462 1.07 16.525 1.938 17.392 18.462 18.462z" id="a"/><path d="M21.973 11.255c-9.436.611-9.931 1.106-10.542 10.542-.611-9.436-1.106-9.931-10.542-10.542 9.436-.611 9.931-1.106 10.542-10.542.611 9.436 1.106 9.931 10.542 10.542z" id="b"/><path d="M6.589 3.657a3.24 3.24 0 0 1-3.239 3.24 3.24 3.24 0 1 1 0-6.48 3.24 3.24 0 0 1 3.239 3.24z" id="c"/><path d="M6.75 3.932a3.24 3.24 0 0 1-3.239 3.239 3.24 3.24 0 0 1-3.24-3.239 3.24 3.24 0 0 1 3.24-3.24 3.24 3.24 0 0 1 3.239 3.24z" id="d"/><path d="M21.386 10.92c-9.437.611-9.931 1.106-10.542 10.542-.611-9.436-1.106-9.931-10.542-10.542 9.436-.611 9.931-1.106 10.542-10.542.611 9.436 1.105 9.931 10.542 10.542z" id="e"/><path d="M30.132 14.961c-13.077.847-13.764 1.534-14.61 14.61-.848-13.076-1.535-13.763-14.611-14.61C13.987 14.114 14.675 13.427 15.522.35c.846 13.077 1.533 13.764 14.61 14.611z" id="f"/><path d="M7.403 4.17a3.24 3.24 0 0 1-3.239 3.24 3.24 3.24 0 1 1 0-6.48 3.24 3.24 0 0 1 3.239 3.24z" id="g"/><path d="M6.83 19.597a3.24 3.24 0 0 1-3.239 3.24 3.24 3.24 0 1 1 0-6.48 3.24 3.24 0 0 1 3.239 3.24L26.38.048 6.83 19.597z" id="h"/><path d="M37.103 18.873c-16.524 1.07-17.392 1.938-18.462 18.462C17.57 20.811 16.703 19.943.178 18.873 16.703 17.803 17.57 16.935 18.641.411c1.069 16.524 1.938 17.393 18.462 18.462z" id="i"/><path d="M60.25 304.447c-10.632-8.865-15.92-23.052-13.801-37.022l.068-.444.412.434c20.009 20.553 45.514 33.76 73.377 38.322-3.99 2.539-6.753 6.999-6.94 12.081l-.246 6.702c-.084 2.269.36 4.458 1.256 6.438-19.836-4.402-38.454-13.445-54.126-26.511zm-7.583-239.88c0-4.87-1.46-7.172-5.198-9.742h28.382c-16.962 14.322-32.296 29.095-45.272 49.5h-9.671c-5.647 0-10.241-4.593-10.241-10.241V64.567c0-5.647 4.594-10.242 10.241-10.242h17.518c5.647 0 10.241 4.595 10.241 10.242a2 2 0 1 0 4 0zm201.42 39.758c-12.975-20.405-28.31-35.178-45.272-49.5h25.05c-3.739 2.57-4.198 4.872-4.198 9.741a2 2 0 1 0 4 0c0-5.646 4.594-10.241 10.241-10.241h17.518c5.647 0 10.241 4.595 10.241 10.241v29.518c0 5.648-4.594 10.241-10.241 10.241h-7.339zm-19.932 159.602c-24.233 24.892-56.843 38.601-91.822 38.601s-67.588-13.708-91.821-38.6c-24.15-24.805-36.939-57.518-36.012-92.114.764-28.538 10.77-54.462 30.588-79.254 17.184-21.496 38.631-38.41 57.553-53.333C120.589 25.072 136.089 12.848 142.09.835c.047-.096.224-.096.243-.096s.197 0 .244.096v.001c6.001 12.012 21.501 24.236 39.449 38.391 18.922 14.923 40.369 31.837 57.553 53.333 19.818 24.792 29.824 50.716 30.588 79.254.926 34.596-11.863 67.309-36.012 92.113zM9.502 171.679c-.511 19.079 2.992 37.605 10.142 54.646h-7.026a12.04 12.04 0 0 1-12-12v-56.5a12.04 12.04 0 0 1 12-12h.203c-1.912 8.153-3.075 16.755-3.319 25.854zm262.547-25.854c6.6 0 12 5.4 11.999 12v56.5c0 6.6-5.399 12-12 12h-7.025c7.15-17.041 10.653-35.567 10.142-54.646-.243-9.098-1.407-17.701-3.319-25.854h.203zm-250.252 58.67c-2.55-7.99-3.9-16.37-3.9-25 0-3.95.28-7.84.83-11.67 7.179-49.89 59.78-88.62 123.61-88.62 63.819 0 116.42 38.73 123.6 88.62.55 3.83.83 7.72.83 11.67 0 8.63-1.35 17.01-3.899 25-13.78 43.29-62.521 75.29-120.53 75.29-58.021 0-106.762-32-120.541-75.29zm120.444 103.152v-.001h.076v-.12h.016c36.34 0 70.221-14.245 95.405-40.112 1.071-1.1 2.112-2.219 3.139-3.348l.139.915v.001a40.55 40.55 0 0 1-13.012 36.353c-23.45 21.081-53.875 32.689-85.667 32.689-7.536 0-15.016-.661-22.355-1.951-.081-.082-.168-.155-.247-.241-1.787-1.921-2.717-4.462-2.617-7.154l.246-6.702c.209-5.696 4.898-10.329 10.453-10.329h14.424z" id="j"/><path d="M143.583 4.439h11.379c-1.88-.442-3.766.723-4.209 2.604a3.5 3.5 0 0 0 2.604 4.209c5.599 1.321 11.129 2.985 16.437 4.948.4.149.811.219 1.214.219a3.5 3.5 0 0 0 1.214-6.784c-5.576-2.062-11.382-3.81-17.26-5.196h-11.379a3.49 3.49 0 0 1 .061 1.285 3.5 3.5 0 0 1-3.463 3.025 3.54 3.54 0 0 1-.48-.033c-13.451-1.843-27.553-1.846-41.004-.009-1.911.262-3.679-1.079-3.941-2.995a3.5 3.5 0 0 1 2.994-3.941c14.078-1.921 28.822-1.919 42.902.01a3.5 3.5 0 0 1 2.931 2.658zM79.274 5.465a3.5 3.5 0 0 1 1.797 6.766c-3.85 1.022-7.678 2.215-11.377 3.546-.392.14-.791.208-1.185.208-1.434 0-2.78-.889-3.294-2.317a3.5 3.5 0 0 1 2.11-4.478 146.85 146.85 0 0 1 11.949-3.725zm151.895-4.306a5.5 5.5 0 0 1 5.498 5.497 5.5 5.5 0 0 1-5.498 5.498 5.5 5.5 0 0 1-5.498-5.498 5.5 5.5 0 0 1 5.498-5.497zm0 15.969a5.5 5.5 0 0 1 5.498 5.498 5.5 5.5 0 0 1-5.498 5.497 5.5 5.5 0 0 1-5.498-5.497 5.5 5.5 0 0 1 5.498-5.498zm-225 10.995a5.5 5.5 0 0 1-5.498-5.497 5.5 5.5 0 0 1 5.498-5.498 5.5 5.5 0 0 1 5.498 5.498 5.5 5.5 0 0 1-5.498 5.497zm0-15.969A5.5 5.5 0 0 1 .671 6.656a5.5 5.5 0 0 1 5.498-5.497 5.5 5.5 0 0 1 5.498 5.497 5.5 5.5 0 0 1-5.498 5.498zM113.28 263a5.5 5.5 0 0 1-5.498-5.498 5.5 5.5 0 0 1 5.498-5.498 5.5 5.5 0 0 1 5.497 5.498A5.5 5.5 0 0 1 113.28 263z" id="k"/><path d="M245.867 125.495c2.55-7.99 3.899-16.37 3.899-25 0-3.95-.28-7.84-.83-11.67-7.18-49.89-59.78-88.62-123.6-88.62-63.83 0-116.431 38.73-123.61 88.62-.55 3.83-.83 7.72-.83 11.67 0 8.63 1.35 17.01 3.9 25 13.779 43.29 62.52 75.29 120.54 75.29 58.011 0 106.751-32 120.531-75.29zm-219.82-25c0-3.96.279-7.85.83-11.67 6.35-44.41 48.46-78.71 99.46-78.71 50.989 0 93.109 34.3 99.46 78.71a81.79 81.79 0 0 1 .83 11.67c0 8.67-1.36 17.061-3.9 25-12.03 37.75-50.63 65.38-96.39 65.38s-84.37-27.63-96.4-65.38c-2.531-7.94-3.89-16.33-3.89-25z" id="l"/><path d="M225.287 29.495l-.34-7.67h17.114l.375 7.67c0 7.101-.967 14.151-2.878 21h-16.867a86.16 86.16 0 0 0 2.596-21zm-225.056 0c0-2.561.125-5.128.375-7.67H17.72a86.71 86.71 0 0 0-.34 7.67c0 7.093.871 14.134 2.595 21H3.109a78.02 78.02 0 0 1-2.878-21zM230 .825c2.75 0 5 2.25 5 5s-2.25 5-5 5-5-2.25-5-5 2.25-5 5-5zm-214 5c0 2.75-2.25 5-5 5s-5-2.25-5-5 2.25-5 5-5 5 2.25 5 5z" id="m"/><path d="M100.337 180.875c45.76 0 84.359-27.63 96.39-65.38 2.54-7.939 3.9-16.33 3.9-25a81.8 81.8 0 0 0-.83-11.67c-6.351-44.41-48.471-78.71-99.46-78.71-51 0-93.11 34.3-99.46 78.71-.551 3.821-.83 7.71-.83 11.67 0 8.67 1.359 17.061 3.89 25 12.03 37.75 50.639 65.38 96.4 65.38z" id="n"/><path d="M100.548 61.164c.537 1.996-.58 4.069-2.527 4.761-2.076.738-4.386-.338-5.092-2.426C81.817 30.646 45.752 7.114 3.26 6.954 1.545 6.947.167 5.536.167 3.821A3.14 3.14 0 0 1 3.132.685l.83-.041c46.691-2.099 86.784 24.059 96.586 60.52z" id="o"/><path d="M6.712 1.925c.899-1.972 4.094-.896 3.431 1.152-2.438 7.541-3.577 15.492-3.209 23.665 1.964 43.697 46.203 77.203 98.81 74.839 12.333-.555 24.031-3.031 34.688-7.061 2.184-.824 3.63 2.067 1.53 3.063-12.666 6.012-27.129 9.729-42.591 10.423C46.763 110.37 2.524 76.864.56 33.168.067 22.202 2.284 11.637 6.712 1.925z" id="p"/><path d="M17.533 14.294c-.953-6.356 3.428-12.283 9.784-13.236a11.64 11.64 0 0 1 13.236 9.784 11.64 11.64 0 0 1-9.784 13.235c-6.356.953-12.282-3.427-13.236-9.783zM.935 29.727a7.2 7.2 0 0 1 6.05-8.185 7.2 7.2 0 0 1 8.183 6.05 7.2 7.2 0 0 1-6.048 8.185 7.2 7.2 0 0 1-8.185-6.05zm138.151 77.723c5.984-2.344 12.737.607 15.082 6.591a11.64 11.64 0 0 1-6.592 15.082 11.64 11.64 0 0 1-15.081-6.591 11.64 11.64 0 0 1 6.591-15.082zm18.502-16.225c3.7-1.45 7.876.375 9.325 4.076s-.374 7.876-4.075 9.325a7.2 7.2 0 0 1-9.326-4.075 7.2 7.2 0 0 1 4.076-9.326z" id="q"/><path d="M21.394 59.802l-1.514-.523c-2.423-.907-4.697-2.114-6.784-3.573l-1.141-.837-1.824-1.516-1.318-1.262-1.334-1.449-1.218-1.492a30.49 30.49 0 0 1-4.89-9.458 30.88 30.88 0 0 1-.498-1.826 30.57 30.57 0 0 1-.679-3.842l-.158-2.001L0 30.608a31.09 31.09 0 0 1 .109-2.491l.231-2.07c.187-1.255.458-2.483.793-3.683l.391-1.292a30.28 30.28 0 0 1 .952-2.533l.38-.839C6.243 10.429 12.4 4.708 19.974 1.901a29.79 29.79 0 0 1 2.007-.659 30.37 30.37 0 0 1 3.851-.869l.178-.028C27.51.119 29.045 0 30.609 0c1.959 0 4.102.418 6.354 1.146.631.204 1.27.43 1.917.682 3.066 1.192 6.294 2.891 9.527 4.88l1.686 1.062 1.974 1.303 1.523 1.048c3.938 2.754 7.754 5.761 11.144 8.604 1.251 1.047 2.632 1.846 4.08 2.422a14.61 14.61 0 0 0 2.04.651 14.88 14.88 0 0 0 4.208.39c.396-.018.792-.054 1.186-.105a14.88 14.88 0 0 0 4.147-1.155c.245-.109.484-.232.723-.354a15.07 15.07 0 0 0 2.274-1.434c.181-.139.366-.268.543-.415l.963-.802 1.549-1.268 1.562-1.252 2.106-1.641.533-.406c3.229-2.452 6.629-4.834 10.017-6.893l1.016-.608 1.838-1.049c.512-.283 1.021-.552 1.53-.815 2.363-1.222 4.681-2.225 6.889-2.921.568-.178 1.13-.335 1.684-.471 1.554-.384 3.044-.599 4.44-.599a30.7 30.7 0 0 1 5.816.56c.534.102 1.065.217 1.589.348a30.36 30.36 0 0 1 6.772 2.575c.618.325 1.226.664 1.817 1.028a30.38 30.38 0 0 1 2.157 1.456c.204.15.403.306.604.462 2.088 1.623 3.962 3.508 5.569 5.609l.319.423a30.45 30.45 0 0 1 1.521 2.26c.372.613.717 1.244 1.047 1.884 1.096 2.124 1.95 4.392 2.527 6.77.163.676.304 1.36.422 2.053a30.7 30.7 0 0 1 .425 4.375l.003.165.018.64a30.91 30.91 0 0 1-.362 4.715c-.073.468-.155.932-.248 1.392a30.55 30.55 0 0 1-1.196 4.267c-.093.259-.194.514-.295.77-.27.689-.558 1.371-.875 2.036-.307.64-.639 1.264-.987 1.878-3.104 5.48-7.845 9.91-13.563 12.618a30.41 30.41 0 0 1-1.953.837c-2.31.902-4.754 1.531-7.297 1.849l-.962.109c-.944.088-1.901.138-2.869.138-.411 0-.834-.024-1.261-.06-.549-.046-1.108-.115-1.68-.217-2.199-.388-4.559-1.171-7-2.241a48.16 48.16 0 0 1-1.637-.755 57.81 57.81 0 0 1-1.632-.818c-.523-.272-1.049-.556-1.575-.849-3.205-1.783-6.463-3.919-9.616-6.188l-1.37-.997-1.688-1.267-1.385-1.063-1.783-1.405-1.418-1.144-1.825-1.507-.257-.214c-.314-.263-.638-.506-.967-.739-1.903-1.351-4.043-2.202-6.247-2.559-.739-.119-1.486-.183-2.232-.191-1.489-.016-2.977.199-4.418.628l-.463.143c-.702.235-1.386.526-2.054.867-.617.315-1.222.665-1.8 1.072-.348.244-.688.502-1.02.779l-.993.827-.451.37c-3.858 3.173-8.177 6.474-12.561 9.345l-1.679 1.074-1.71 1.047-1.63.942c-2.324 1.308-4.622 2.434-6.836 3.293a36.5 36.5 0 0 1-1.254.464c-.89.309-1.763.566-2.618.774l-.386.094c-1.398.318-2.741.493-4.007.493-.114 0-.226-.007-.339-.009-.512-.005-1.021-.022-1.526-.053-2.546-.151-5.009-.612-7.349-1.351z" id="r"/><path d="M29.208 60.575c.636.239.845.354 1.062.633l.339.009c1.266 0 2.609-.175 4.007-.493l.112-.148.274.055 2.618-.774h-.012l-.72-.48v-.239-.721l.72-.72 1.44.24v.24l-.174 1.216c2.214-.859 4.512-1.985 6.836-3.293l.298-1.043.479-.24.853.341 1.71-1.047-.162-.014-.24-1.681.719-.479c.919.358.884.498 1.362 1.1 4.384-2.871 8.703-6.172 12.561-9.345l.237-.396.214.026.994-.827a15.03 15.03 0 0 1 1.019-.78l-.066-.098.96-1.2.906.226c.668-.341 1.352-.632 2.054-.866l-.8-.8-.24-.72.72-.72 1.44.24.24.72-.481.72-.416.416c1.441-.428 2.929-.643 4.418-.628l-.162-.268.721-.96c1.193.133.93-.046 1.439.72l.234.7c2.204.356 4.344 1.208 6.247 2.558v-.618l.96-.72c.95.357.946.429 1.439 1.2l-.96 1.2-.216-.108 1.825 1.507.551-.92c1.061.188.892.146 1.44.722v.96l-.573.382 1.783 1.405.47-.587 1.2.479c-.082.608-.154.937-.285 1.171l1.688 1.267.037-.037 1.199.238.134.796c3.153 2.269 6.411 4.404 9.616 6.188l-.148-.742.96-.72 1.2.479c-.05 1.029-.16 1.275-.437 1.832l1.632.818 1.685.47-.048.284c2.441 1.07 4.801 1.854 7 2.241l.487-.365 1.2.48-.008.102c.427.035.85.06 1.261.06a30.88 30.88 0 0 0 2.869-.138l.198-.264c.388.068.609.104.764.154 2.543-.317 4.987-.946 7.297-1.849l.338-1.186.481-.24.96.24.174.349c5.719-2.708 10.46-7.138 13.563-12.618-.019.01-.038.02-.058.029l-1.2-1.2.721-1.201 1.439.241.084.253c.318-.665.606-1.347.876-2.036v-.378l.295-.393a30.33 30.33 0 0 0 1.196-4.268c-.114.08-.275.166-.532.341l-.719-.24-.24-.48.24-1.44 1.499.428a30.92 30.92 0 0 0 .362-4.715c0-.215-.012-.427-.018-.641l-.403.608-.722.719-.719-.239-.48-.72v-.72l.961-.72 1.36.907a30.73 30.73 0 0 0-.425-4.375l-.216.108h-.96l-.721-.96.48-1.2h.994c-.577-2.378-1.432-4.646-2.527-6.77l-.387.29c-1.273-.275-.951-.239-1.44-1.2l.78-.975c-.474-.777-.983-1.53-1.521-2.259-.189 1.121-.271.927-.938 1.554l-.72-.24-.48-.72.721-1.2 1.099.183c-1.607-2.102-3.481-3.987-5.57-5.61.242.985.039 1.277-.809 1.827l-1.2-1.2.96-1.2.445.111a30.72 30.72 0 0 0-2.157-1.456l-.208.625c-1.083-.051-1.294-.17-1.92-.48v-.24l.311-.932a30.38 30.38 0 0 0-6.772-2.575l.222.147-.479.72c-.486.499-.24.327-1.2.48l-.72-.961.589-.735A30.79 30.79 0 0 0 118.061 0c-1.396 0-2.887.214-4.44.598.145.096.27.232.548.457v.239l-.48.961-1.2-.24-.72-.721.169-.224c-2.208.695-4.525 1.698-6.889 2.921v.664l-.48.72-.72-.24-.33-.33-1.838 1.05h.008l.96.96v.24l-.479.96c-1.084-.052-1.294-.17-1.92-.48v-.241l.239-.479.177-.353c-3.388 2.06-6.788 4.442-10.017 6.894v.179l-.479.24-.054-.014-2.106 1.642v.772l-.72.48h-.842l-1.549 1.267.23.173c-.183 1.233-.193 1.116-.96 1.68l-.721-.24-.056-.396c-.725.553-1.485 1.031-2.274 1.435l1.13.161c-.052 1.083-.17 1.294-.48 1.92-1.233-.183-1.117-.193-1.68-.96l.307-.768a14.88 14.88 0 0 1-4.147 1.156v.332l-.721.24-.465-.467a14.92 14.92 0 0 1-4.208-.391l-.126.378-.96.48-1.2-1.2.246-.308a14.91 14.91 0 0 1-4.079-2.423c-3.391-2.843-7.207-5.849-11.145-8.603l.098.294c-.767.383-1.189.498-2.161.24.08-1.191.141-1.275.541-1.582l-1.975-1.304-.485.486-.72-.24-.481-.48v-.827c-3.233-1.99-6.461-3.689-9.527-4.88-.096.124-.261.23-.553.427l-.719.24-.72-1.201.075-.149C34.711.418 32.569 0 30.609 0a30.98 30.98 0 0 0-4.599.344c1.274.073 1.19.117 1.758.95l-.72.961h-.24c-1.08-.209-.826-.221-1.441-.72l.465-1.162a30.41 30.41 0 0 0-3.851.869c.008.017.018.035.027.052l-.96 1.201c-.599-.216-.887-.335-1.074-.594A30.7 30.7 0 0 0 2.856 17.7l.432-.325c.95.357.947.429 1.44 1.2l-1.201 1.2-.959-.96-.092-.276a30.28 30.28 0 0 0-.952 2.533l.084.143.24.72-.715.429a30.33 30.33 0 0 0-.793 3.682c.881.164.878.294 1.508.689v.96l-.72.72-.96-.24-.058-.058A30.61 30.61 0 0 0 0 30.608c0 .475.015.945.036 1.415l.371-.248 1.441.72v.24l-.24.96-.96.48-.454-.151a30.75 30.75 0 0 0 .679 3.842c.175.034.211.099.494.389l.241 1.2-.237.237c1.073 3.456 2.745 6.646 4.89 9.458l.867.144.48.962-.129.387a30.47 30.47 0 0 0 1.334 1.449l.235-.156.96.24.24.479-.117.699c.587.529 1.197 1.031 1.824 1.515l.933.187.24.479c-.01.065-.021.111-.032.171 2.087 1.459 4.361 2.666 6.784 3.573l.208-.624.48-.96 1.2.24.24.72-.24.96-.374.188a30.55 30.55 0 0 0 7.35 1.353l.464-.581zm115.199-40.32l.96.24c.314.961.123 1.415-.239 2.16l-1.44-.48-.24-.72.959-1.2zm-.239 5.76l1.199.24.48.96-.96.96-.72.24c-.467-.635-.541-.586-.721-1.68l.722-.72zm-.24 6l1.68.24v.24l-.24.96-.479.72h-.72l-.721-.96.48-1.2zm-.481 6.24l.96-.72 1.2.48c-.052 1.083-.17 1.294-.479 1.92-1.172-.201-1.104-.265-1.681-.96v-.72zm-14.88-22.56l-.479.96-1.681-.24.24-1.68c1.33.079 1.238.167 1.92.72v.24zm11.281 29.52l-.48.239h-.96l-.479-.479.24-1.44c1.462.08 1.327.09 1.92.96l-.241.72zm2.639-8.4l-1.199.24c-.469-.644-.706-.635-.48-1.44l.48-.96c1.068.18 1.009.3 1.68.72l-.481 1.44zm.481 5.28c-.994.627-1.036.764-2.16.24v-1.2l.719-.72c.737.359.773.267 1.201.96l.24.72zm-.24-17.04l-.72.479-.96-.241-.24-.479.24-1.44c1.524.101 1.229.165 1.92.96l-.24.721zm-1.68-7.44h1.439v.48c.405 1.14.011 1.074-.72 1.68l-1.2-1.2.481-.96zm.24 11.28l1.439.48c-.09 1.752-.441 1.752-1.68 1.68l-.48-1.44.721-.72zm.238 17.28c.951.356.948.429 1.441 1.199l-.24.721-1.439.239-.721-.96.959-1.199zm-3.119-37.2c1.087.206.715-.028 1.2.72v1.2l-.72.24-.72-.24-.24-1.2.48-.72zm.24 5.52c.863.33.762.216 1.2.96l.24.72-1.2.72-.72-.24-.24-1.68.72-.48zm-.24 6c1.194.133.93-.045 1.44.72l.24.72-.721.48c-1.232-.183-1.116-.193-1.68-.96l.721-.96zm-.719 6.24l.72-.72h.721l.96 1.2-.96.96-.721.24-.72-.96v-.72zm.48 5.04l1.92.72v.24c-.439 1.793-1.491 1.602-2.4.48l.48-1.44zm-.48 7.2l.24-.48.479-.96 1.681.72-.48 1.44c-1.083-.052-1.294-.17-1.92-.48v-.24zm.48 10.319l1.68.241c-.101 1.524-.165 1.229-.96 1.92l-.72-.239-.48-.721.48-1.201zm-2.642-37.439c1.227.14 1.027.189 1.682.72v.24l-.48.96-1.68-.24c.069-1.05.14-1.115.478-1.68zm1.442 12v.24c-.243 1.191-.168.9-.96 1.44l-.96-.96c-.112-.655-.049-.539.24-1.2l1.68.48zm-1.92-6l.479-.24c.964.138.719-.011 1.201.48v1.44h-1.201l-.719-.72.24-.96zm-.24 11.76l.719-.72 1.441.48.24 1.2-.721.719c-1.172-.2-1.104-.264-1.68-.959v-.72h.001zm0 5.76l.96-.72 1.44.72c-.264 1.347-.371 1.029-1.2 1.68l-.72-.24-.48-.72v-.72zm0 6.24l.719-.96c1.348.155 1.111.124 1.682.96l-.24.72-1.441.24-.719-.72v-.24h-.001zm.96 4.56l.96.239.24.48v.96l-.72.479c-1.061-.186-.892-.145-1.44-.72l.96-1.438zm-.96 6.72l.48-.72 1.68.479v.24.96l-.72.479h-.96l-.48-.479v-.959zm-2.161-44.16l1.2.24.479.96-1.199 1.2-.96-.96-.24-.72.72-.72zm-.24 6l1.681.24v1.2l-.721.48h-.96l-.479-.96.479-.96zm1.92 6.72l-.239.72-.48.24h-.96l-.479-.48.239-1.44c1.525.1 1.229.165 1.919.96zm-2.399 5.28l.72-.72h.72l.96.96c-.396 1.094-.444 1.165-1.68 1.44l-.72-.72v-.96zm0 6.48v-.72l.72-.72 1.44.24.239.72-.239.96c-.961.313-1.415.123-2.16-.24v-.24zm2.16 4.8v1.2l-.721.48-1.199-.24.239-1.68 1.681.24zm-1.2 5.279c.99.299.844.399 1.439.962v.239l-1.199 1.2-1.2-1.2.96-1.201zm-.241 5.761l1.2.238.479.962-.96.96h-1.199l-.24-1.44.72-.72zm-.719 6.72l.479-.72c1.463.079 1.329.09 1.92.96-.696 1.204-1.169 1.294-2.399.72v-.96zm-2.64-49.44l.72-.48c.846.405.948.454 1.439 1.2l-.239.72h-1.92v-1.44zm.48 5.28h.72l.721.48v1.199l-.96.721-1.2-1.2.719-1.2zm0 6c1.061.185.892.145 1.44.72-.243 1.191-.168.899-.96 1.44l-1.2-1.2.72-.96zm1.44 6.48v1.199l-.24.241-1.441-.241c-.304-1.191-.143-1.393.481-2.159.862.329.761.216 1.2.96zm-1.682 5.04l1.682.24c-.064 1.269.056 1.157-.721 1.68l-.72.239-.72-.959.479-1.2zm1.442 5.76v1.92h-1.2l-.479-.24c.051-1.083.169-1.294.479-1.92l1.2.24zm-1.92 6.24l.96-.72 1.2.48c-.08 1.462-.09 1.327-.96 1.92l-1.2-.96v-.72zm.72 5.28l1.44.24c-.052 1.083-.17 1.294-.48 1.92-1.378-.178-1.379-.186-1.68-1.439l.72-.721zm0 5.52l1.2.24.479.96-1.199 1.199c-.9-.523-.966-.405-1.2-1.68l.72-.719zm-3.121-48.72c1.33.079 1.238.167 1.92.72l-.479 1.2-1.2.24-.72-.96.479-1.2zm0 5.76l1.68.48v.24l-.239 1.2c-1.462-.08-1.328-.09-1.92-.96l.479-.96zm-.479 12.72v-.72l.96-.72 1.199.48-.239 1.68c-1.083-.052-1.294-.169-1.92-.48v-.24zm.96 4.32l1.439.72v.24c-.396 1.094-.444 1.165-1.68 1.44l-.72-1.2.961-1.2zm-.96 6.48l.96-.72 1.439.72v.24c-.396 1.094-.444 1.165-1.68 1.44l-.72-.96v-.72h.001zm.72 5.04c1.069.179 1.009.3 1.68.72l-.479 1.44-.721.24-.96-.96-.239-.72.719-.72zm1.439 6.48l-.479 1.439-1.44-.479.24-1.44 1.679.48zm-1.439 5.04l1.68.72v.24.96l-.72.479-1.44-.479-.239-1.2.719-.72zm0 5.76h.72l.96 1.2-.479 1.2-1.681-.24-.239-1.44.719-.72zm-10.321-9.36l-1.68-.239v-1.44l.72-.481 1.2.481-.24 1.679zm-.719 6l-.72-.239-.24-1.681.72-.479c.722.308.539.15.96.72.405 1.139.01 1.072-.72 1.679zm1.2-18.48l-.96.96h-1.2c-.225-.933-.127-1.165.24-1.92l.479-.24 1.44.96v.24h.001zm2.399 26.88h-.96c-.584-.548-.522-.384-.72-1.44l.48-.72 1.199.24.24.479-.239 1.441zm-.719-5.52l-.72-.239-.24-.48.24-1.439h1.439v.479l.24 1.2-.959.479zm3.12 2.88l-.96-.24c-.338-.902-.321-.799-.24-1.92l.48-.24c1.299.273 1.402.386 1.68 1.68l-.96.72zm-.72-42.72h.72l.96 1.2-.24.72h-1.92c.051-1.083.169-1.294.48-1.92zm-.481-3.84l.24-1.68c1.348.154 1.109.123 1.68.96l-.24.72-.239.24-1.441-.24zm4.8 48.72l-.479.48c-1.231-.183-1.117-.193-1.68-.96l.96-1.2 1.199.48v1.2zm-.96-5.04l-1.199-1.199.72-.96 1.439.239c-.079 1.462-.09 1.328-.96 1.92zm1.201-6.24l-.72.479-1.441-.479-.238-.721.72-1.199h.72l.96.96v.96h-.001zm-2.4-6.24l.479-1.2 1.68.48v.24.959l-.479.48c-1.232-.182-1.117-.192-1.68-.959zm1.92-5.52l-.721.72-.72-.24-.479-.72.96-1.44c.95.357.946.429 1.439 1.2l-.479.48zm.239-5.52l-1.439.24-.72-.96.96-1.2c.95.357.946.429 1.439 1.2l-.24.72zm-.96-5.28l-.961-.96-.238-.72.72-.72 1.68.72c-.265 1.347-.371 1.029-1.201 1.68zm-.961-18.72l.722-.72c1.08.209.826.221 1.439.72l-.24.72-.72.48-1.201-.24v-.96zm0 5.76l.722-.96.96.24c.313.96.122 1.415-.24 2.16-1.332-.142-1.747-.402-1.442-1.44zm.482 4.8l1.68.72v.24l-.24.959h-1.68l-.72-.479.96-1.44zm-3.12-14.4l1.439.24.48.96-.24.72-.479.24-.96-.24-.721-.72.481-1.2zm0 17.28l1.68.48v.24l-.24 1.44h-1.199l-.721-.96.48-1.2zm-.481 6.48l.96-.72c.952.357.947.429 1.44 1.2l-.96.96-.72.24-.721-.96v-.72h.001zm0 6.48v-.72l.96-.72c.846.405.948.454 1.44 1.2l-.24.72c-.96.313-1.416.123-2.16-.24v-.24zm.481 4.56c1.194.133.93-.046 1.439.72.324 1.051-.015.841-.72 1.44l-.72-.24-.48-.72.481-1.2zm.479 5.519c.966.275.919.331 1.44.962l-.24.96-.96.479-1.2-1.2.96-1.201zm-.479 6l1.68.241c-.063 1.27.056 1.157-.72 1.681l-.72.239-.721-1.199.481-.962zM118.248.095h.72l.72.48v1.2l-.96.72-1.201-1.201.721-1.199zm-.24 6c1.269.064 1.157-.055 1.68.72l.24.72-.96.72-1.2-.48-.241-.72.481-.96zm.24 5.76l1.439.24v.24c-.206 1.278-.267 1.029-.96 1.68l-1.201-1.2.722-.96zm-.722 6.24l.722-.72h.72l.96.96-.24.959-.96.481-.72-.24-.481-.72v-.72h-.001zm.242 5.52l.72-.48c.95.357.947.429 1.44 1.2l-1.2 1.44h-.479l-.722-.96.241-1.2zm.48 5.28l1.199.24.48.96-.72 1.199-1.44-.479-.241-1.2.722-.72zm-.722 6.96l.961-1.2.96.24.24.48v.96l-.72.48c-1.08-.209-.827-.222-1.441-.72v-.24zm2.162 5.52l-.24 1.2-1.68-.24.48-1.68c1.06.185.892.145 1.44.72zm-1.201 4.8c.535.287.597.262.96.72l.24 1.2-.72.239-.72.24-.722-.96.962-1.439zm-3.12-43.2c1.194.133.93-.046 1.44.72v1.2h-1.92c.052-1.083.171-1.294.48-1.92zm0 6c1.061.186.892.145 1.44.72-.242 1.191-.168.899-.96 1.44l-.72-.24-.24-1.68.48-.24zm-.239 5.76c1.462.08 1.327.09 1.92.96l-.24.72-.96.48-.72-.24-.48-.72.48-1.2zm-.481 6.24l.96-.72 1.44.72c-.265 1.347-.371 1.028-1.2 1.68l-.72-.24-.48-.72v-.72zm.72 5.04l1.681.72-.48 1.44h-.24l-1.439-.24-.24-.96.718-.96zm-.239 11.76l1.68.24v1.2l-1.2.72-.96-1.2.48-.96zm0 17.28l1.68.479v.24l-.24.96-1.439.24-.48-.96.479-.959zm-7.681-12.24c-.677-.352-.765-.386-1.199-.96l.479-1.2c1.194.133.93-.046 1.44.72l.239.72-.959.72zm.721 3.84c-.178 1.268-.343 1.23-.96 1.92l-.721-.24-.239-1.199.479-.721 1.441.24zm.239-11.04l-.239.48-.48.72-1.2-.24v-.48l-.239-.72.72-.72 1.439.72v.24h-.001zm2.16 21.36l-1.439-.24v-.96l.72-.72 1.2.238.24.722-.721.96zm-1.2-7.2l.48-.24.96.721-.72.72c-.933-.653-.579-.171-.72-1.201zm4.561 3.84l-.24.48h-1.2l-.479-.96.72-.96 1.2.239v1.201h-.001zm-.96-5.04l-.72-.24-.24-1.199.479-.721c1.061.187.892.146 1.44.721-.268 1.226-.242.813-.959 1.439zm-.96-42.24l.96-.48.96.96.24.72-1.2.72-1.2-1.2.24-.72zm2.16 6.959l-.721.721-1.439-.24c-.225-.934-.127-1.165.24-1.92l.479-.24c.736.358.771.267 1.2.96l.241.719zm-1.44 4.081c.863.33.762.215 1.2.96v1.2l-.48.24c-1.288-.237-1.135-.309-1.68-1.2l.96-1.2zm-.48 6c1.285.058 1.315.087 1.92.72l-.721 1.44-1.439-.479-.24-.48.48-1.201zm.48 5.52l1.2.24c.156 1.036.144 1.106-.24 1.92l-.72.239-1.2-1.199.96-1.2zm-.241 5.76c1.069.18 1.01.3 1.681.72l-.48 1.44-.72.24-.96-.96-.24-.72.719-.72zm0 6l1.681.48-.48 1.44h-1.2l-.72-.96.719-.96zm-.239 17.28h1.439v.479.96l-.479.721-.721-.24-.72-.72.481-1.2zm-2.881-54.72h1.44v.48c.405 1.14.012 1.073-.72 1.68l-1.2-.96.48-1.2zm1.921 6.72l-.24.72-.48.24h-.96l-.479-.48v-.96l.72-.72c.949.356.945.429 1.439 1.2zm-1.681 4.56l1.44.24.24.72-.24.96-.96.48-1.2-1.2.72-1.2zm1.441 6.24v.24c-.207 1.277-.267 1.028-.96 1.68l-.721-.24-.239-1.68.479-.24 1.441.24zm-2.16 6.24l.72-.72 1.681.48v.72l-.961.72h-.96l-.479-.48v-.72h-.001zm.96 4.8c.862.329.761.216 1.2.96l.24.72-.961.72-1.199-.48-.24-1.2.96-.72zm-.72 6.72l.479-.96 1.44.48.24 1.2-.721.72-.96-.24-.72-.48.242-.72zm-.24 5.52l.96-.722c.535.288.597.264.96.722.405 1.14.012 1.073-.72 1.68l-.721-.24-.479-.72v-.72zm-2.401-37.92l1.681.24v.24c-.212 1.586-.492 1.506-1.681 1.44l-.239-.48.239-1.44zm-.479 6.24l.96-.72 1.439.72-.479 1.44-1.2.24-.72-.96v-.72zm0 6.24l.72-.96 1.44.24c-.101 1.524-.165 1.229-.96 1.92l-1.2-.96v-.24zm0 5.28l.479-.72 1.44.24.479.96-.239.72-.96.479-.721-.241-.479-.479v-.959h.001zm.72 5.28l1.44.24v.24l-.24 1.44h-1.2l-.72-.96.72-.96zm-.241 23.04c1.463.079 1.328.09 1.92.96l-.239.72-.96.479-.721-.239-.479-.721.479-1.199zm-2.88-43.2l1.681.24c-.052 1.083-.17 1.293-.48 1.92h-.24l-.96-.24-.24-.48.239-1.44zm.481 5.52c.535.287.597.262.96.72v.96.48l-.721.24-.72-.24-.24-1.68.721-.48zm-.481 6c1.462.08 1.328.09 1.919.96l-1.199 1.2-1.199-1.2.479-.96zm0 5.76h1.44l.479.48c-.209 1.743-.947 1.81-2.159 1.2l-.239-.72.479-.96zm-.479 6.96l.96-1.44c1.068.327.938.381 1.438 1.2l-.238.72c-.961.313-1.415.123-2.16-.24v-.24zm.479 4.56c1.27.063 1.157-.056 1.681.72l.238.72-1.679.72-.72-.96.48-1.2zm1.201 7.68l-1.44-.239v-.96l.48-.721c.962.139.718-.011 1.2.48.207.757.07.762-.24 1.44zm-.72 3.6c.965.273.918.329 1.438.96l-.479.96c-.472.495-.09.248-.96.479l-.721-.479-.239-1.2.961-.72zm-9.12-19.92c1.269.064 1.157-.055 1.68.72l.24.72-1.2.719-.96-.959c-.113-.654-.048-.539.24-1.2zm-.24-4.32l.24-1.44 1.68.24v1.2l-.479.479-1.441-.479zm4.56 25.68l-.48.721h-.72l-.48-1.44.72-.72c.722.308.539.15.961.72v.719h-.001zm3.359-3.36l-.24.96h-1.92l.48-1.681 1.68.48v.241zm-2.16-4.8l.24-1.68 1.68.24-.239 1.68-1.681-.24zm.481-30.48l1.439.24v.96l-.239.72h-1.2l-.72-.96.72-.96zm1.679 18.72c-.91.522-.986.628-2.16.48-.225-.934-.126-1.165.24-1.92l.48-.24c.736.358.771.268 1.199.96l.241.72zm-1.2-10.8l-.72-.24-.24-1.44.721-.72.96.24c.372 1.267.218 1.551-.721 2.16zm-.719 3.6c1.347.155 1.109.124 1.68.96l-.96 1.2-.72-.241-.479-.719.479-1.2zm.24 11.52c1.347.154 1.109.124 1.68.96l-.24.72-1.439.24-.72-.96.719-.96zm.24 17.04l1.199.24.24 1.199-.96.721h-.96l-.479-.96.96-1.2zm-2.881-43.2c.536.287.598.263.961.72l.238 1.2-.959.48-1.2-1.2.96-1.2zm-.479 5.76l1.679.48.241.72-.72 1.2c-1.172-.201-1.104-.265-1.681-.96l.481-1.44zm0 6l1.92.24v1.2l-.479.48h-1.2l-.721-.96.48-.96zm.24 5.76l1.438.24.241.72-.96.96-.72.24-.721-1.44.722-.72zm0 5.52c1.069.18 1.009.3 1.68.72l-.241 1.44-.479.24-.96-.24-.721-.72.721-1.44zm-.721 6.72l.96-.96c.951.357.947.428 1.44 1.2l-.241.72c-1.329.472-1.481.072-2.159-.72v-.24zm.481 5.04l1.44.24c.336 1.017.296 1.131-.48 1.68l-.72.24-.721-1.2.481-.96zm-2.401-31.92l1.44.72v.24l-.24.96-.96.48-.72-.24-.24-1.68.72-.48zm-.479 5.76l1.68.48.24.48-.24.72-.72.479c-1.087-.206-.714.028-1.2-.72-.149-.642-.031-.751.24-1.439zm0 17.52l1.68.48v.24c-.206 1.086.028.714-.72 1.2l-.72.24-.721-.96.481-1.2zm.479 5.52l1.44.72-.24 1.44-.479.24h-.96l-.721-.96.96-1.44zm-.479 6l1.68.24c-.052 1.083-.17 1.294-.479 1.92l-1.44-.479-.24-.721.479-.96zm-2.641-31.68c1.061.185.892.145 1.44.72l-.241 1.2-1.679-.24.48-1.68zm0 5.76c1.226.139 1.026.19 1.681.72l-.24.72-.72.48-1.2-.24.479-1.68zm-.239 5.76l1.68.48v.24c-.241 1.191-.168.9-.96 1.44l-.72-.24-.24-.48.24-1.44zm-.481 6.72l.96-1.2c.99.297.844.398 1.44.96v.24l-.72 1.2-1.44-.48-.24-.48v-.24zm2.161 6.48l-.96.48-.72-.24-.24-1.68.72-.48c.722.308.539.151.959.72l.241 1.2zm-2.161 5.28v-.72l.96-.722 1.44.962v.239l-.481.96c-1.082-.052-1.293-.17-1.919-.479v-.24zm-2.16-27.12c1.061.185.892.145 1.44.72l-.24.959-1.439.241-.48-.96.719-.96zm-.239 5.76h1.439l.48.48c-.183 1.232-.193 1.117-.96 1.68l-.96-.241-.48-.959.481-.96zm1.439 5.76v.48 1.44h-.96l-.72-.24.24-1.68h1.44zm-.959 5.52c.95.357.947.429 1.44 1.2l-.24.72-.96.48-1.2-1.2.96-1.2zm-.241 5.76c1.299.273 1.402.385 1.681 1.68l-1.2.72-1.2-1.2.719-1.2zm-3.599-18.96l.96-.96 1.2.24v1.2l-.24.48c-1.33-.079-1.238-.167-1.92-.72v-.24zm.479 4.8c1.347.155 1.11.123 1.681.96l-.24.72-.479.24c-1.061-.186-.892-.145-1.44-.72l.478-1.2zm0 5.76h.721l.96.96-.72.96h-.961l-.479-.96.479-.96zm0 5.76h1.44v.48c.208.757.071.762-.241 1.44h-.238c-1.061-.186-.892-.145-1.44-.72l.479-1.2zm-3.359-13.44l.72-.96 1.2.24.24.72-.721.959c-1.08-.208-.826-.22-1.439-.719v-.24zm.479 4.56l1.681.48v.24l-.24.96-.72.719-1.2-1.199.479-1.2zm-.479 6.96l.96-1.2.96.24.24.48v.96l-.721.48c-1.08-.209-.826-.222-1.439-.72v-.24zm-3.601.48l-.96.72-.96-.96c-.112-.654-.047-.539.241-1.2l1.679.24v1.2zm1.201-10.32l1.68.48.239.72-.719 1.2c-1.233-.183-1.117-.193-1.68-.96l.48-1.44zm.24 5.76h.719l.721.48c-.101 1.525-.165 1.229-.96 1.92l-1.2-1.2.72-1.2zm0 6c.963.139.718-.011 1.2.48l.24 1.2-.721.24-.719.24-.72-1.44.72-.72zm-2.88-14.4c.962.138.718-.011 1.2.48.404 1.14.011 1.073-.721 1.68l-1.199-1.2.72-.96zm.24 5.52c.846.405.948.454 1.44 1.2l-.241.72-.96.479-1.199-1.199.96-1.2zm-3.6-2.16l.72-.72.96.24c.31 1.043.367 1.362-.48 1.92l-.72.24-.48-.48v-1.2zm.72 5.04l1.199.24.241.72-.241.96-.479.24-1.44-.24-.241-.96.961-.96zm-2.64 5.28l-.72-.24-.24-1.68.48-.24c.962.139.718-.011 1.199.48l.241 1.2-.96.48zm-.72-13.68l1.68.24c-.08 1.462-.09 1.328-.96 1.92l-1.201-.96.481-1.2zm0 5.76c1.268.064 1.157-.055 1.68.72l.24.72-.96.719h-.96l-.481-.719.481-1.44zm-3.36-2.4l.72-.72 1.199.24.241.48v1.2l-.96.48-1.2-.72v-.96zm0 5.76l.72-.72 1.199.24.241.48-.241 1.44h-1.199l-.72-.48v-.96zm-13.201-1.201l-.719-.239-.241-1.44.481-.72c1.299.273 1.402.386 1.68 1.68l-1.201.719zm1.201 4.561l-.241.72h-1.92v-1.44l.721-.48c.95.357.946.429 1.44 1.2zm1.919 9.84l-.96-.24-.239-1.68.72-.481c.95.358.946.431 1.439 1.201l-.96 1.2zm9.121-8.88c-1.462-.08-1.328-.09-1.92-.96l.48-.96 1.68.24-.24 1.68zm-1.68-13.44c1.622.039 1.446.137 2.16.96l-.96 1.44-1.44-.96.24-1.44zm-.481 6.96l.241-.96.96-.48c.845.405.948.454 1.44 1.2l-.96.96c-.924.167-.912-.007-1.681-.48v-.24zm-2.639-9.36l.96-.72.96.24c.313.961.123 1.415-.241 2.16-1.171-.201-1.103-.265-1.679-.96v-.72zm.96 5.04l1.44.96v.24l-1.2 1.2-1.2-1.2.96-1.2zm-.96 6.48l.719-.72 1.441.24c.109 1.046.034 1.153-.24 2.16l-.72.24-1.2-.72v-1.2zm.719 5.04l1.201.24c.313.961.123 1.415-.241 2.16l-1.439-.48-.24-1.2.719-.72zm-2.639-20.16l1.439.96c-.417.842-.55.888-1.199 1.44l-1.2-1.2.96-1.2zm-.24 5.76l1.2.24.479.96-1.199 1.2-.721-.241-.479-1.199.72-.96zm-.72 6.48l.72-.72c1.697.207 1.729.682 1.44 2.16l-.96.479-1.2-.72v-1.199zm0 5.76l.72-.72 1.679.72c-.248 2.108-1.428 1.79-2.399.72v-.72zm.72 5.04h.719l.96.96c-.395 1.094-.444 1.166-1.679 1.44l-.72-.96.72-1.44zm-2.88-25.92l1.2.24.24.48-.24.96-.481.72h-.719l-.72-1.68.72-.72zm0 5.76c1.378.256 1.189.385 1.679 1.44-.877 1.403-1.612.943-2.399-.24l.72-1.2zm.24 5.76l1.2.24v1.92l-.721.24-.96-.24-.479-.96.96-1.2zm-.24 5.76c1.069.18 1.009.3 1.679.72l-.239 1.44-.48.24-1.44-.48-.24-.72.72-1.2zm-.241 6c1.287.059 1.316.088 1.92.72l-.239.96-1.44.24-.72-.72.479-1.2zm-1.2-12.72l-.479.239-1.441-.239v-1.2l.721-.72 1.199.24.241.72-.241.96zm-1.439-13.2l1.2.24c.371 1.206.157 1.331-.721 1.92l-.719-.24-.241-.481.481-1.439zm.24 5.52c.535.287.597.262.96.72l.239 1.199-.719.241h-1.201l-.239-1.44.96-.72zm-.48 23.28c1.286.058 1.315.088 1.92.72l-.72 1.44c-1.233-.183-1.117-.193-1.68-.96l.48-1.2zm0 5.76h1.44l.48.48-.48 1.439-1.2.24-.72-1.2.48-.959zm-12.96 10.56h-1.68c-.183-.893-.087-1.121.24-1.92 1.057.026 1.185-.022 1.68.479.208.759.071.763-.24 1.441zm.24-17.52l-.96.48-.72-.24-.24-1.68.72-.48c.845.405.948.454 1.44 1.2l-.24.72zm.24 5.52l-1.2.72-.72-.24-.24-.479.24-1.44c1.269.063 1.156-.056 1.68.721l.24.718zm-2.16-11.52l.24-1.44 1.68.48v.24l-.24 1.2h-1.201l-.479-.48zm6.72 18l-.72-.239-.24-.48.24-1.441 1.68.241c-.101 1.523-.164 1.228-.96 1.919zm6.96-12.72l-.96.96-.72.24-.481-.48v-1.2l.721-.72 1.44.96v.24zm0-11.76l-.241.96-.479.24-1.441-.24v-1.2l.721-.72 1.44.72v.24zm-1.92-12.24c1.33.079 1.238.167 1.92.72l-.241.72-.719.48c-1.08-.209-.826-.222-1.44-.72l.48-1.2zm.48 5.52l1.44.72c-.202 1.172-.265 1.104-.96 1.68l-.96-.24-.48-.96.96-1.2zm0 11.52l1.199.48-.239 1.44-.48.24c-1.061-.185-.892-.145-1.44-.72l.96-1.44zm-.48 11.76l1.679.24c-.1 1.524-.164 1.229-.96 1.92l-1.199-1.2.48-.96zm.24 5.52c1.194.133.929-.046 1.439.72v1.2l-.96.479-1.199-1.199.72-1.2zm-3.12-37.2l1.68.24c-.101 1.525-.165 1.229-.96 1.92l-.96-.96c-.113-.654-.048-.539.24-1.2zm1.92 6.48c-.397 1.094-.445 1.166-1.68 1.44l-.48-1.68.719-.72c.966.274.919.33 1.441.96zm-1.92 5.04c1.462.08 1.328.089 1.92.96l-.24.72-.96.479-.96-.96c-.113-.654-.048-.538.24-1.199zm.24 5.52l1.44.48.24 1.2-1.2.719-.96-.959-.241-.72.721-.72zm0 5.76c1.061.185.892.145 1.44.72-.207 1.278-.267 1.029-.96 1.68l-.96-.96-.241-.72.721-.72zm-.721 6.48l.481-.72 1.68.48.24.72-.24.72-.96.48-.72-.24-.481-.48v-.96zm.721 5.04l1.199.239.481.96-.24.721-1.44.239-.721-.96.721-1.199zm-3.12-37.2l1.68.24c-.052 1.083-.17 1.293-.48 1.92l-1.44-.48-.241-.48.481-1.2zm-.481 6.24l.721-.72h.72l.96.96-.24.96-.96.48-1.201-.72v-.96zm.481 5.28c1.462.08 1.327.09 1.92.96l-.96.96-.72.24-.721-.96.481-1.2zm0 5.76c1.462.08 1.327.09 1.92.96l-.72 1.2-1.44-.48-.241-.48.481-1.2zm.24 5.52c1.299.273 1.402.386 1.68 1.68l-.96.72-.96-.24-.481-1.44.721-.72zm-.721 6.96l.96-1.2 1.201.48-.241 1.44c-1.134.261-1.171.139-1.92-.48v-.24zm.721 4.559l1.44.241.24.721-.481 1.199h-1.199l-.48-.72-.241-.72.721-.721zm-3.6-36.239l.96-1.2 1.44.72v.24l-.24.96-1.441.24-.719-.721v-.239zm0 5.28l.719-.72 1.441.24.24.48-.24 1.44-1.441.24-.719-.721v-.959zm2.4 6.24l-.721 1.2c-1.332-.143-1.746-.402-1.439-1.44l.72-.96c.845.405.948.454 1.44 1.2zm-2.16 5.52l.479-.96c1.07.179 1.01.3 1.681.72l-.48 1.439-.72.241-1.2-.96.24-.48zm-.24 5.52l.96-.72c.95.357.947.429 1.44 1.2l-.24.72-.96.479-.72-.239-.48-.72v-.72zm.96 5.04l1.44.96v.24l-.96.96-.721.24-.719-1.2.96-1.2zm-.48 6l1.68.24-.24 1.68c-1.462-.079-1.328-.09-1.92-.96l.48-.96zm-.48 6.24l.96-.72.96.239c.314.961.123 1.415-.241 2.16-1.171-.201-1.103-.265-1.679-.96v-.719zm0 6.24l.719-1.2 1.201.24c.472 1.33.072 1.482-.72 2.159l-1.2-.96v-.239zm-2.161-50.16c1.195.133.93-.046 1.441.72v1.2l-.96.48-1.2-1.2.719-1.2zm.241 5.76l.96.24.24.48c-.206 1.278-.267 1.029-.96 1.68l-1.2-1.2.96-1.2zm.96 6.48v.96l-.48.72h-.721l-.479-1.44.479-.72c.963.139.718-.011 1.201.48zm-1.92 6.48v-.72l.719-.72c1.195.133.93-.045 1.441.72.208.757.071.763-.24 1.44-1.083-.052-1.294-.169-1.92-.48v-.24zm.48 4.56c1.525.101 1.229.164 1.92.96l-.96.96-.721.24-.719-.96.48-1.2zm.239 22.8l1.201.238.48.962-.96 1.199c-1.095-.396-1.166-.444-1.44-1.68l.719-.719zm-2.879-42.96h.719l.721.48c-.243 1.191-.168.899-.96 1.44l-.721-.24-.239-.72.48-.96zm-.241 5.76l1.681.24-.24 1.68-1.68-.24.239-1.68zm0 5.76c1.331.079 1.24.167 1.921.72l-.24.72-.721.479h-.96l-.479-.72.479-1.199zm.241 5.52l1.2.24c.471 1.33.072 1.483-.72 2.16l-1.2-1.2.72-1.2zm1.44 6.48v.96l-.721.48-1.199-.24c.052-1.083.17-1.294.48-1.92l1.2.24.24.48zm-2.16 5.76l.72-.72h.719l.961 1.2-.961.96-.719.24-.72-.96v-.72zm.479 5.28l1.681.24c-.08 1.462-.09 1.327-.96 1.92l-1.2-.96.479-1.2zm0 5.52l1.201.239.72.48-.24.96-.721.72c-1.185-.329-1.233-.359-1.439-1.68l.479-.719zm0 6h1.441v.479l.24 1.2-.721.24-.719.239-.72-1.199.479-.959zM3.048 23.135c1.345.411 1.358.639 1.2 1.92-.889.177-.933.112-1.68-.24.07-1.05.14-1.114.48-1.68zm-.721 12.24l.721-.72c1.31.412 1.655.951 1.2 2.4h-1.2l-.721-.72v-.96zm1.2 7.44l-.719-.24-.24-1.2.48-.72 1.439.24c-.079 1.462-.089 1.327-.96 1.92zm.241-11.76l-.72.239-.721-.959v-.72l.961-.72c.845.405.948.454 1.44 1.2l-.96.96zm14.16-14.16l-1.2-1.2.719-1.2h.721l.72.48v1.2l-.96.72zm.96 4.08c-.186 1.061-.146.892-.72 1.44l-.96-.24-.24-1.2.479-.72c1.061.186.892.145 1.441.72zm-1.2 10.8c.863.329.761.216 1.2.96v1.2h-1.441l-.479-.72-.24-.72.96-.72zm-6.241-11.28l1.681.24c-.101 1.524-.165 1.228-.96 1.92l-.721-.24-.479-.72.479-1.2zm-.239-4.08c.069-1.049.14-1.115.48-1.68l1.2.24.24.24-.24 1.44h-1.2l-.48-.24zm.239 9.84l1.681.24-.24 1.68h-.24c-1.233-.182-1.118-.193-1.68-.96l.479-.96zm-5.279-11.76l1.199.48c-.051 1.083-.169 1.294-.479 1.92h-.24c-1.086-.206-.714.027-1.201-.72l-.239-.96.96-.72zm-.96 7.2v-.72l.96-.72.96.24.239.48-.239 1.44h-1.2l-.72-.48v-.24zm2.159 23.28c-.794.511-.71.518-1.679.479l-.241-.479.241-1.44 1.679.48v.96zm-1.92-5.52c.052-1.083.17-1.294.481-1.92l1.2.24v1.92l-1.681-.24zm1.681-5.52h-1.2l-.72-.96.96-1.2 1.44.72-.48 1.44zm.48-6.72l-.48.96h-1.2l-.24-.72c-.113-.655-.048-.539.24-1.2 1.224.14 1.026.19 1.68.72v.24zm2.4 21.12l-1.681-.239.241-1.681 1.68.24-.24 1.68zm.24-6.96l-.24 1.2c-1.462-.079-1.328-.09-1.92-.96l.48-.96 1.68.48v.24zm0-4.8l-.48.24c-1.233-.183-1.117-.193-1.68-.96l.72-1.2 1.44.24.239.72-.239.96zm0-5.76c-.961.313-1.415.122-2.16-.24v-.24l.48-1.2c1.461.079 1.328.09 1.919.96l-.239.72zm-1.921-5.76v-1.44l.721-.48.96.24.24.48v.96l-.721.479-1.2-.239zm1.921-6l-.48.72-1.441-.24c-.223-.934-.127-1.165.241-1.92l.48-.24 1.2.24.239.48-.239.96zm-.24-5.761l-.72.721-1.2-1.2.96-1.2 1.439.96-.479.719zm3.12 36.721c-.185 1.061-.145.892-.721 1.439l-1.439-.72v-.24l.479-1.201 1.681.481v.241zm.239-5.52l-.479.96c-1.33-.079-1.238-.167-1.92-.72v-.24l.96-1.201 1.439.962v.239zm-2.399-5.76l.479-.96c1.195.133.93-.046 1.441.72l.24.72-1.681.48-.479-.96zm1.439-4.8h-.96l-.479-.48c.179-1.399.197-1.015.96-1.68l1.2.24.239 1.2-.96.72zm.721-23.28l-.48.24-.96-.24-.72-.48v-.72l.96-.72c.846.405.948.454 1.439 1.2l-.239.72zm2.88 42.96l-.96.72-1.2-.96v-.72l.72-.72h.72l.72.479v1.201zm-.96-5.28l-1.2-.479v-.24l.479-1.2 1.681.24c-.183 1.231-.193 1.116-.96 1.679zm.96-6.96c-.269 1.227-.243.813-.96 1.44l-1.2-1.2.479-.96 1.681.48v.24zm-.24-4.56h-.241l-1.439-.24.239-1.68 1.681.24-.24 1.68zm-1.92-6.72l.479-.96 1.441.24c.337 1.016.296 1.13-.48 1.68l-.72.239-.72-1.199zm1.679-4.56l-1.439-.479-.24-.48v-.24l.96-1.2c.721.308.539.151.96.72l.24 1.2-.481.479zm.721-6.96l-.721 1.2-1.439-.481v-1.199l.72-.72c.99.297.844.398 1.44.96v.24zm-2.4-6.24l.96-.72c.535.287.596.263.96.72l.24 1.2-.481.48-1.439-.48-.24-1.2zm2.16-4.8l-.72.48h-.961l-.479-.96.96-1.2 1.44.96-.24.72zm2.64 49.2l-.72.24-.72-.24-.24-.479.24-1.2 1.44.238.24.481-.24.96zm-.72-5.28l-.72-.239-.48-.721.719-1.201 1.441.241c-.101 1.524-.165 1.229-.96 1.92zm0-5.76l-.72-.24-.24-.479.24-1.44c1.462.08 1.327.09 1.92.96l-1.2 1.199zm0-5.76l-1.2-.96.48-1.2c1.215.154 1.321.273 1.92.96-.401.902-.389.752-1.2 1.2zm.96-12l-.481.24h-.96l-.479-.48.24-1.44c1.462.08 1.327.09 1.92.96l-.24.72zm-.96-16.8l-1.2-.96.48-1.2c1.462.079 1.327.09 1.92.96l-1.2 1.2zm.479-5.76c-1.232-.182-1.116-.193-1.679-.96l.48-1.2c1.462.079 1.327.09 1.92.96l-.721 1.2zm2.881 48.96h-.24l-.96-.239-.24-1.681.479-.239 1.441.239c-.052 1.084-.17 1.294-.48 1.92zm0-6l-1.44-.239v-1.2l.72-.72c.863.329.761.216 1.2.96l.24.72-.72.479zm.72-6.72l-.96.96-.721.24-.479-.48v-.96l.72-.72c1.08.209.827.222 1.44.72v.24zm-.481-5.28c-.485.499-.24.328-1.2.48l-.719-.48v-.24-.72l.96-.72 1.44.96-.481.72zm-.239-5.041c-1.172-.2-1.103-.264-1.68-.959l.24-.48.479-.96 1.441.24.24.72-.72 1.439zm0-5.759l-1.44-.241-.24-1.439.719-.72h.721l.96 1.2-.72 1.2zm-1.68-6.96l.719-.96c1.061.185.892.145 1.441.72l-.241 1.2h-.239c-1.233-.183-1.117-.193-1.68-.96zm1.919-4.8l-1.2.24-.719-.96.719-1.44 1.681.72-.481 1.44zm.481-6.72l-.96.96-.721.24-.719-.961v-.239l.96-1.2c.99.297.843.398 1.44.96v.24zm8.64 25.44l-.241.96-.719.72-.96-.24-.241-.72v-.72l.721-.96 1.44.72v.24zm4.32-29.52c.846.405.948.454 1.439 1.2l-.239.72-1.44.24-.72-.96.96-1.2zm.96 13.68l-1.68-.24c.07-1.049.14-1.115.48-1.68 1.06.185.891.145 1.44.72l-.24 1.2zm.24 4.32v.96l-.721.48-1.199-.24v-1.44l.72-.48.96.24.24.48zm-.721-10.08l-1.199-.24.239-1.68 1.681.24v.96l-.721.72zm-1.199 14.88c1.083.052 1.293.17 1.92.48l.239 1.2-.719.72-.96-.24-.72-.48.24-1.68zm.239 6.24l1.201.24.719.48v.72l-1.199.72-1.2-1.2.479-.96zm0 5.76c1.27.063 1.158-.056 1.681.72l.239.72-1.199.72-1.2-.96.479-1.2zm.241 5.519l1.2.241.479.96-.719 1.2c-1.233-.183-1.118-.193-1.68-.96l.72-1.441zm1.679 6.481c-.211 1.369-.296 1.483-1.679 1.68-.469-.645-.706-.635-.48-1.439l.48-.96c1.069.178 1.008.299 1.679.719zm-2.399 5.76l.72-.72 1.44.24.239.72-.719 1.44h-.241l-1.439-.721v-.959zm-2.16-55.2l1.44.24v.24l-.24 1.2-.48.24-1.201-.24.481-1.68zm.24 5.52l1.2.48c-.09 1.752-.441 1.751-1.68 1.68l-.48-.721.96-1.439zm-.48 6l1.68.48-.24 1.44h-1.2l-.72-.96.48-.96zm-.241 6.48l.481-.96 1.2.24c.275.814.257.575.24 1.44l-.961.72-.719-.24-.48-.72.239-.48zm.481 4.8l1.679.72v.24l-.239 1.44h-1.2l-.96-1.2.72-1.2zm-.481 6.24l.721-.48c.95.357.946.429 1.439 1.2l-.959.96h-1.201l-.239-.48.239-1.2zm0 6.24l.481-.96 1.44.24.239.72c-.353 1.105-.448.846-1.2 1.44l-.719-.24-.48-.72.239-.48zm2.16 5.76l-.719 1.44-1.441-.48v-1.2l.721-.72c.965.274.918.33 1.439.96zm-2.399 6.24l.48-1.2c1.461.08 1.328.09 1.919.96l-.239.721c-.961.313-1.415.122-2.16-.24v-.241zm2.399 5.28c-.395 1.094-.444 1.165-1.679 1.439l-.481-.479.241-1.68c1.286.058 1.315.087 1.919.72zm-1.439 4.8l1.439.72-.479 1.44h-1.2l-.481-.72-.239-.721.96-.719zm-3.84-53.52l.96-1.2c.721.308.538.151.96.72v1.44c-1.331-.08-1.239-.168-1.92-.72v-.24zm0 5.28l.48-.72 1.44.24.48.96-1.201 1.2-.719-.24-.48-.48v-.96zm.96 5.04l1.44.72c-.183 1.233-.193 1.117-.96 1.68l-1.201-.48-.239-.72.96-1.2zm1.199 6.48c-.185 1.061-.144.892-.719 1.44l-.96-.24-.241-1.2.481-.72c1.06.186.892.145 1.439.72zm-1.92 6l.481-.96h.72l.719.48v1.2l-.96.72-1.199-.96.239-.48zm.481 10.56l1.439.24.241.72-.241.96-1.439.24-.72-.96.72-1.2zm-.72 6.48l.72-.722 1.2.241.239.48-.239.96-.721.72-1.199-.96v-.719zm2.159 5.76l-.239.96-.48.72h-.72l-.481-1.68.481-.72 1.2.238.239.482zm-2.159 6.48l.96-1.44c.965.273.918.33 1.44.96l-.241.96c-.96.313-1.414.122-2.159-.24v-.24zM25.367 7.294v-.719l.96-.72c.951.356.948.429 1.441 1.2l-.241.72c-.959.313-1.415.122-2.16-.24v-.241zm.721 4.321c1.742.21 1.81.948 1.2 2.16h-1.2l-.48-.72-.241-.72.721-.72zm1.68 6.96l-.241.719c-1.678.454-2.386-.267-1.439-1.679 1.346.155 1.109.124 1.68.96zm-1.441 4.56l1.441.72-.241 1.439-.479.241-1.44-.479-.241-1.2.96-.721zm-.96 6.48l.721-.72c1.52.214 2.2 1.278.96 2.16-.924.167-.911-.007-1.681-.48v-.96zm-1.92-26.64c.537.287.597.263.96.72l.241 1.2-.241.24c-1.462-.08-1.327-.09-1.92-.96l.96-1.2zm0 5.76l.96.24.241.48-.241 1.44h-.96l-.719-.24-.241-.72.96-1.2zm-.96 30l.96-1.2.96.24c.315.961.123 1.415-.239 2.16h-.96l-.721-.96v-.24zm.241-5.04v-1.44l.719-.48.96.24.241.48-.241 1.44-1.679-.24zm.96 23.52l-1.201-.96.481-1.2h1.439v.479l.241 1.2-.96.481zm1.2-6.96l-1.2.96-.72-.24-.24-.48.48-1.201c1.225.142 1.026.191 1.68.722v.239zm0-5.76l-.96.96-.72.24-.721-.96.721-1.2c1.225.14 1.026.19 1.68.721v.239zm-.96-16.08l-1.441-.72v-.96l.721-.72c1.299.273 1.402.386 1.68 1.68l-.96.72zm.96-7.2l-.24.96c-.96.314-1.415.122-2.161-.24v-.24l.96-1.44 1.441.72v.24zm-2.16-4.8l-.241-1.2.721-.72c1.299.273 1.402.385 1.68 1.68-.994.627-1.035.764-2.16.24zm4.799 42l-.239.96-.72.721-.96-.96c-.113-.654-.048-.539.24-1.2l1.679.24v.239zm-.239-4.32c-1.463-.08-1.328-.09-1.921-.96l.96-1.2.961.24.239.479-.239 1.441zm-1.921-6.48c.298-.989.399-.844.96-1.439l.961.239c.311 1.044.367 1.361-.48 1.92l-.72.24-.721-.96zm2.401-5.28l-.48.48c-1.084-.052-1.294-.17-1.921-.48v-1.2l.721-.72h.72l.96.96v.96zm-.72-5.52c-.924.167-.911-.007-1.681-.48v-.24l.96-1.44c1.072.313 1.146.388 1.681 1.2l-.96.96z" id="s"/><path d="M138.882 24.166c31.99 31.538 32.356 83.037.819 115.027s-83.037 32.357-115.027.819-32.356-83.038-.819-115.028 83.037-32.356 115.027-.818z" id="t"/><path d="M152.03 30.695l2.841 2.801c19.631-14.335 34.047-21.104 38.397-16.815 8.459 8.34-24.343 55.327-73.263 104.951s-95.437 83.089-103.896 74.749c-4.35-4.288 2.213-18.8 16.267-38.632l-2.841-2.802C6.877 185.366-4.24 208.752 2.598 215.493c11.305 11.146 67.387-27.411 125.263-86.117S223.49 14.044 212.185 2.899c-6.837-6.742-30.062 4.707-60.155 27.796z" id="u"/><path d="M44.177 51.315c-.87-1.143-1.344-2.328-1.493-3.608-.556-4.768 4.091-9.745 12.764-11.212.147-11.381 1.591-18.544 3.471-23.104l-1.456.156c-9.727 1.051-20.066-1.425-33.763.054C10.996 14.974 5.614 24.564 6.557 32.647c.786 6.746 5.946 12.489 15.011 11.511 9.131-.986 11.696-7.151 10.923-13.781a26.94 26.94 0 0 0-.571-3.178l5.846-1.573c.268 1.149.536 2.298.672 3.46.99 8.49-2.767 16.492-16.466 17.971C8.605 48.501 1.119 41.182.115 32.576-1.037 22.69 6.449 11.047 23.389 9.218c14.293-1.544 26.224 1.938 34.495 1.045 1.125-.121 2.044-.28 2.898-.43 1.998-2.983 4.086-4.033 5.508-4.481l2.621 2.368c-.935 1.75-2.308 3.193-4.727 4.278-.997 3.524-2.024 10.229-2.08 23.543a25.65 25.65 0 0 0 4.57-1.612c1.003-3.464 2.148-5.708 2.148-5.708l3.829 1.235c-.087 2.129-1.107 4.301-3.313 6.07-.013 2.769.093 7.115.642 11.826l-4.765.514c-.427-3.663-.04-7.239.541-10.305-1.091.413-2.314.839-3.683 1.164-.775 26.111-11.724 33.358-21.914 34.459-10.786 1.165-15.922-3.816-16.546-9.167-.59-5.059 2.804-10.431 9.216-11.182l.815 5.27c-2.911.314-4.467 3.073-4.14 5.865.393 3.373 3.541 6.801 10.488 6.051s14.521-5.336 15.378-30.161c-4.307.995-7.564 2.936-7.144 6.542.095.814.395 1.665.841 2.617l-4.89 2.297zm44.435-11.388c.331-.035 1.642.294 1.677.585l.007.059c-2.82 9.726-5.354 14.416-9.656 14.88-3.97.428-5.958-2.831-6.663-8.879-.496-4.245-.352-9.914.199-16.686 1.277-14.918 4.679-21.939 8.517-22.354 3.441-.372 4.718 1.963 5.064 4.929.4 3.43-.442 7.703-.894 9.576-1.825 7.912-5.594 14.089-7.908 17.224-.04 2.536.026 4.825.243 6.687.455 3.897 1.59 5.01 3.111 4.846 2.117-.227 4.211-4.105 6.304-10.867zm-4.607-28.592c-1.786.192-4.226 13.175-4.884 24.199 2.691-5.648 6.456-15.889 5.695-22.991-.095-.814-.479-1.244-.811-1.208zm28.258 26.863c-1.115 3.654-3.808 6.418-6.869 7.75-1.755 4.488-4.838 7.353-9.073 7.811-4.566.494-7.039-3.48-7.656-8.772-.38-3.256-.079-6.999.844-10.573l2.443.265c.206-4.555 2.531-8.753 7.23-9.259 4.434-.479 7.272 3.748 7.882 8.982.332 2.85-.116 5.901-.678 8.553 1.639-.883 3.057-2.508 3.93-5.37.397-.044 1.907.265 1.947.613zm-12.884 8.458c-2.887-.63-4.945-2.764-6.197-5.455a17.2 17.2 0 0 0 .094 2.523c.4 3.43 1.737 5.701 3.391 5.522.199-.02.331-.035.523-.115.833-.326 1.532-1.227 2.189-2.475zm-3.738-9.077c.365 3.14 1.777 6.05 4.843 6.485 1.096-3.239 1.615-7.417 1.255-10.5-.305-2.616-1.263-4.514-3.117-4.314-.132.015-.324.094-.456.108-1.878.556-2.958 4.499-2.525 8.222zm25.011 8.784c1.456-.157 3.413-3.49 5.544-10.492.331-.035 1.9.207 1.942.556l.007.059c-2.139 6.943-3.668 13.94-9.095 14.525-3.11.336-4.504-1.279-4.809-3.897-.441-3.781 2.122-8.237 1.776-11.203-.203-1.745-.955-3.017-1.825-4.161l-1.928 6.451s-1.887-.091-1.94-.556l-.007-.058c.866-2.92 1.387-5.921 1.723-8.783-.811-1.209-1.524-2.721-1.761-4.756-.217-1.86-.025-4.237.682-7.376l5.112.744c.183 3.867-.022 6.715-.728 9.854 2.414 1.742 5.53 3.761 5.917 7.075.434 3.722-2.047 8.877-1.81 10.912.102.871.539 1.177 1.2 1.107zM133.46 22.31c-1.259 9.322-2.39 16.275-1.834 21.043.196 1.686.958 1.898 1.553 1.834 1.72-.185 3.525-3.678 5.657-10.68.331-.036 1.9.207 1.94.556l.007.058c-2.139 6.943-3.668 13.941-9.095 14.526-3.574.386-5.103-2.394-5.571-6.406-.753-6.456 1.082-16.016 1.718-20.324l5.625-.607zm-5.57-5.818c-.243-2.093 1.186-4.78 4.097-5.093 2.184-.236 3.273 1.06 3.463 2.688.244 2.094-1.191 4.721-4.104 5.036-2.117.229-3.272-1.06-3.456-2.631zM154.376.562l5.227-.564c.312 4.971-.681 17.15-2.401 27.11-.532 6.358-.634 10.079-.41 11.999.143 1.221.395 1.665.858 1.615 1.522-.164 3.12-3.694 4.676-8.749.397-.043 1.907.265 1.948.615-2.951 9.74-6.25 14.219-9.293 14.547-2.117.228-3.505-1.329-3.973-5.341l-.074-.64c-1.109 3.712-3.065 7.044-6.837 7.451-3.242.35-4.938-2.705-5.426-6.893-.956-8.199 2.663-20.838 8.95-21.516 2.449-.264 3.987.865 4.756 3.431l2-23.064zM144.16 40.53c.21 1.802.749 2.981 1.675 2.88 3.044-.328 5.711-10.215 5.08-15.622-.251-2.152-1.023-3.599-2.478-3.443-2.845.307-4.887 10.951-4.277 16.185zm23.361 5.546c-3.242.35-4.932-2.647-5.426-6.893-.956-8.199 2.73-20.846 9.016-21.524 2.449-.264 3.987.866 4.756 3.431l.348-3.335 4.697-.507c-1.219 9.082-2.475 16.697-1.744 22.977 1.152 9.887 8.452 13.867 16.789 12.967 10.786-1.164 17.598-10.555 16.364-21.14-1.03-8.84-7.159-13.124-17.86-12.969l-.072-4.644c14.136-.585 21.226 6.777 22.399 16.837 1.227 10.526-5.998 23.259-20.689 24.846-13.367 1.443-20.222-5.059-21.585-16.748l-.088-.756c-1.11 3.712-3.068 7.044-6.905 7.459zm.064-8.075c.21 1.803.749 2.981 1.742 2.875 3.044-.329 5.711-10.215 5.08-15.623-.251-2.152-1.023-3.599-2.478-3.442-2.779.3-4.96 10.899-4.343 16.191z" id="v"/><path d="M33.613 57.92c0 8.316-1.771 14.844-5.311 19.585s-8.637 7.434-15.287 8.079L.124 86.832v-50.37l14.08-1.365c6.122-.592 10.888 1.11 14.296 5.11s5.113 9.903 5.113 17.713zm-10.047 1.249c0-11.254-3.241-16.567-9.724-15.94l-3.925.38v34.073l3.17-.307c3.577-.346 6.218-2.031 7.923-5.057s2.557-7.408 2.557-13.15zm27.512 3.121v19.604l-9.794.949v-50.37l12.82-1.242c5.426-.526 9.428.316 12.009 2.523s3.871 5.839 3.871 10.892c0 6.363-2.245 11.024-6.734 13.985L73.37 79.735l-10.48 1.016-8.318-18.798-3.494.337zm0-8.062l2.521-.244c2.305-.224 3.962-1.009 4.97-2.359s1.513-3.265 1.513-5.746c0-2.572-.534-4.352-1.602-5.339s-2.719-1.372-4.952-1.157l-2.449.238v14.608zm59.453-28.466v32.593c0 5.995-1.417 10.709-4.249 14.141s-6.926 5.41-12.28 5.928c-5.234.507-9.218-.674-11.956-3.545s-4.105-7.371-4.105-13.503V28.921l9.723-.942v33.144c0 6.409 2.221 9.397 6.662 8.967 2.064-.2 3.661-1.17 4.789-2.91s1.692-4.115 1.692-7.124v-33.35l9.724-.942zm37.775 11.844c0 5.353-1.41 9.593-4.232 12.727s-6.895 4.957-12.225 5.474l-2.449.238v18.26l-9.794.949v-50.37l13.36-1.294c10.228-.992 15.342 3.68 15.342 14.016zM129.4 47.914l1.873-.182c2.4-.233 4.189-1.037 5.365-2.415s1.764-3.501 1.764-6.373c0-2.64-.54-4.546-1.621-5.718s-2.749-1.646-5.005-1.426l-2.376.23v15.884zm49.05 21.639l-3.025-12.42-13.72 1.329-3.025 13.006-9.794.949 13.036-51.839 13.288-1.287L188.28 68.6l-9.83.952zm-4.862-20.545l-2.809-11.441c-.168-.696-.546-2.446-1.135-5.247s-.942-4.681-1.063-5.633c-.311 2.005-.708 4.219-1.188 6.643s-1.729 7.971-3.745 16.641l9.94-.963zm19.339 19.142v-50.37l9.795-.949v42.171l13.575-1.316v8.201l-23.371 2.264zm47.101-47.458c-2.809.272-5.023 2.06-6.644 5.364s-2.431 7.759-2.431 13.362c0 11.669 3.181 17.195 9.542 16.578 2.784-.27 5.703-1.403 8.751-3.398v8.337c-2.57 1.88-5.858 3.014-9.867 3.402-5.931.575-10.486-1.241-13.665-5.446s-4.771-10.395-4.771-18.572 1.637-14.71 4.915-19.598 7.832-7.615 13.665-8.181c1.92-.185 3.763-.11 5.527.223s3.656 1.036 5.671 2.104l-3.24 7.928a25.83 25.83 0 0 0-3.458-1.611c-1.224-.466-2.554-.631-3.995-.491zm41.592 38.864l-3.025-12.419-13.72 1.329-3.024 13.006-9.795.95 13.037-51.84 13.287-1.287 13.072 49.31-9.831.951zM276.76 39.01l-2.809-11.442c-.168-.696-.546-2.446-1.135-5.247s-.942-4.68-1.063-5.633a164.75 164.75 0 0 1-1.188 6.644c-.481 2.423-1.729 7.97-3.746 16.641l9.941-.963zm38.134 17.321l-10.011-41.924-.396.038c.455 3.264.684 6.274.684 9.029v33.798l-9.075.879V7.781l15.053-1.458 9.002 38.714.289-.027 8.931-40.452 15.269-1.48v50.37l-9.291.9V20.205a78.25 78.25 0 0 1 .503-8.731l-.289.027-9.975 43.791-10.694 1.039zm67.735-41.431c0 5.353-1.41 9.594-4.232 12.728s-6.894 4.957-12.225 5.474l-2.448.237V51.6l-9.794.95V2.18L367.29.886c10.226-.994 15.339 3.679 15.339 14.015zm-18.906 10.307l1.872-.182c2.4-.232 4.189-1.037 5.367-2.414s1.765-3.501 1.765-6.373c0-2.64-.541-4.547-1.621-5.718s-2.749-1.646-5.006-1.427l-2.376.23v15.884z" id="w"/></defs><g fill="none" fill-rule="evenodd"><g transform="translate(25 41)"><mask id="x" class="B"><use xlink:href="#A"/></mask><path mask="url(#x)" d="M-4.617-4.263h525.402v553.02H-4.617z" class="C"/></g><mask id="y" class="B"><use xlink:href="#B"/></mask><path d="M416.308 160.42l-7.596 7.595c-9.155 9.155-23.767 9.388-32.636.519s-8.636-23.48.52-32.635l79.831-79.832c11.432-11.431 11.722-29.675.648-40.749s-29.317-10.783-40.749.649l-76.934 76.932c-10.756 10.757-27.922 11.03-38.341.611s-10.146-27.585.609-38.341l5.806-5.805c11.224-11.223 12.329-29.237 1.861-40.501-10.987-11.825-29.784-11.778-41.465-.096L76.725 199.904c-14.317 14.317-14.681 37.166-.813 51.035h.001c13.869 13.869 13.505 36.717-.812 51.035l-53.033 53.033c-28.458 28.458-29.181 73.874-1.615 101.44h.001c27.565 27.566 72.982 26.844 101.44-1.614l6.119-6.119c9.155-9.155 23.767-9.388 32.636-.519s8.637 23.479-.52 32.636l-79.831 79.831c-11.431 11.432-11.721 29.676-.648 40.749s29.318 10.783 40.75-.648l76.932-76.933c10.756-10.757 27.922-11.029 38.341-.61s10.146 27.585-.61 38.341l-5.805 5.805c-11.223 11.224-12.328 29.236-1.862 40.501 10.988 11.824 29.785 11.778 41.468.096L460 416.825c14.317-14.317 14.681-37.166.812-51.035s-13.505-36.718.812-51.035l54.509-54.509c28.458-28.458 29.181-73.874 1.614-101.441s-72.981-26.843-101.439 1.615" fill="url(#C)" mask="url(#y)"/><mask id="z" class="B"><use xlink:href="#AL" href="#B"/></mask><path d="M416.308 160.42l-7.596 7.595c-9.155 9.155-23.767 9.388-32.636.519s-8.636-23.48.52-32.635l79.831-79.832c11.432-11.431 11.722-29.675.648-40.749s-29.317-10.783-40.749.649l-76.934 76.932c-10.756 10.757-27.922 11.03-38.341.611s-10.146-27.585.609-38.341l5.806-5.805c11.224-11.223 12.329-29.237 1.861-40.501-10.987-11.825-29.784-11.778-41.465-.096L76.725 199.904c-14.317 14.317-14.681 37.166-.813 51.035h.001c13.869 13.869 13.505 36.717-.812 51.035l-53.033 53.033c-28.458 28.458-29.181 73.874-1.615 101.44h.001c27.565 27.566 72.982 26.844 101.44-1.614l6.119-6.119c9.155-9.155 23.767-9.388 32.636-.519s8.637 23.479-.52 32.636l-79.831 79.831c-11.431 11.432-11.721 29.676-.648 40.749s29.318 10.783 40.75-.648l76.932-76.933c10.756-10.757 27.922-11.029 38.341-.61s10.146 27.585-.61 38.341l-5.805 5.805c-11.223 11.224-12.328 29.236-1.862 40.501 10.988 11.824 29.785 11.778 41.468.096L460 416.825c14.317-14.317 14.681-37.166.812-51.035s-13.505-36.718.812-51.035l54.509-54.509c28.458-28.458 29.181-73.874 1.614-101.441s-72.981-26.843-101.439 1.615" fill="url(#D)" mask="url(#z)"/><g transform="translate(53 399)" class="B"><mask id="AA"><use xlink:href="#E"/></mask><path mask="url(#AA)" d="M-4.108-4.273h55.802v55.801H-4.108z"/></g><g transform="translate(39 376)"><mask id="AB" class="B"><use xlink:href="#F"/></mask><path mask="url(#AB)" d="M-4.841-4.045h36.153v36.153H-4.841z" class="C"/></g><g transform="translate(84 355)"><mask id="AC" class="B"><use xlink:href="#G"/></mask><path mask="url(#AC)" d="M-4.432-4.167h46.247V42.08H-4.432z" class="C"/></g><g transform="translate(69 359)"><mask id="AD" class="B"><use xlink:href="#H"/></mask><path mask="url(#AD)" d="M-4.797-4.779H13.24v18.038H-4.797z" class="C"/></g><g transform="translate(49 436)"><mask id="AE" class="B"><use xlink:href="#I"/></mask><path mask="url(#AE)" d="M-4.444-4.531h18.037v18.038H-4.444z" class="C"/></g><g transform="translate(100 403)"><mask id="AF" class="B"><use xlink:href="#J"/></mask><path mask="url(#AF)" d="M-4.987-4.574H13.05v18.039H-4.987z" class="C"/></g><g transform="translate(438 215)"><mask id="AG" class="B"><use xlink:href="#K"/></mask><path mask="url(#AG)" d="M-4.107-4.273h55.801v55.801H-4.107z" class="C"/></g><g transform="translate(424 192)"><mask id="AH" class="B"><use xlink:href="#L"/></mask><path mask="url(#AH)" d="M-4.841-4.045h36.153v36.154H-4.841z" class="D"/></g><g transform="translate(469 171)"><mask id="AI" class="B"><use xlink:href="#M"/></mask><path mask="url(#AI)" d="M-4.432-4.167h46.247V42.08H-4.432z" class="C"/></g><g transform="translate(454 175)" class="B"><mask id="AJ"><use xlink:href="#N"/></mask><path mask="url(#AJ)" d="M-4.798-4.779H13.24v18.038H-4.798z"/></g><g transform="translate(434 252)" class="B"><mask id="AK"><use xlink:href="#O"/></mask><path mask="url(#AK)" d="M-4.445-4.531h18.038v18.038H-4.445z"/></g><g transform="translate(485 219)"><mask id="AL" class="B"><use xlink:href="#P"/></mask><path mask="url(#AL)" d="M-4.988-4.574H13.05v18.039H-4.988z" class="D"/></g><g transform="translate(208 89)"><mask id="AM" class="B"><use xlink:href="#Q"/></mask><path mask="url(#AM)" d="M-4.7-4.946h31.084v31.084H-4.7z" class="C"/></g><g transform="translate(244 72)"><mask id="AN" class="B"><use xlink:href="#R"/></mask><path mask="url(#AN)" d="M-4.092-4.974h39.221v39.221H-4.092z" class="C"/></g><g transform="translate(232 74)"><mask id="AO" class="B"><use xlink:href="#S"/></mask><path mask="url(#AO)" d="M-4.479-4.243H12v16.48H-4.479z" class="D"/></g><g transform="translate(257 110)" class="B"><mask id="AP"><use xlink:href="#T"/></mask><path mask="url(#AP)" d="M-4.641-4.605h16.48v16.48h-16.48z"/></g><g transform="translate(395 402)"><mask id="AQ" class="B"><use xlink:href="#U"/></mask><path mask="url(#AQ)" d="M-4.233-4.596h46.924v46.925H-4.233z" class="C"/></g><g transform="translate(383 384)"><mask id="AR" class="B"><use xlink:href="#V"/></mask><path mask="url(#AR)" d="M-4.111-4.953h31.084v31.084H-4.111z" class="C"/></g><g transform="translate(420 367)"><mask id="AS" class="B"><use xlink:href="#W"/></mask><path mask="url(#AS)" d="M-4.502-4.981h39.221V34.24H-4.502z" class="C"/></g><g transform="translate(408 369)"><mask id="AT" class="B"><use xlink:href="#X"/></mask><path mask="url(#AT)" d="M-4.889-4.25h16.478v16.479H-4.889z" class="C"/></g><g transform="translate(392 432)" class="B"><mask id="AU"><use xlink:href="#Y"/></mask><path mask="url(#AU)" d="M-4.728-4.975H11.75v16.48H-4.728z"/></g><g transform="translate(432 405)"><mask id="AV" class="B"><use xlink:href="#Z"/></mask><path mask="url(#AV)" d="M-4.051-4.612h16.479v16.479H-4.051z" class="C"/></g><g transform="translate(95 223)"><mask id="AW" class="B"><use xlink:href="#a"/></mask><path mask="url(#AW)" d="M-4.233-4.929h46.924v46.924H-4.233z" class="C"/></g><g transform="translate(83 204)"><mask id="AX" class="B"><use xlink:href="#b"/></mask><path mask="url(#AX)" d="M-4.111-4.287h31.084v31.084H-4.111z" class="C"/></g><g transform="translate(108 190)" class="B"><mask id="AY"><use xlink:href="#c"/></mask><path mask="url(#AY)" d="M-4.89-4.583h16.479v16.48H-4.89z"/></g><g transform="translate(92 252)"><mask id="AZ" class="B"><use xlink:href="#d"/></mask><path fill="#d5eff6" mask="url(#AZ)" d="M-4.729-4.308H11.75v16.479H-4.729z"/></g><g transform="translate(384 52)" class="B"><mask id="Aa"><use xlink:href="#e"/></mask><path mask="url(#Aa)" d="M-4.698-4.622h31.084v31.084H-4.698z"/></g><g transform="translate(420 25)"><mask id="Ab" class="B"><use xlink:href="#f"/></mask><path mask="url(#Ab)" d="M-4.089-4.65h39.221v39.221H-4.089z" class="D"/></g><g transform="translate(405 37)" class="B"><mask id="Ac"><use xlink:href="#g"/></mask><path mask="url(#Ac)" d="M-4.076-4.07h16.479v16.48H-4.076z"/></g><g transform="translate(413 45)"><mask id="Ad" class="B"><use xlink:href="#h"/></mask><path mask="url(#Ad)" d="M-4.648-4.952H31.38v32.789H-4.648z" class="D"/></g><g transform="translate(220 107)" class="B"><mask id="Ae"><use xlink:href="#i"/></mask><path mask="url(#Ae)" d="M-4.822-4.589h46.925v46.924H-4.822z"/></g><g transform="translate(136 118)"><mask id="Af" class="B"><use xlink:href="#j"/></mask><path fill="#2d7593" mask="url(#Af)" d="M-4.382-4.261h293.43v343.285H-4.382z"/></g><g transform="translate(159 182)"><mask id="Ag" class="B"><use xlink:href="#k"/></mask><path fill="#18526a" mask="url(#Ag)" d="M-4.329-4.668h245.996V268H-4.329z"/></g><g transform="translate(153 197)"><mask id="Ah" class="B"><use xlink:href="#l"/></mask><path fill="#18526a" mask="url(#Ah)" d="M-4.104-4.795h258.87v210.58H-4.104z"/></g><g transform="translate(158 267)"><mask id="Ai" class="B"><use xlink:href="#m"/></mask><path fill="#115c7c" mask="url(#Ai)" d="M-4.769-4.175h252.205v59.67H-4.769z"/></g><g transform="translate(179 207)"><mask id="Aj" class="B"><use xlink:href="#n"/></mask><path fill="#28a9e0" mask="url(#Aj)" d="M-4.953-4.885h210.58v190.76H-4.953z"/></g><g transform="translate(270 215)"><mask id="Ak" class="B"><use xlink:href="#o"/></mask><path fill="#156f96" mask="url(#Ak)" d="M-4.833-4.474h110.516v75.631H-4.833z"/></g><g transform="translate(185 272)"><mask id="Al" class="B"><use xlink:href="#p"/></mask><path fill="#156f96" mask="url(#Al)" d="M-4.508-4.117h152.492v117.241H-4.508z"/></g><g transform="translate(199 226)" class="B"><mask id="Am"><use xlink:href="#q"/></mask><path fill-opacity=".5" mask="url(#Am)" d="M-4.145-4.072h176.556v139H-4.145z"/></g><g transform="translate(205 270)" class="B"><mask id="An"><use xlink:href="#r"/></mask><path fill-opacity=".5" mask="url(#An)" d="M-5-5h158.668v71.217H-5z"/><mask id="Ao"><use xlink:href="#s"/></mask><path mask="url(#Ao)" d="M-5-5h158.667v71.219H-5z"/></g><g transform="translate(333 433)"><mask id="Ap" class="B"><use xlink:href="#t"/></mask><path fill="#ffda69" mask="url(#Ap)" d="M-4.56-4.25h172.676v172.678H-4.56z"/></g><g transform="translate(315 414)"><mask id="Aq" class="B"><use xlink:href="#u"/></mask><path mask="url(#Aq)" d="M-4.402-4.019h223.587v226.43H-4.402z" class="D"/></g><g transform="translate(34 451)"><mask id="Ar" class="B"><use xlink:href="#v"/></mask><path fill="#214a5a" mask="url(#Ar)" d="M-5.711-4.86h228.342V78.21H-5.711z"/><g transform="translate(68 26)"><mask id="As" class="B"><use xlink:href="#w"/></mask><path fill="#214a5a" mask="url(#As)" d="M-5.559-4.133h393.871V91.72H-5.559z"/></g></g></g></svg>