<svg xmlns="http://www.w3.org/2000/svg" viewBox="0 0 600.98 441.42" xmlns:v="https://vecta.io/nano"><style><![CDATA[.N{fill:#231f20}.O{fill:none}.P{stroke-miterlimit:10}.Q{stroke:#231f20}.R{stroke:#000}.S{stroke-linecap:round}.T{stroke-linejoin:round}]]></style><ellipse cx="299.22" cy="233.39" rx="194" ry="269.5" transform="matrix(.135197 -.990819 .990819 .135197 27.51 498.31)" fill="#dde3e9"/><path d="M44.1 52.77l2.45 4.96 5.47.79-3.96 3.86.93 5.45-4.89-2.57-4.89 2.57.94-5.45-3.96-3.86 5.47-.79 2.44-4.96zm15.66-13.76l1.54 3.12 3.45.5-2.5 2.43.59 3.43-3.08-1.62-3.08 1.62.59-3.43-2.5-2.43 3.45-.5 1.54-3.12z" class="O P Q"/><g class="N"><circle cx="64.1" cy="64.15" r="1.25"/><circle cx="40.1" cy="33.15" r="1.25"/><circle cx="71.1" cy="30.15" r="1.25"/></g><g fill="#d4a181"><ellipse cx="432.76" cy="233.28" rx="55.97" ry="60.52"/><path d="M404.78 293.47h55.97v24.49h-55.97z"/></g><path d="M348,354.21a22.47,22.47,0,0,1-1.29,11.1h2.89l-1.07-7.63c-.23-1.59-2.47-1.25-2.9,0a197.41,197.41,0,0,0-10.08,50q-.51,7.35-.46,14.71a1.5,1.5,0,0,0,3,0,194.16,194.16,0,0,1,6.26-50.09q1.83-7,4.18-13.85h-2.9l1.08,7.63c.23,1.62,2.43,1.2,2.89,0a25.3,25.3,0,0,0,1.29-12.7c-.28-1.9-3.17-1.09-2.89.8Z" class="N"/><path d="M501.31 374.42l44-11v76l-150 2 106-67z" fill="#f3f3f3"/><path d="M547.47 394.1l2.45 4.96 5.46.79-3.95 3.86.93 5.45-4.89-2.58-4.89 2.58.93-5.45-3.95-3.86 5.46-.79 2.45-4.96zm15.66-10.77l1.54 3.13 3.45.5-2.5 2.43.59 3.43-3.08-1.62-3.09 1.62.59-3.43-2.49-2.43 3.45-.5 1.54-3.13z" class="O P Q"/><g class="N"><circle cx="567.47" cy="405.48" r="1.25"/><circle cx="545.47" cy="381.48" r="1.25"/><circle cx="572.47" cy="373.48" r="1.25"/><path d="M345,366.29a15.54,15.54,0,0,1-1.95,4.55l2.79.76a13.59,13.59,0,0,1,1.16-4.67,46.63,46.63,0,0,1,2.55-4.72A1.5,1.5,0,0,0,347,360.7c-2,3.36-4,6.89-4.12,10.9a1.51,1.51,0,0,0,2.8.75,18.7,18.7,0,0,0,2.25-5.26,1.5,1.5,0,0,0-2.89-.8Z"/></g><path d="M554.1 100.78l2.45 4.95 5.46.8-3.95 3.85.93 5.45-4.89-2.57-4.89 2.57.93-5.45-3.95-3.85 5.47-.8 2.44-4.95zM575.76 93l1.54 3.13 3.45.5-2.5 2.43.59 3.43-3.08-1.62-3.08 1.62.58-3.43-2.49-2.43 3.45-.5 1.54-3.13zm3.71 36.17l1.54 3.13 3.45.5-2.5 2.43.59 3.43-3.08-1.62-3.09 1.62.59-3.43-2.49-2.43 3.45-.5 1.54-3.13z" class="O P Q"/><g class="N"><circle cx="573.6" cy="117.15" r="1.25"/><circle cx="557.6" cy="83.15" r="1.25"/><circle cx="584.6" cy="74.15" r="1.25"/></g><g opacity=".5" fill="#4389c8"><path d="M151.64 48.1c-2.2-1-2.15-2.1-1.25-3-.54-1.2-.45-3.16-.57-4.1a97 97 0 0 1-.79-11.8c0-7.79 0-15.88 2.15-23.41a1.94 1.94 0 0 1-1.38-1.74c0-3.94 12-3.85 18.13-3.75h2.92c4.36-.12 8.72-.13 13.08-.11.95 0 2-.06 3.12-.12a24.54 24.54 0 0 1 6.52.18c5.59 1.3 5.23 10.87 5.35 15.5a243 243 0 0 1-.59 25.32c-.23 2.86-2.31 6.49-4.69 2.54-1.32-2.2-.73-7.33-.73-9.76 0-8.64 1.34-17.53.05-26.12-.43-2.82-.33-3-3.2-2.95l-6.82.22-13.89.33c-1.75.06-8.07 1.17-13 1.16v.12c.07 3.33-1.56 7.37-1.78 10.88-.54 8.42.1 17-.69 25.43 0 .25 0 .52-.05.8a3.34 3.34 0 0 1 .43-.05c3.67-.23 7.39-.14 11.07-.22 2.34-.06 4.71 0 7.1 0a133.44 133.44 0 0 0 15.74-.6c1.52-.2 2.05 1.76 1.37 2.77s-3.22 1.08-4.35 1.25a99.58 99.58 0 0 1-10.05.81l-10.57.37c-2 .06-5.76.65-8.84.65a9.84 9.84 0 0 1-3.79-.6zm67.88-1.01a1.47 1.47 0 0 1 .32-.92 6.22 6.22 0 0 1-1.42-2.51c-1.19-3.85-1.3-8-1.39-12-.19-8.52-.1-17-.15-25.58-.77-1-.31-2.22.65-3 2.61-2.26 10.11-1.7 13.47-1.87 4.71-.21 9.47-.31 14.24-.33 5 0 10.1.06 15.14.22 1.87 0 14.88.38 9.06 3.54a6.29 6.29 0 0 1-1.11.45 19.15 19.15 0 0 1 .23 3.63L268 22.33q-.33 7.61-.61 15.2c-.09 2.68.83 8.91-1.3 10.84-1.43 1.3-2.4 1.05-3.06.16-3.64 1.06-10.71.87-15.19.67l-3.72-.14c-2 0-8.71.68-14.62.68-5.31 0-9.97-.55-9.98-2.65zm3.21-29c0 8.62.3 17.2.5 25.77v.79c4.12-.88 10.77-.72 15.09-.55l3.76.13c4.23 0 8.46 0 12.68.21h2.07a40.06 40.06 0 0 1 5 .1c0-.23 0-.44-.05-.62-.23-4.56 0-9.17.17-13.73l.55-13.79c.09-2.36-.51-7.3.14-10.7-3.07 0-6.29-.43-8.37-.43h-14.58a140.9 140.9 0 0 0-15.78.86 8.5 8.5 0 0 0-1 .2c.78 3.3-.18 8.67-.18 11.72z"/><path d="M171 47.83c-3.13 1.83-1.44 9.14-.36 11.67 1.78 4.15 5.4 7.41 9.3 9.56 7.88 4.36 19.24 3.2 25.2 10.77.07.07 2.13 2.11 2.59-.53.39-2.17-3.46-5.48-4.95-6.56-4.24-3.09-9.67-4.09-14.57-5.63C183 65.46 177.24 62.42 175 57c-.77-1.91.7-12-4-9.2m71.5 3.55c-2.87.79-1 4.73-1 6.71a11.62 11.62 0 0 1-2.31 7c-3.85 5-11.39 5.74-17 7.16-4.11 1-13.92 3.27-14.31 8.82-.43 6.2 8.24-1.34 9-1.65 8.1-3 18.59-3.55 24.84-10.09a16 16 0 0 0 4.35-10c.14-2.09.16-8.93-3.52-7.92M206.88 126h0a26.45 26.45 0 0 1-8.27-1.41 26.93 26.93 0 0 1-7.59-4 20.91 20.91 0 0 1-5.56-6.21 16.43 16.43 0 0 1-2.18-8.09 16.6 16.6 0 0 1 1.83-7.76A20.48 20.48 0 0 1 190 92.5a35.33 35.33 0 0 1 14.16-7.19 19.71 19.71 0 0 1 5.07-.66 19.05 19.05 0 0 1 12.93 5.09 21 21 0 0 1 1.75 28.67 21 21 0 0 1-7 5.36 22.94 22.94 0 0 1-9 2.24l-1.03-.01zm-16.36-26.9c-2.43 4.2-2.57 8.4-.39 12.18a17.28 17.28 0 0 0 7.39 6.57 23.36 23.36 0 0 0 10.25 2.45 16.7 16.7 0 0 0 7.07-1.44 14 14 0 0 0 7.1-7.38 16.55 16.55 0 0 0 .9-9.88 14 14 0 0 0-4.2-7.54 12.83 12.83 0 0 0-8.72-3.23 3 3 0 0 1 .68 2.07 1.5 1.5 0 0 1-.75 1 1.85 1.85 0 0 1-.86.27c-.72 0-1.19-.66-1.64-1.3a3 3 0 0 0-1.35-1.31 1.88 1.88 0 0 0-.53-.07c-1.35 0-3.17 1.13-4.46 2.08a17.52 17.52 0 0 0-2 2c-1.85 2.07-4.38 4.89-6.42 4.89a2.37 2.37 0 0 1-2.07-1.36zm8.48 3.39c0 2.63 4.15 2.63 4.15 0s-4.15-2.72-4.15 0"/><path d="M206.32 102c0 3.23 5.09 3.23 5.09 0s-5.09-3.32-5.09 0m-5.24 7.51c-4.16 2.45 7.75 7.32 8.22 2.34.2-2.15-1.87-1.57-3.26-1.73s-3.7-1.35-5-.61m-1.76 17.38c.18 6.26.1 12.52 1.28 18.69.23 1.17.38 5.42 1.31 6.29 2.28 2.15 2.31-2 2.41-3.53.31-5.64-.28-11.45-.41-17.1 0-1.21.29-3.73-.28-4.91-.91-1.86-4.4-2.42-4.31.56m-4.46-5.07c-9.13 10.25-21.71 9.5-34.38 10.39-6.69.47-13.46 1.45-18.85 5.78a22.91 22.91 0 0 0-6.11 7.41c-.64 1.26-3.65 8.51.87 6.79 1.6-.61 3.18-5.41 4.22-6.83a20.16 20.16 0 0 1 7.54-6.38c5.84-2.8 12.82-2.75 19.16-3.1 6.63-.37 13.75-.71 19.84-3.6a30 30 0 0 0 7.86-5.22c.82-.78 2.59-2.1 2.72-3.29.15-1.37-1.16-3.86-2.86-2m-46.11 31.51L123 154.46c-1.76.11-7.61-.25-6.12 3.35 1.2 2.88 8.34 1 10.7.84 8.93-.53 17.89-.72 26.8-1.52 2-.18 11.05-.11 7.32-3.66-1.79-1.68-10.53-.27-13-.19m-37.26 4.14c-2.71 3.55-1.47 12.18-1.26 16.45s-.61 11.7 4.8 12.34c-1.72-.22 1.3.1 1.79.14 1.1.05 2.2.07 3.3.09l7.61-.06 17.25-.6c2.41-.14 15.5 0 16-2.53.66-3.2-11.88-1.39-14.13-1.29-5.47.25-10.95.3-16.42.38h-8.14c-1.12 0-5.56.43-6.24-.31s-.13-6.49-.14-7.38l.07-8.76c.07-2 1.13-5.7.26-7.54a3 3 0 0 0-4-1.49 2.83 2.83 0 0 0-.81.55"/><path d="M155.61 157.58c.16 6.5.21 13.13 1.74 19.48.51 2.12 1.23 6.48 3.35 7.57s4.16-.49 4.3-2.7c.19-2.77-1.3-6.42-1.61-9.27-.35-3.32-.56-6.65-.68-10-.09-2.51.67-6.28-1.73-7.9a3.45 3.45 0 0 0-5.37 2.82m17.08-1.58c-2.67 2.66-1.48 11.07-1.15 14.49.25 2.5 3 14.8 7.09 8.39 1.81-2.84-.49-10.35-.48-13.66 0-2.11.76-4.77.4-6.8-.48-2.67-3.45-4.84-5.86-2.42"/><path d="M178.59 183.92c-2-.08-4.22-.75-3.7-3.4.45-2.34 2.81-2.36 4.74-2.56a165.75 165.75 0 0 1 17.41-.77l36.68-.09a2.6 2.6 0 0 1 1.36.53c-.63-.78-.33-1.93-.45-3l-1.1-9c-.45-2.42-.8-6.53-3-8.05-1.91-1.3-5.63-1.25-8.57-1.2h-2.24a202 202 0 0 0-23.59 1.08c-3.57.32-7.18.57-10.71 1.21-2 .35-7.73 3.24-9.3 1.46-3.78-4.27 12.83-6 15.08-6.26 8-.82 16-1.44 24.1-1.52 5.44 0 14.75-.51 18.75 4 2.4 2.68 3.24 7.1 4.18 10.44.72 2.57 2.68 7.2 1.29 9.86-.63 1.2-1.64 2.22-3.18 1.8a3 3 0 0 1-.85-.38 2.23 2.23 0 0 1 .46 2.43c-.92 2.13-4.29 1.67-6.12 1.82-6.12.51-12.27.85-18.41.9h-8.77c-2.92 0-6-.05-9 0-4.49 0-9.16.88-13.65.88zm102.03-35.21h0c-1.48 0-3-2.52-4-4.18l-.86-1.33a14 14 0 0 0-6.84-5c-5.21-1.78-11-2.45-16.53-3.1l-5.73-.72-3-.4c-5-.63-10.73-1.35-15-3.78-1.88-1.06-7.82-6.51-7.85-10.14a2.62 2.62 0 0 1 1.42-2.41 2.88 2.88 0 0 1 1.48-.47c1.43 0 2.23 1.57 2.94 3 .22.44.44.85.66 1.2a11.7 11.7 0 0 0 7.2 5.2 108.85 108.85 0 0 0 13.95 2.75l3.66.57 3 .46c5.51.83 11.2 1.69 16.19 3.89a29.51 29.51 0 0 1 6.22 5.14c1.72 1.77 4.63 5.09 4.75 7.39a1.84 1.84 0 0 1-1 1.84 1.34 1.34 0 0 1-.66.09zM252.12 183c-2.09-.2-4.34-.94-3.82-3.57-1.45-2.79-2.12-8.16-2.25-9.21a97.41 97.41 0 0 1-.53-13.66 3 3 0 0 1 4.8-2.31c2.5-1 6.73-1.2 9-1.44 3.74-.37 7.5-.51 11.25-.74 8.74-.52 17.48-1.46 26.24-1.66 2.62 0 6.13-.29 8.23 1.65 2.38 2.2 2.85 7.67 3.57 10.61a72 72 0 0 1 2 9.74 17.9 17.9 0 0 1 .19 3.27 2.06 2.06 0 0 1 1.64 2.37c-.2 2.14-3.18 2.43-4.92 2.77-5.78 1.13-12 .87-17.83 1-9.5.26-19.52 1.51-29.23 1.51-2.79.02-5.59-.08-8.34-.33zm1.22-6.1h.79q9.25-.15 18.5-.53l18.87-.58c2.19 0 4.41 0 6.64.11 2.85.09 5.71.18 8.54.07-1.08-2.84-.91-7.3-1.5-10.23s-.79-6.38-2-9.11c-1.32-3.08-2.46-2.37-5.9-2.14s-7.06.58-10.59.87l-23.28 1.58c-4 .28-7.87 1.43-11.81 1.88-.06 1.41-.26 2.82-.24 3.85.07 3 .37 6 .63 9 .11 1.23.61 3.34.69 5.19z"/></g><g opacity=".5" fill="#4389c8"><path d="M322.37,7.13c-1.58,1.57-1,7.16-1,9.22-.05,3.22.15,6.4.42,9.61.18,2.14,1.2,22.62,4,21,1.59-.88.59-6.81.59-8.68,0-4.16-.18-8.32-.46-12.47a111.08,111.08,0,0,1-.27-11.54c0-.94.92-11.41-3.3-7.18"/><path d="M390.87 4.61c-13.52.11-27 .77-40.54 1.18l-19.48.81c-2.21.12-7-.59-8.8.59-4.09 2.62 2.51 3.23 4.27 3.17l80.21-2.31 39.37.26c5 0 10.57-2.19 11.84 3.65 1.43 6.59-.21 13.93-.66 20.55a115.55 115.55 0 0 0 0 13.16c.12 2.83-.2 6 .3 8.8s2.4 4.27 4.16 1.28c1.06-1.79.53-6.21.6-8.28.1-2.8 0-5.59 0-8.38 0-6.82 1-13.61.83-20.42-.08-4.4-.31-12.36-5.86-13.42-6.1-1.16-13.6 0-19.85-.07l-46.41-.57"/><path d="M353.63 47.25q-7.63 0-15.29.11c-4.37.08-11.24-.84-15.3.73-2.79 1.07-3.53 4.17 0 5 3.84.9 9.63-.57 13.65-.64 20.17-.36 40.53-.82 60.66.46 18.87 1.19 38.1 2.35 57 1.09 1.59-.11 9.7-.43 6-3.47-2.16-1.77-10.91-.61-13.72-.69l-29.69-.74c-9.89-.37-19.48-1.47-29.24-1.74-11.35-.32-22.72-.11-34.07-.11m-4.17-5.86h0c-6.91 0-14.44-3.31-15.72-10.72a7.28 7.28 0 0 1 0-1.32 6.07 6.07 0 0 0-.08-1.41 2.88 2.88 0 0 0-.44-.83 2.15 2.15 0 0 1-.48-1.05c0-2 1.15-3.12 2.5-4.39a19.42 19.42 0 0 0 1.5-1.51c2.7-3.12 4.4-4.65 8-6.05a9.43 9.43 0 0 1 3.44-.62 17.05 17.05 0 0 1 10 3.89c3.15 2.45 5.32 5.53 6 8.45a12.06 12.06 0 0 1-1.74 9.17 13.76 13.76 0 0 1-8.67 6 19.47 19.47 0 0 1-4.31.39zm-10.79-15.94h0a7.86 7.86 0 0 0 .76 7.52c2 2.85 5.95 4.7 10.13 4.7a11.82 11.82 0 0 0 6.74-2 7.54 7.54 0 0 0 3-3.94 7.75 7.75 0 0 0 0-4.55 13.11 13.11 0 0 0-4.1-6.09 11.32 11.32 0 0 0-6.68-2.85 1.72 1.72 0 0 1-.95.47.89.89 0 0 1-.39-.12h0a.81.81 0 0 0-.72-.08 11.82 11.82 0 0 0-3.4 2l-.25.19-.28.21a19.51 19.51 0 0 0-2.93 2.51l-.24.51c-.25.56-.67 1.48-.7 1.49h0z"/><path d="M341.35 26.61c0 3.21 5.09 3.21 5.09 0s-5.09-3.32-5.09 0m6.37-.61c0 2.57 4 2.57 4 0s-4-2.63-4 0"/><path d="M349 31.23c-1.3.5-2.94-.53-4 .14-1.88 1.2 0 2.3 1 2.78 4.54 2.18 5.35-3.83 3-2.92m24.46-.84a2.35 2.35 0 0 1-.6-.08c-1.08-.3-1.56-.9-1.44-1.79.2-1.49 2-3.38 3.68-4.66 2.08-1.61 4.23-2.62 5.6-2.62h.34a9.48 9.48 0 0 1 3.7 1.71 9 9 0 0 0 3.84 1.74 5.07 5.07 0 0 0 .68 0 11.54 11.54 0 0 0 5.37-1.87 16.17 16.17 0 0 1 3.91-1.69 9.79 9.79 0 0 1 1.95-.22c2.51 0 4.66 1.09 6.75 2.13h0c2.06 1 4.2 2.11 6.6 2.11a8.58 8.58 0 0 0 3-.55 11.36 11.36 0 0 0 1.11-.47h0l1.2-.59a11.86 11.86 0 0 1 4.43-1.56h.38c2.13 0 4 1.18 5.73 2.32l2.14 1.28A4.45 4.45 0 0 0 433 26c.84.2 1.64.4 1.75 1.4a1.32 1.32 0 0 1-.24 1.07 1.45 1.45 0 0 1-1.14.36 8.24 8.24 0 0 1-1-.07h-.38a8.77 8.77 0 0 1-3.9-1.76 8.67 8.67 0 0 0-3.76-1.72 3 3 0 0 0-.42 0 12.85 12.85 0 0 0-5 1.67 16.59 16.59 0 0 1-3.8 1.49 10.1 10.1 0 0 1-1.82.17 13.53 13.53 0 0 1-6.32-1.86l-.66-.34c-2-1.07-3.64-1.9-5.59-1.9a8.07 8.07 0 0 0-3.13.67l-2.52 1.16c-2.06 1-4 1.94-6.33 1.94a9.15 9.15 0 0 1-1.48-.13 11.17 11.17 0 0 1-3.08-1.31 9.13 9.13 0 0 0-3.73-1.39h-.27c-1.18.06-2.18 1.25-3.18 2.39s-2.18 2.55-3.54 2.55zm31.09 37.18c-13.89.13-27.82.34-41.67 1.45-3.29.26-36.81 3.43-36.75 3.66.12.42 4.43 1.06 4.4 1.16-.29-.72-.95-1-2-.89 31.8 0 63.49-2.85 95.33-2.34l24 .33c2 .06 6.94 1.49 8.51.59 4.11-2.36-3.36-2.64-4.6-2.74-15.67-1.25-31.55-1.37-47.26-1.22M322 74.32c-2.07 2.08-.16 9.57-.08 12.39.12 4.07 0 8.16.38 12.22a81.8 81.8 0 0 0 2.27 14.07c.67 2.47 3 6.41 3.95 1.91.66-3.22-.35-7.48-.7-10.76a124.77 124.77 0 0 1-.6-13.11c0-3.84-.09-7.69-.4-11.52-.17-2-1.17-8.83-4.81-5.21"/><path d="M374.25 112.46c-9.85.17-19.73.4-29.57 1-4 .25-8.06.63-12.08 1-.82.09-9.9.46-5.84 3.8 1.83 1.51 9.36-.58 11.85-.8 4.18-.37 8.36-.6 12.55-.78 9.72-.41 19.47-.78 29.2-.61 17.76.31 35.42.45 53.19 0 2.52 0 22.3.47 23-2.15.54-2.12-6.54-1.15-7.83-1.11-4.73.14-9.46.11-14.2.08l-60.25-.56"/><path d="M453.17 70.81c.32 8.77 1.81 17.54 2.29 26.34l.67 12.07c.07 1.3-.46 4.43 1.08 5.17 2.1 1 2.39-1 2.78-2.43 1.14-4 .37-9.27.27-13.42s-.11-8-.4-12-1.13-8.1-1.51-12.18c-.16-1.73.4-4.59-1.43-5.66a2.51 2.51 0 0 0-3.42.94 2.54 2.54 0 0 0-.33 1.2m-101.36 36.88h-.16c-2.63 0-7.66-.37-11.8-2.42a11.84 11.84 0 0 1-4.45-3.58 9.68 9.68 0 0 1-1.82-5.72 18.6 18.6 0 0 1 4.22-11.3 17.24 17.24 0 0 1 4.64-4.08 12.41 12.41 0 0 1 5.7-1.77h.7a16 16 0 0 1 5.68 1.1 20.41 20.41 0 0 1 9.32 7.33 15.92 15.92 0 0 1 2.39 5.25 11.1 11.1 0 0 1-2 9.77 13.85 13.85 0 0 1-5.44 4 17.82 17.82 0 0 1-7 1.41h0zm-3.88-24.91a10.75 10.75 0 0 0-7.82 3.93 13.93 13.93 0 0 0-3.23 8.31 7.28 7.28 0 0 0 2 5.54 11.78 11.78 0 0 0 5.77 3 28.67 28.67 0 0 0 6.79.74h.46c3.92 0 7.53-1.63 9.42-4.12a7.68 7.68 0 0 0 1.13-6.86 11.78 11.78 0 0 0-2.3-4.28 20.36 20.36 0 0 0-3.53-3.41 12.13 12.13 0 0 0-5.91-2.25 25.84 25.84 0 0 1-2.78-.6z"/><path d="M340 91.28c0 2.59 4.09 2.59 4.09 0s-4.09-2.66-4.09 0m8.57-1.13c0 2.61 4.13 2.61 4.13 0s-4.13-2.69-4.13 0"/><path d="M343.85 96.05c-2.66 2.66 6.68 7.31 8.89 3.62 1.81-3-2.13-2-3.53-2.19s-4.12-2.67-5.36-1.43m30-.97h0a1.92 1.92 0 0 1-1.47-.52 2.68 2.68 0 0 1-.56-2c.12-3.17 8.89-6.16 11.66-6.68a7.72 7.72 0 0 1 1.44-.14 13.36 13.36 0 0 1 5.89 1.86h0a13.28 13.28 0 0 0 6 1.87 7.74 7.74 0 0 0 1.79-.2 22.07 22.07 0 0 0 3.25-1.07 17.11 17.11 0 0 1 4.47-1.2h.73a7.78 7.78 0 0 1 4.47 1.58 17 17 0 0 0 2.48 1.28 4.73 4.73 0 0 0 1.82.36 9.79 9.79 0 0 0 1.32-.11h0a9.36 9.36 0 0 1 1.41-.11h.4c1.33.09 2.18.54 2.32 1.23s-.59 1.65-1.93 2.3a6.32 6.32 0 0 1-2.82.73 8.73 8.73 0 0 1-4.42-1.63 10.63 10.63 0 0 0-4.35-1.77 5.48 5.48 0 0 0-.7 0 15.19 15.19 0 0 0-5.68 1.57h-.09a15.82 15.82 0 0 1-6 1.6h-.33a14.39 14.39 0 0 1-5.4-1.58 11.58 11.58 0 0 0-4.77-1.38 7.25 7.25 0 0 0-2.76.57c-.33.14-.87.43-1.54.8-1.79 1.06-4.69 2.64-6.63 2.64zM438.88 97h0a6 6 0 0 1-4.12-1.9 8.68 8.68 0 0 1-2.38-4.24 5.7 5.7 0 0 1 .24-3.44 5.11 5.11 0 0 1 2.72-2.61 3 3 0 0 1 1.28-.25 10.13 10.13 0 0 1 5.76 2.5 5.42 5.42 0 0 1 1.7 4.15 6.2 6.2 0 0 1-2.1 4.59 4.75 4.75 0 0 1-3.1 1.2zm-1.95-8.54a2.59 2.59 0 0 0-.24 2.74c.42 1 1.15 1.71 1.89 1.71a1.24 1.24 0 0 0 .27 0c.76-.17 1.18-.47 1.25-.9.22-1.43-3.1-3.55-3.17-3.57zm-74 45.92c-9.62 0-19.33-.2-28.94.37-1.62.1-7.78-.21-8.61 1.48-1.53 3.1 4.81 1.56 5.73 1.47 19.14-1.92 39.13-.82 58.33-.27l47 1.53q6.18.33 12.36.7c1.34.08 4.72 1 5-1.17s-4-1.54-5-1.59q-12.56-.68-25.11-1.38c-20.16-1.14-40.58-1.14-60.77-1.14"/><path d="M325.07 137.82c-1.8 1.79-1 8.61-1 10.87l-.36 11.83c-.08 4.12 0 8.26.28 12.38.1 1.72 1.52 10.08 3.76 5.3 1-2.14 0-8.09 0-10.51 0-4.4.26-8.79.48-13.19.19-3.78.2-7.56.36-11.35.05-1.2.2-9-3.5-5.33"/><path d="M455.44 173.06c-9.37 1-18.89.5-28.29 1.21-8.1.61-16.2.86-24.32 1-18.4.38-36.83.76-55.17 2.3l-12.55.9c-2.09.1-10.89-.86-11.54 1.35-1.12 3.77 8.29 2.28 10.32 2.22 4.46-.13 8.9-.45 13.35-.79 18.7-1.43 37.48-1.85 56.22-2.45 10.19-.32 20.32-1.06 30.49-1.74 5.07-.34 10.15-.35 15.22-.68 1.33-.08 6 .08 7-1 .65-.74.82-2.52-.71-2.38"/><path d="M452.26 138.46l1.13 26.94c.1 2.7-.72 7.54.78 9.93 2.42 3.83 4.31-.23 4.75-2.61 1.4-7.54-.1-15.86-.5-23.44-.15-2.89.75-9.33-.64-11.91s-5.64-2.22-5.52 1.09m-15.67 25.37a7.57 7.57 0 0 1-2.45-.44 6.83 6.83 0 0 1-2.7-1.83 7.39 7.39 0 0 1-1.64-2.83 5.63 5.63 0 0 1 .56-4.39 8.19 8.19 0 0 0 .82-2.61 6 6 0 0 0-.08-.94 2.93 2.93 0 0 1 .14-2.08c.32-.43 1.1-.63 2.39-.63h1.34.56a7.48 7.48 0 0 1 1.15-.12 4.93 4.93 0 0 1 4.22 2.47 10.28 10.28 0 0 1 1.46 5.43 9.14 9.14 0 0 1-2.19 6.43 4.88 4.88 0 0 1-3.58 1.54zm0-12.57h0c-2.16 1-4 5-3.44 7.41a2.47 2.47 0 0 0 2.7 2 5.39 5.39 0 0 0 .8-.06 2.92 2.92 0 0 0 2-1.32 5.17 5.17 0 0 0 .77-2.54 7.2 7.2 0 0 0-.64-3.42 3.67 3.67 0 0 0-2.24-2.07zm-90.23 16.82h0a13.93 13.93 0 0 1-11.68-6.43 11.77 11.77 0 0 1-.28-11.84 1.36 1.36 0 0 1-.83.36c-.73 0-1.08-1-1.23-1.55-.23-.91 1.21-2.5 2.16-3.56l.54-.61c2-2.52 4.47-4.87 8.21-5h.4a13.6 13.6 0 0 1 8.6 3.28 18.59 18.59 0 0 1 5.56 7.76 14.71 14.71 0 0 1 .87 7.6 11.15 11.15 0 0 1-3.75 6.7 12.79 12.79 0 0 1-8.57 3.29zM343 146a3.17 3.17 0 0 0-.92.1 7.41 7.41 0 0 0-3.52 2.78 12.56 12.56 0 0 0-2 4.09 9.47 9.47 0 0 0 .72 7.37 9.3 9.3 0 0 0 5.95 4.2 11.66 11.66 0 0 0 3.05.4 9.66 9.66 0 0 0 5.43-1.54 8.19 8.19 0 0 0 3.34-4.68 10.43 10.43 0 0 0-1.36-8.94 17.42 17.42 0 0 0-7.2-5.85l.06.54c0 .18.05.36.07.55-.25.9-1.19 1-2.08 1h-.79 0zm.2-3.17a6.78 6.78 0 0 0-4.13 1.56 8.4 8.4 0 0 1 4.13-1.56zm-3.27 8.67a1.34 1.34 0 1 0 1.31-1.31 1.34 1.34 0 0 0-1.31 1.31"/><path d="M344.5 151.79a1.36 1.36 0 1 0 1.31-1.31 1.36 1.36 0 0 0-1.31 1.31m2.07 6.21c-1.27.1-5.93-.33-6.74.78-1.37 1.86.81 1.93 1.88 2.13s5.16.08 5.75-.78.4-2.24-.89-2.13m15.02 3.12h0c-.67 0-1.19-.46-1.58-1.42-.83-2 2.23-4.58 3.23-5.44a6.52 6.52 0 0 1 4.36-1.81 8.69 8.69 0 0 1 2.61.46 18.73 18.73 0 0 1 2 .76 8.22 8.22 0 0 0 3.3.88 7.06 7.06 0 0 0 1.59-.2 22.54 22.54 0 0 0 3.26-1.15 16.2 16.2 0 0 1 4.78-1.38h.6a15.86 15.86 0 0 1 5.34 1.27 23.15 23.15 0 0 0 3.55 1.1 11.74 11.74 0 0 0 2.36.24 15.52 15.52 0 0 0 5.54-1.21 14.67 14.67 0 0 1 5.22-1.2 12 12 0 0 1 3.61.62l.89.26c2.06.58 6.36 1.79 6.57 2.52a1.27 1.27 0 0 1-1.42 1.85 13.24 13.24 0 0 1-3.67-.85h0l-.19-.06-1.43-.51a14.55 14.55 0 0 0-5-1.17 8.6 8.6 0 0 0-2.31.33l-2.49.78a19.6 19.6 0 0 1-6.38 1.34 13.16 13.16 0 0 1-1.77-.12 20.31 20.31 0 0 1-3.43-.88 15.27 15.27 0 0 0-4.53-1h-.06a14.16 14.16 0 0 0-5.44 1.53 20.51 20.51 0 0 1-3.74 1.32 6.12 6.12 0 0 1-1.28.14 11.22 11.22 0 0 1-3.61-.78h-.09a10.6 10.6 0 0 0-3.33-.75 4.43 4.43 0 0 0-.81.07 7.07 7.07 0 0 0-2.49 1.92c-1.25 1.18-2.63 2.54-3.76 2.54z"/></g><path d="M521.31 357.9l-6.1-22.67a39.37 39.37 0 0 0-33.14-29.43l-14.17-2-4.14-12.43a58.42 58.42 0 0 0 23.54-35.32c4.14-2.14 10.7-7.59 10.7-21.05 0-9.81-1.52-15.92-5-19a22.66 22.66 0 0 0-2.4-1.74c-3.27-29.87-27.25-53.19-57.11-53.19-29.65 0-53.85 23.1-57.12 53.41a5.51 5.51 0 0 0-2.18 1.52c-3.71 3.49-5.23 9.38-5.23 19.19 0 13.51 6.54 19 10.68 21.14a60.36 60.36 0 0 0 23.54 35.32L399 303.84l-14.17 2a39.64 39.64 0 0 0-33.14 29.43l-6.1 22.67a7.86 7.86 0 0 0 1.53 7.2 8 8 0 0 0 6.32 3h160a7.45 7.45 0 0 0 6.32-3 7.74 7.74 0 0 0 1.55-7.24zM395.52 201.38a3.72 3.72 0 0 1 4.8-3.49 155.09 155.09 0 0 0 33.35 3.27c13.08 0 24.86-1.31 33.36-3.27 2.18-.66 4.36 1.09 4.79 3.49.66 4.79 1.09 10.9 1.75 16.13h-79.79c.43-5.45 1.09-11.34 1.74-16.13zm67.58 22.67l-.65 12.86a4.09 4.09 0 0 1-4.14 3.92h-11.12a4.06 4.06 0 0 1-4.14-3.7l-1.53-13.08zm-37.71 0l-1.53 13.08a4 4 0 0 1-4.14 3.7H408.6a4.09 4.09 0 0 1-4.14-3.92l-.65-12.86zm-18.09 84.58l4.14-12.42a51.31 51.31 0 0 0 22.23 5.23 54.08 54.08 0 0 0 22-5l4.14 12.43a44.46 44.46 0 0 1-52.51-.24zm25.94-16.57c-21.8 0-40.77-16.78-45.13-40.11a5 5 0 0 0-3.49-3.7c-.65-.22-6.54-2-6.54-13.08 0-5.89.66-8.94 1.31-10.69h1.53c0 1.53 1.09 7.63 2.39 7.63h6.54a2.61 2.61 0 0 0 2.4-2.61s.22-2.18.44-5.45h3.92l.66 13.08a10.84 10.84 0 0 0 10.9 10.46h11.12a11 11 0 0 0 10.9-9.59l1.74-13.95h2.4l1.74 13.95a10.88 10.88 0 0 0 10.9 9.59h11.12A10.84 10.84 0 0 0 469 237.13l.65-13.08h3.93l.43 5.45a2.47 2.47 0 0 0 2.4 2.61h6.54c1.31 0 2.4-6.1 2.4-7.63h1.53c.65 1.75 1.3 4.58 1.3 10.69 0 11.11-5.88 12.86-6.32 13.08a5.27 5.27 0 0 0-3.7 3.7c-3.72 23.33-22.69 40.11-44.92 40.11z" class="N"/><circle cx="414.49" cy="232.55" r="5.01"/><circle cx="452.42" cy="232.55" r="5.01"/><path d="M446.31,270.42c0,2.76-5.82,5-13,5s-13-2.24-13-5" stroke-width="2" class="O R S T"/><path d="M429.89,243.73a36.4,36.4,0,0,0-1.59,13.2,1.53,1.53,0,0,0,1.5,1.5,7.86,7.86,0,0,1,4.4,1.18c1.65,1,3.16-1.58,1.51-2.59a10.79,10.79,0,0,0-5.91-1.59l1.5,1.5a34,34,0,0,1,1.48-12.4c.58-1.85-2.31-2.64-2.89-.8Z" class="N"/><path d="M36.03 366.55l4.87 2.61 4.91-2.53-.97 5.43 3.92 3.89-5.47.75-2.49 4.94-2.4-4.98-5.47-.83 3.99-3.83-.89-5.45zm13.11-18.92l3.07 1.65 3.09-1.6-.61 3.43 2.47 2.45-3.45.48-1.57 3.11-1.51-3.14-3.44-.53 2.51-2.41-.56-3.44zm24.04 27.28l3.07 1.65 3.09-1.6-.61 3.43 2.47 2.45-3.45.47-1.56 3.11-1.52-3.13-3.44-.53 2.51-2.41-.56-3.44z" class="O P Q"/><g class="N"><circle cx="61.41" cy="368.54" r="1.25"/><circle cx="28.63" cy="350.17" r="1.25"/><circle cx="45.37" cy="327.15" r="1.25"/></g><path d="M237.57 362.99L234 367.9l-6.08-.16 3.57 4.93-2.03 5.72 5.78-1.87 4.82 3.7.01-6.08 5.01-3.44-5.78-1.88-1.73-5.83z" fill="#ecc01c"/><g fill="#e0b0a7"><path d="M181.31 321.42h49v26h-49z"/><ellipse cx="205.81" cy="266.42" rx="51.5" ry="55"/></g><path d="M285 380l-5.4-20.59a35.41 35.41 0 0 0-30-26.59l-13-1.8-4-11.6 2.6-1.79c12.8-1.8 26.59-4.6 35-9.4a3.46 3.46 0 0 0 1-4.8c-4-7-7.4-17.39-9.4-24.79A25.36 25.36 0 0 0 264 268c0-9-1.4-14.4-4.6-17.2a7 7 0 0 0-2-1.6c-2.4-28-24.59-49.77-52-49.77s-49.57 21.59-52 49.77a6.23 6.23 0 0 0-1.8 1.4c-3.2 3-4.8 8.4-4.8 17.4a25.36 25.36 0 0 0 2.2 10.59c-2 7.4-5.4 17.79-9.4 24.79-.8 1.8-.6 3.8 1 4.8 8.4 4.8 22.19 7.6 35 9.4.8.59 1.8 1.19 2.6 1.79l-4 11.6-13 1.8a35.68 35.68 0 0 0-30 26.59L125.9 380a6.71 6.71 0 0 0 1.4 6.4 7.41 7.41 0 0 0 5.8 2.79h145.33a6.87 6.87 0 0 0 5.8-2.79 8.77 8.77 0 0 0 .77-6.4zM175.88 243.65a3.43 3.43 0 0 0 3.2 2.2h52.57a3.43 3.43 0 0 0 3.2-2.2l3-7.8c.6 4.8 1 10.4 2.4 16h-69.77c1.4-5.59 1.8-11 2.4-16zM232.25 258l-.6 11.6a3.75 3.75 0 0 1-3.8 3.59h-10.19a3.72 3.72 0 0 1-3.8-3.39l-1.4-12h19.79zm-34.18 0l-1.4 12a3.72 3.72 0 0 1-3.8 3.39h-10.2a3.75 3.75 0 0 1-3.79-3.59l-.6-11.6h19.79zm-16.59 77.17l4-11.6a45.32 45.32 0 0 0 39.79 0l4 11.6a41.14 41.14 0 0 1-47.79.04zm23.58-15.6c-19.79 0-37-15.39-41-36.38a4.6 4.6 0 0 0-3.2-3.4c-.6-.2-5.79-1.8-5.79-12 0-8.6 1.6-10.8 2.4-11.4a1 1 0 0 0 .6-.2 44.83 44.83 0 0 1 4.59 13 51.14 51.14 0 0 0 5.8-11.4h3.6l.6 12a9.78 9.78 0 0 0 10 9.39h10.2a9.93 9.93 0 0 0 9.8-8.79l1.6-12.6h2.19l1.6 12.6a9.93 9.93 0 0 0 9.8 8.79h10.19a10.06 10.06 0 0 0 10-9.39l.6-12h3.8a51.14 51.14 0 0 0 5.8 11.4 44.53 44.53 0 0 1 4.59-13 1.5 1.5 0 0 1 1 .2c.4.4 2 2.6 2 11.2 0 10-5.19 11.79-5.79 12a4.29 4.29 0 0 0-3.2 3.4c-4.39 21.23-21.58 36.62-41.78 36.62z" class="N"/><g fill="#e0b0a7"><path d="M247.31 271.42h-82l6-21h68l8 21z"/><path d="M165.31 270.42h79v10h-79z"/></g><g class="N"><circle cx="187.31" cy="263.42" r="4"/><circle cx="220.31" cy="263.42" r="4"/></g><g class="O"><path d="M204.12,273.62c-2.34,1-3.74,2.86-3.53,4.66s2,3.49,4.56,4.27" class="P Q"/><path d="M217.17,298.78c0,2.76-5.82,5-13,5s-13-2.24-13-5" stroke-width="2" class="R S T"/></g><path d="M143.14 337.44c8.91-5.38 19.72-6.47 30.12-6.64a10.28 10.28 0 0 1 4.45.59c1.54.7 2.64 2.07 3.86 3.24 7.09 6.88 18.06 7.21 27.94 7.14a32.14 32.14 0 0 0 13.8-3.35c3.11-1.52 5.82-3.12 8.93-4.64 15.07-7.36 30.24.51 40.07 10.64 7.42 7.63 11.56 23.16 14 38 1.37 8.34 2.61 21.35 4 29.7.39 2.4.76 5-.4 7.15-2.2 4.06-8 3.82-12.55 3A607.86 607.86 0 0 1 142.39 380c-7.15-3.19-13.08-1.55-13.08-10.55 1.37.06 0 0 .69-7.29.31-12.74 4.56-19.55 13.14-24.72z" fill="#b7cde9"/><path d="M210.01 357.04l-6.9 9.48-11.72-.31 6.88 9.49-3.91 11.06 11.15-3.62 9.3 7.14.01-11.72 9.67-6.64-11.15-3.63-3.33-11.25z" fill="#fefefe" stroke-width=".5" class="P R"/><path d="M521.26 357c.85 5.78 1.2 12.13-1 16.72-3.35 7.16-15.51 4.79-21.56 8.65-2.56 1.64-4.3 4.63-6.66 6.64-19.42 16.58-31.49 24.16-43.44 28.28-35.34 12.17-91.34 11.15-114.34 10.14-.82-37.39 5.1-63.12 18.32-97a64.36 64.36 0 0 1 6.46-13.16c5.78-8.43 14.27-12.79 22.9-15.43 10.88-3.33 15.34-4 24 3.61 13.85 12.21 33.5 14.91 49.08 6 5.43-3.12 10.4-7.49 16.18-9.52 11.79-4.14 28.79 4.24 37.05 15.11s9.32 20.12 12 34.45l1 5.57" fill="#b7cde9"/><g class="P"><path d="M435.26 332.09l-7.99 10.97-13.56-.36 7.97 10.98-4.53 12.79 12.9-4.18 10.76 8.26.01-13.57L452 349.3l-12.89-4.2-3.85-13.01z" fill="#fefefe" stroke-width=".5" class="R"/><path d="M591.07,256.67c-15.73,115.23-158.23,190.94-318.3,169.1S-4.31,292.8,11.42,177.57" stroke="#f3f3f3" stroke-width="20" class="O"/></g></svg>