<?xml version="1.0" encoding="utf-8"?>
<!-- Generator: Adobe Illustrator 26.0.3, SVG Export Plug-In . SVG Version: 6.00 Build 0)  -->
<svg version="1.1" id="Layer_1" xmlns="http://www.w3.org/2000/svg" xmlns:xlink="http://www.w3.org/1999/xlink" x="0px" y="0px"
	 viewBox="0 0 186 25.9" style="enable-background:new 0 0 186 25.9;" xml:space="preserve">
<style type="text/css">
	.st0{fill:#EEC10C;}
</style>
<path d="M43.4,24.4c-4.9,0-8.5-3.3-8.5-8.6s3.5-8.6,8.5-8.6s8.3,3.2,8.3,8.3c0,0.5,0,1-0.1,1.5H40.1c0.2,2.2,1.5,3.2,3.2,3.2
	c1.1,0.1,2.2-0.6,2.7-1.6h5.5C50.4,22.1,47.1,24.5,43.4,24.4z M40.1,14.1h6.4c0-1.6-1.3-2.9-2.9-2.9c-0.1,0-0.2,0-0.3,0
	C41.7,11.2,40.2,12.5,40.1,14.1z"/>
<path d="M61.1,24.4c-4.5,0-7.5-2.5-7.7-5.7h5.1c0.2,1.2,1.3,2.1,2.6,2c1.3,0,2-0.6,2-1.4c0-2.7-9.1-0.8-9.1-6.9
	c0-2.9,2.4-5.2,6.8-5.2s6.7,2.4,7.1,5.7H63c-0.2-1.2-1.3-2-2.5-1.9c-1.2,0-1.9,0.5-1.9,1.3c0,2.7,9.1,0.8,9.2,7
	C67.9,22.2,65.3,24.4,61.1,24.4z"/>
<path d="M71.7,11.6h-2V7.4h2V3.3h5.1v4.1h3.4v4.3h-3.4v6.7c0,1,0.4,1.4,1.6,1.4h1.8v4.4h-2.6c-3.5,0-5.9-1.5-5.9-5.8L71.7,11.6z"/>
<path d="M90.3,24.4c-4.9,0-8.5-3.3-8.5-8.6s3.5-8.6,8.5-8.6s8.4,3.2,8.4,8.3c0,0.5,0,1-0.1,1.5H86.9c0.2,2.2,1.5,3.2,3.2,3.2
	c1.1,0.1,2.2-0.6,2.7-1.6h5.5C97.3,22.1,94,24.5,90.3,24.4z M87,14.1h6.4c0-1.6-1.3-2.9-2.9-2.9c-0.1,0-0.2,0-0.3,0
	C88.5,11.2,87.1,12.5,87,14.1z"/>
<path d="M108.6,24.4c-4.9,0-8.5-3.3-8.5-8.6s3.5-8.6,8.5-8.6s8.3,3.2,8.3,8.3c0,0.5,0,1-0.1,1.5h-11.6c0.2,2.2,1.5,3.2,3.2,3.2
	c1.1,0.1,2.2-0.6,2.7-1.6h5.5C115.6,22.1,112.3,24.5,108.6,24.4z M105.2,14.1h6.4c0-1.6-1.3-2.9-2.9-2.9c-0.1,0-0.2,0-0.3,0
	C106.8,11.2,105.4,12.5,105.2,14.1z"/>
<path d="M142.5,15c0-2.2-1.3-3.4-3.2-3.4s-3.2,1.2-3.2,3.4v9.1H131V15c0-2.2-1.3-3.4-3.2-3.4s-3.2,1.2-3.2,3.4v9.1h-5.1V7.4h5.1v2.1
	c1.2-1.5,3-2.4,4.9-2.3c2.3-0.1,4.5,1.1,5.7,3.1c1.2-1.9,3.4-3.1,5.6-3.1c4.1,0,6.8,2.6,6.8,7.1v9.8h-5.1L142.5,15z"/>
<path d="M158.5,24.4c-4.9,0-8.5-3.3-8.5-8.6s3.5-8.6,8.5-8.6s8.3,3.2,8.3,8.3c0,0.5,0,1-0.1,1.5h-11.6c0.2,2.2,1.5,3.2,3.2,3.2
	c1.1,0.1,2.2-0.6,2.7-1.6h5.5C165.5,22.1,162.2,24.5,158.5,24.4z M155.1,14.1h6.4c0-1.6-1.3-2.9-2.9-2.9c-0.1,0-0.2,0-0.3,0
	C156.7,11.2,155.3,12.5,155.1,14.1z"/>
<path d="M175.7,7.1c2-0.1,4,0.9,5.2,2.5V1.9h5.1v22.2h-5.1v-2.4c-1.1,1.7-3.1,2.7-5.2,2.6c-4.1,0-7.4-3.4-7.4-8.6
	S171.6,7.1,175.7,7.1z M177.2,11.6c-1.9,0-3.7,1.4-3.7,4.1s1.7,4.2,3.7,4.2s3.7-1.5,3.7-4.1S179.1,11.6,177.2,11.6L177.2,11.6z"/>
<polygon class="st0" points="13.6,0 17.8,8.5 27.2,9.9 20.4,16.5 22,25.9 13.6,21.5 5.2,25.9 6.8,16.5 0,9.9 9.4,8.5 "/>
</svg>
