<?xml version="1.0" encoding="UTF-8"?><svg id="Layer_1" xmlns="http://www.w3.org/2000/svg" viewBox="0 0 186 25.9"><defs><style>.cls-1{fill:#eec10c;}.cls-2{fill:#fff;}</style></defs><path class="cls-2" d="M43.4,24.4c-4.9,0-8.5-3.3-8.5-8.6s3.5-8.6,8.5-8.6,8.3,3.2,8.3,8.3c0,.5,0,1-.1,1.5h-11.5c.2,2.2,1.5,3.2,3.2,3.2,1.1,.1,2.2-.6,2.7-1.6h5.5c-1.1,3.5-4.4,5.9-8.1,5.8Zm-3.3-10.3h6.4c0-1.6-1.3-2.9-2.9-2.9h-.3c-1.6,0-3.1,1.3-3.2,2.9Z"/><path class="cls-2" d="M61.1,24.4c-4.5,0-7.5-2.5-7.7-5.7h5.1c.2,1.2,1.3,2.1,2.6,2,1.3,0,2-.6,2-1.4,0-2.7-9.1-.8-9.1-6.9,0-2.9,2.4-5.2,6.8-5.2s6.7,2.4,7.1,5.7h-4.9c-.2-1.2-1.3-2-2.5-1.9-1.2,0-1.9,.5-1.9,1.3,0,2.7,9.1,.8,9.2,7,.1,2.9-2.5,5.1-6.7,5.1Z"/><path class="cls-2" d="M71.7,11.6h-2V7.4h2V3.3h5.1V7.4h3.4v4.3h-3.4v6.7c0,1,.4,1.4,1.6,1.4h1.8v4.4h-2.6c-3.5,0-5.9-1.5-5.9-5.8v-6.8Z"/><path class="cls-2" d="M90.3,24.4c-4.9,0-8.5-3.3-8.5-8.6s3.5-8.6,8.5-8.6,8.4,3.2,8.4,8.3c0,.5,0,1-.1,1.5h-11.7c.2,2.2,1.5,3.2,3.2,3.2,1.1,.1,2.2-.6,2.7-1.6h5.5c-1,3.5-4.3,5.9-8,5.8Zm-3.3-10.3h6.4c0-1.6-1.3-2.9-2.9-2.9h-.3c-1.7,0-3.1,1.3-3.2,2.9Z"/><path class="cls-2" d="M108.6,24.4c-4.9,0-8.5-3.3-8.5-8.6s3.5-8.6,8.5-8.6,8.3,3.2,8.3,8.3c0,.5,0,1-.1,1.5h-11.6c.2,2.2,1.5,3.2,3.2,3.2,1.1,.1,2.2-.6,2.7-1.6h5.5c-1,3.5-4.3,5.9-8,5.8Zm-3.4-10.3h6.4c0-1.6-1.3-2.9-2.9-2.9h-.3c-1.6,0-3,1.3-3.2,2.9Z"/><path class="cls-2" d="M142.5,15c0-2.2-1.3-3.4-3.2-3.4s-3.2,1.2-3.2,3.4v9.1h-5.1V15c0-2.2-1.3-3.4-3.2-3.4s-3.2,1.2-3.2,3.4v9.1h-5.1V7.4h5.1v2.1c1.2-1.5,3-2.4,4.9-2.3,2.3-.1,4.5,1.1,5.7,3.1,1.2-1.9,3.4-3.1,5.6-3.1,4.1,0,6.8,2.6,6.8,7.1v9.8h-5.1V15Z"/><path class="cls-2" d="M158.5,24.4c-4.9,0-8.5-3.3-8.5-8.6s3.5-8.6,8.5-8.6,8.3,3.2,8.3,8.3c0,.5,0,1-.1,1.5h-11.6c.2,2.2,1.5,3.2,3.2,3.2,1.1,.1,2.2-.6,2.7-1.6h5.5c-1,3.5-4.3,5.9-8,5.8Zm-3.4-10.3h6.4c0-1.6-1.3-2.9-2.9-2.9h-.3c-1.6,0-3,1.3-3.2,2.9Z"/><path class="cls-2" d="M175.7,7.1c2-.1,4,.9,5.2,2.5V1.9h5.1V24.1h-5.1v-2.4c-1.1,1.7-3.1,2.7-5.2,2.6-4.1,0-7.4-3.4-7.4-8.6s3.3-8.6,7.4-8.6Zm1.5,4.5c-1.9,0-3.7,1.4-3.7,4.1s1.7,4.2,3.7,4.2,3.7-1.5,3.7-4.1-1.8-4.2-3.7-4.2h0Z"/><polygon class="cls-1" points="13.6 0 17.8 8.5 27.2 9.9 20.4 16.5 22 25.9 13.6 21.5 5.2 25.9 6.8 16.5 0 9.9 9.4 8.5 13.6 0"/></svg>