<?xml version="1.0" encoding="UTF-8"?>
<!-- Created with Inkscape (http://www.inkscape.org/) -->
<svg width="26.606mm" height="26.606mm" version="1.1" viewBox="0 0 26.606 26.606" xmlns="http://www.w3.org/2000/svg">
 <defs>
  <clipPath id="clipPath631">
   <path d="m0 4006h875v-4006h-875z"/>
  </clipPath>
 </defs>
 <g transform="translate(-38.759 -47.494)">
  <g transform="matrix(.35278 0 0 -.35278 -16.404 1202.3)">
   <g clip-path="url(#clipPath631)">
    <g transform="translate(201.8 3269.1)">
     <path d="m0 0c-0.187-0.749-0.372-1.498-0.552-2.249-0.346-1.441-0.739-3.197 0.081-4.539 0.311-0.511 0.79-0.853 1.39-0.919 0.936-0.099 2.053 0.012 2.969-0.169 0.788-0.156 1.47-0.485 2-1.025 0.519-0.53 0.927-1.283 1.028-2.415 0.221-2.494-0.629-4.956-1.164-7.352-0.907-4.057-1.468-9.463 1.476-12.809 0.377-0.431 0.835-0.511 1.32-0.475 0.557 0.043 1.14 0.211 1.735 0.393 1.182 0.363 2.401 0.789 3.565 0.923 1.011 0.115 1.992 0.026 2.914-0.368 2.377-1.017 3.982-3.625 5.689-5.89 0.974-1.289 1.973-2.499 3.596-2.451 0.338 1.93 0.514 3.914 0.514 5.938 0 16.265-11.352 29.899-26.562 33.406zm-34.782-54.445c2.994-3.843 6.788-7.034 11.131-9.32 0.226 0.518 0.391 1.052 0.432 1.628 0.098 1.411-0.679 2.822-1.539 3.896-0.536 0.667-1.172 1.263-1.884 1.739-1.675 1.116-3.802 1.442-5.752 1.767-0.797 0.132-1.593 0.228-2.388 0.289zm32.013-12.887c13.457 1.949 24.396 11.731 28.035 24.57-2.36 0.229-4.05 1.813-5.552 3.804-0.751 0.994-1.453 2.086-2.231 3.038-0.611 0.747-1.253 1.414-2.069 1.764-0.633 0.269-1.327 0.126-2.035-0.049-1.096-0.274-2.213-0.711-3.278-0.957-2.044-0.474-3.921-0.318-5.448 1.421-3.65 4.147-3.37 10.791-2.248 15.82 0.46 2.058 1.286 4.158 1.096 6.301-0.014 0.136-0.022 0.25-0.074 0.334-0.029 0.045-0.092 0.021-0.144 0.033-0.13 0.032-0.268 0.047-0.411 0.059-0.758 0.062-1.596 0-2.321 0.078-1.687 0.181-3.068 1.098-3.95 2.542-1.289 2.111-1.031 4.855-0.488 7.125 0.165 0.684 0.333 1.368 0.504 2.05-1.419 0.18-2.867 0.272-4.338 0.272-10.048 0-19.092-4.333-25.367-11.232 2.064-1.157 3.738-3.099 5.427-4.653 1.904-1.752 4.187-3.055 6.82-3.119 3.473-0.08 6.749 1.048 9.904 2.39 1.158 0.492 2.573 1.169 3.899 1.282 1.255 0.108 2.455-0.195 3.487-1.207 2.389-2.344 1.965-6.352 0.644-9.045-1.119-2.279-2.777-4.331-4.05-6.511-1.056-1.809-1.838-3.716-1.468-6.048 0.266-1.671 1.492-2.84 2.58-4.075 1.567-1.781 2.953-3.636 3.033-6.132 0.046-1.465-0.41-2.881-1.067-4.239-0.536-1.105-1.208-2.17-1.714-3.195-0.862-1.746-1.239-3.477-0.759-5.394 0.644-2.58 2.305-4.724 3.582-7.027zm-32.545 54.26c-4.203-5.692-6.688-12.725-6.688-20.335 0-6.395 1.755-12.384 4.81-17.51 1.779-8e-3 3.565-0.138 5.36-0.436 2.415-0.401 5.017-0.914 7.09-2.298 1.004-0.668 1.903-1.505 2.656-2.444 1.376-1.714 2.442-4.029 2.286-6.28-0.07-0.998-0.356-1.93-0.752-2.827 3.966-1.604 8.296-2.486 12.831-2.486 0.406 0 0.811 7e-3 1.212 0.02-1.229 2.101-2.574 4.157-3.169 6.533-0.686 2.745-0.225 5.238 1.011 7.741 0.504 1.019 1.171 2.076 1.704 3.175 0.411 0.848 0.754 1.719 0.725 2.636-0.052 1.652-1.142 2.793-2.181 3.973-1.515 1.723-3.02 3.475-3.39 5.802-0.507 3.195 0.446 5.835 1.892 8.316 1.233 2.108 2.851 4.086 3.932 6.292 0.415 0.843 0.736 1.892 0.758 2.917 0.019 0.801-0.14 1.597-0.725 2.17-0.329 0.324-0.747 0.271-1.154 0.182-0.868-0.189-1.741-0.646-2.488-0.965-3.603-1.533-7.362-2.755-11.327-2.66-3.481 0.082-6.544 1.705-9.06 4.021-1.653 1.52-3.18 3.625-5.333 4.463zm27.593 17.374c-20.812 0-37.709-16.898-37.709-37.71 0-20.813 16.897-37.71 37.709-37.71 20.813 0 37.71 16.897 37.71 37.71s-16.897 37.71-37.71 37.71" fill="#f6f8f9" fill-rule="evenodd"/>
    </g>
   </g>
  </g>
 </g>
</svg>
