<?xml version="1.0" encoding="UTF-8" standalone="no"?>
<!-- Created with Inkscape (http://www.inkscape.org/) -->

<svg
   width="32.266464mm"
   height="27.259844mm"
   viewBox="0 0 32.266464 27.259844"
   version="1.1"
   id="svg1399"
   inkscape:version="1.2 (1:1.2.1+202207142221+cd75a1ee6d)"
   xmlns:inkscape="http://www.inkscape.org/namespaces/inkscape"
   xmlns:sodipodi="http://sodipodi.sourceforge.net/DTD/sodipodi-0.dtd"
   xmlns="http://www.w3.org/2000/svg"
   xmlns:svg="http://www.w3.org/2000/svg">
  <sodipodi:namedview
     id="namedview1401"
     pagecolor="#ffffff"
     bordercolor="#666666"
     borderopacity="1.0"
     inkscape:showpageshadow="2"
     inkscape:pageopacity="0.0"
     inkscape:pagecheckerboard="0"
     inkscape:deskcolor="#d1d1d1"
     inkscape:document-units="mm"
     showgrid="false"
     inkscape:zoom="0.75722503"
     inkscape:cx="-51.503844"
     inkscape:cy="4.6221399"
     inkscape:window-width="1848"
     inkscape:window-height="1016"
     inkscape:window-x="72"
     inkscape:window-y="27"
     inkscape:window-maximized="1"
     inkscape:current-layer="layer1" />
  <defs
     id="defs1396">
    <clipPath
       clipPathUnits="userSpaceOnUse"
       id="clipPath599">
      <path
         d="M 0,4006 H 875 V 0 H 0 Z"
         id="path597" />
    </clipPath>
  </defs>
  <g
     inkscape:label="Layer 1"
     inkscape:groupmode="layer"
     id="layer1"
     transform="translate(-118.73971,-147.44888)">
    <g
       id="g593"
       transform="matrix(0.35277777,0,0,-0.35277777,-19.467368,1302.9024)">
      <g
         id="g595"
         clip-path="url(#clipPath599)">
        <g
           id="g601"
           transform="translate(413.8446,3232.7229)">
          <path
             d="m 0,0 c 0,-0.871 -0.706,-1.577 -1.577,-1.577 -0.871,0 -1.577,0.706 -1.577,1.577 0,0.871 0.706,1.577 1.577,1.577 C -0.706,1.577 0,0.871 0,0"
             style="fill:#f6f8f9;fill-opacity:1;fill-rule:evenodd;stroke:none"
             id="path603" />
        </g>
        <g
           id="g605"
           transform="translate(413.8446,3223.261)">
          <path
             d="m 0,0 c 0,-0.871 -0.706,-1.577 -1.577,-1.577 -0.871,0 -1.577,0.706 -1.577,1.577 0,0.871 0.706,1.577 1.577,1.577 C -0.706,1.577 0,0.871 0,0"
             style="fill:#f6f8f9;fill-opacity:1;fill-rule:evenodd;stroke:none"
             id="path607" />
        </g>
        <g
           id="g609"
           transform="translate(413.8446,3213.7993)">
          <path
             d="m 0,0 c 0,-0.871 -0.706,-1.577 -1.577,-1.577 -0.871,0 -1.577,0.706 -1.577,1.577 0,0.871 0.706,1.577 1.577,1.577 C -0.706,1.577 0,0.871 0,0"
             style="fill:#f6f8f9;fill-opacity:1;fill-rule:evenodd;stroke:none"
             id="path611" />
        </g>
        <g
           id="g613"
           transform="translate(410.8921,3264.9944)">
          <path
             d="m 0,0 c 0,-0.521 -0.47,-1.209 -0.922,-1.899 -0.278,-0.422 -0.576,-0.832 -0.856,-1.198 -0.281,0.366 -0.579,0.776 -0.856,1.198 -0.453,0.69 -0.923,1.378 -0.923,1.899 0,0.524 0.471,1.211 0.923,1.9 0.277,0.423 0.575,0.833 0.856,1.198 C -1.497,2.732 -1.2,2.323 -0.922,1.9 -0.47,1.211 0,0.523 0,0.001 Z M 4.354,-4.061 4.349,-4.103 C 4.289,-4.548 4.212,-5.033 4.113,-5.513 3.946,-6.321 3.791,-7.138 3.422,-7.51 3.052,-7.878 2.233,-8.033 1.426,-8.2 0.946,-8.299 0.46,-8.377 0.016,-8.437 l -0.043,-0.005 c 0.06,0.456 0.139,0.958 0.242,1.453 0.167,0.807 0.321,1.625 0.69,1.996 0.371,0.369 1.189,0.524 1.997,0.691 0.495,0.103 0.995,0.182 1.452,0.241 m -8.817,-0.932 c 0.369,-0.37 0.524,-1.189 0.691,-1.996 0.103,-0.495 0.182,-0.995 0.241,-1.453 -0.455,0.06 -0.957,0.139 -1.452,0.242 -0.808,0.167 -1.626,0.322 -1.997,0.69 -0.368,0.371 -0.523,1.189 -0.69,1.997 -0.103,0.495 -0.182,0.995 -0.242,1.452 0.456,-0.059 0.958,-0.138 1.453,-0.241 0.807,-0.167 1.625,-0.322 1.996,-0.691 M 52.411,-8.617 H 26.035 c -0.267,0 -0.522,0.106 -0.71,0.295 -0.189,0.188 -0.295,0.443 -0.295,0.71 v 13.76 c 0,0.267 0.106,0.522 0.295,0.71 0.188,0.189 0.443,0.295 0.71,0.295 h 26.376 c 0.267,0 0.522,-0.106 0.71,-0.295 0.189,-0.188 0.295,-0.443 0.295,-0.71 v -13.76 c 0,-0.267 -0.106,-0.522 -0.295,-0.71 -0.188,-0.189 -0.443,-0.295 -0.71,-0.295 M 37.646,-14.925 H 40.8 v 3.154 h -3.154 z m -42.787,-4.731 -1.126,7.885 h 8.979 l -1.125,-7.885 z m 51.948,0 H 31.64 c 0.466,0.935 1.433,1.577 2.549,1.577 h 10.068 c 1.116,0 2.083,-0.642 2.55,-1.577 z m 20.936,-3.154 h -82.272 c -0.382,0 -0.749,-0.151 -1.019,-0.422 -0.271,-0.27 -0.423,-0.637 -0.423,-1.019 v -0.271 c 0,-0.381 0.152,-0.749 0.423,-1.019 0.27,-0.271 0.637,-0.422 1.019,-0.422 h 82.272 c 0.382,0 0.75,0.151 1.019,0.422 0.271,0.27 0.423,0.638 0.423,1.019 v 0.271 c 0,0.382 -0.152,0.749 -0.423,1.019 -0.269,0.271 -0.637,0.422 -1.019,0.422 M -6.509,-35.425 h 15.77 v 6.308 h -15.77 z m 0,-9.462 h 15.77 v 6.308 H -6.509 Z M 9.26,-48.041 H -6.51 v -6.308 H 9.26 Z m 53.617,18.924 h 3.154 V -63.81 H 62.877 Z M 15.568,-63.811 h -3.154 v 34.693 h 3.154 z m -28.385,34.694 h 3.154 V -63.81 h -3.154 z m 47.309,17.346 v -3.154 h -0.303 c -2.878,0 -5.284,-2.026 -5.869,-4.731 H 4.772 l 1.32,9.24 c 0.048,0.339 -0.016,0.683 -0.177,0.978 0.431,0.564 0.804,1.395 1.063,2.341 0.566,2.069 0.705,4.707 0.705,4.707 0.022,0.446 -0.145,0.88 -0.461,1.195 -0.293,0.294 -0.689,0.459 -1.102,0.462 H 6.111 c -0.028,0 -0.055,0 -0.084,-0.001 0,0 -1.454,-0.078 -3.048,-0.347 0.115,0.393 0.176,0.758 0.176,1.08 0,0.768 -0.35,1.787 -0.932,2.805 -1.063,1.864 -2.831,3.827 -2.831,3.827 -0.297,0.331 -0.723,0.52 -1.17,0.52 -0.446,0 -0.872,-0.189 -1.17,-0.52 0,0 -1.767,-1.964 -2.831,-3.827 -0.582,-1.019 -0.932,-2.037 -0.932,-2.805 0,-0.322 0.062,-0.688 0.177,-1.08 -1.595,0.269 -3.048,0.347 -3.048,0.347 -0.447,0.022 -0.88,-0.145 -1.196,-0.461 -0.315,-0.315 -0.482,-0.749 -0.46,-1.195 0,0 0.139,-2.639 0.705,-4.707 0.258,-0.946 0.632,-1.777 1.063,-2.341 -0.161,-0.295 -0.226,-0.639 -0.177,-0.978 l 1.32,-9.24 h -6.202 c -1.22,0 -2.388,-0.484 -3.248,-1.346 -0.863,-0.862 -1.347,-2.03 -1.347,-3.249 v -0.271 c 0,-1.219 0.484,-2.387 1.347,-3.248 0.511,-0.512 1.132,-0.891 1.807,-1.115 v -36.503 c 0,-0.87 0.706,-1.577 1.577,-1.577 h 6.307 c 0.871,0 1.577,0.707 1.577,1.577 v 7.885 h 15.77 v -7.885 c 0,-0.87 0.707,-1.577 1.577,-1.577 h 6.308 c 0.87,0 1.577,0.707 1.577,1.577 v 36.271 h 41.001 v -36.271 c 0,-0.87 0.707,-1.577 1.577,-1.577 h 6.308 c 0.87,0 1.577,0.707 1.577,1.577 v 36.503 c 0.675,0.224 1.296,0.603 1.807,1.115 0.863,0.861 1.347,2.03 1.347,3.248 v 0.271 c 0,1.22 -0.484,2.388 -1.347,3.249 -0.861,0.862 -2.029,1.346 -3.248,1.346 H 50.127 c -0.585,2.705 -2.991,4.731 -5.869,4.731 h -0.303 v 3.154 h 8.458 c 1.102,0 2.16,0.439 2.941,1.218 0.779,0.78 1.217,1.838 1.217,2.941 v 13.76 c 0,1.103 -0.438,2.161 -1.217,2.942 -0.781,0.779 -1.839,1.217 -2.941,1.217 H 26.037 C 24.934,10.307 23.876,9.868 23.095,9.09 22.316,8.309 21.878,7.251 21.878,6.148 v -13.76 c 0,-1.103 0.439,-2.161 1.217,-2.941 0.781,-0.78 1.839,-1.218 2.942,-1.218 h 8.457 z"
             style="fill:#f6f8f9;fill-opacity:1;fill-rule:evenodd;stroke:none"
             id="path615" />
        </g>
      </g>
    </g>
  </g>
</svg>
