<?xml version="1.0" encoding="UTF-8"?>
<!-- Created with Inkscape (http://www.inkscape.org/) -->
<svg width="29.27mm" height="29.27mm" version="1.1" viewBox="0 0 29.27 29.27" xmlns="http://www.w3.org/2000/svg">
 <g transform="translate(-140.15 -82.152)">
  <path d="m150.4 101.18h1.4633v1.4633h-1.4633zm-0.48789 2.4391h2.4391c0.12947 0 0.25365-0.0515 0.34502-0.14287 0.0914-0.0914 0.14287-0.21555 0.14287-0.34502v-2.4391c0-0.12947-0.0515-0.25329-0.14287-0.34501-0.0914-0.0914-0.21555-0.14288-0.34502-0.14288h-2.4391c-0.26953 0-0.48789 0.21837-0.48789 0.48789v2.4391c0 0.12947 0.0515 0.25365 0.14287 0.34502 0.0914 0.0914 0.21555 0.14287 0.34502 0.14287m4.8782-2.4391h1.4637v1.4633h-1.4637zm-0.48789 2.4391h2.4394c0.12912 0 0.2533-0.0515 0.34502-0.14287 0.0914-0.0914 0.14252-0.21555 0.14252-0.34502v-2.4391c0-0.12947-0.0512-0.25329-0.14252-0.34501-0.0917-0.0914-0.2159-0.14288-0.34502-0.14288h-2.4394c-0.26917 0-0.48754 0.21837-0.48754 0.48789v2.4391c0 0.12947 0.0512 0.25365 0.14287 0.34502 0.0914 0.0914 0.21555 0.14287 0.34467 0.14287m-3.9024-6.8298h1.4633v1.4637h-1.4633zm-0.48789 2.4395h2.4391c0.12947 0 0.25365-0.05151 0.34502-0.14288 0.0914-0.09172 0.14287-0.21555 0.14287-0.34502v-2.4391c0-0.12947-0.0515-0.25365-0.14287-0.34502-0.0914-0.09172-0.21555-0.14288-0.34502-0.14288h-2.4391c-0.26953 0-0.48789 0.21837-0.48789 0.48789v2.4391c0 0.12947 0.0515 0.25329 0.14287 0.34502 0.0914 0.09137 0.21555 0.14288 0.34502 0.14288m4.8782-2.4395h1.4637v1.4637h-1.4637zm-0.48789 2.4395h2.4394c0.12912 0 0.2533-0.05151 0.34502-0.14288 0.0914-0.09172 0.14252-0.21555 0.14252-0.34502v-2.4391c0-0.12947-0.0512-0.25365-0.14252-0.34502-0.0917-0.09172-0.2159-0.14288-0.34502-0.14288h-2.4394c-0.26917 0-0.48754 0.21837-0.48754 0.48789v2.4391c0 0.12947 0.0512 0.25329 0.14287 0.34502 0.0914 0.09137 0.21555 0.14288 0.34467 0.14288m-12.744-14.869c-0.20285-0.17392-0.22755-0.47907-0.0557-0.68368 0.1718-0.20496 0.4766-0.23319 0.68333-0.06315l0.72319 0.60678c0.10054 0.08255 0.16404 0.20214 0.17604 0.33196 0.012 0.12982-0.0286 0.25894-0.11218 0.35878-0.084 0.09984-0.20426 0.16192-0.33409 0.17251-0.12982 0.01058-0.25858-0.03105-0.35771-0.11606zm5.6018 0.60713c-0.0995-0.0829-0.16157-0.20214-0.17286-0.33126-0.0109-0.12876 0.0293-0.25682 0.11254-0.3556l0.60678-0.72319c0.17356-0.20426 0.47942-0.23001 0.68474-0.05786 0.20532 0.17216 0.23319 0.47801 0.0624 0.68439l-0.60678 0.7232c-0.0832 0.09948-0.20214 0.16157-0.33126 0.17286-0.12876 0.01094-0.25682-0.02928-0.3556-0.11254zm-7.0044 2.0655c0-0.26917 0.21837-0.48754 0.48789-0.48754h0.97579c0.26917 0 0.48789 0.21837 0.48789 0.48754 0 0.26952-0.21872 0.48789-0.48789 0.48789h-0.97579c-0.26952 0-0.48789-0.21837-0.48789-0.48789m8.2931-0.48754h0.97579c0.26952 0 0.48789 0.21837 0.48789 0.48754 0 0.26952-0.21837 0.48789-0.48789 0.48789h-0.97579c-0.26917 0-0.48754-0.21837-0.48754-0.48789 0-0.26917 0.21837-0.48754 0.48754-0.48754m-3.9024-2.9274v-0.97543c0-0.26952 0.21837-0.48789 0.4879-0.48789 0.26917 0 0.48753 0.21837 0.48753 0.48789v0.97543c0 0.26952-0.21836 0.48789-0.48753 0.48789-0.26953 0-0.4879-0.21837-0.4879-0.48789m0.4879 2.4395c0.25858 0 0.50694 0.10266 0.68968 0.28575 0.18309 0.18274 0.28575 0.4311 0.28575 0.68968 0 0.25894-0.10266 0.50729-0.28575 0.69003-0.18274 0.18309-0.4311 0.28575-0.68968 0.28575-0.25894 0-0.5073-0.10266-0.69004-0.28575-0.18309-0.18274-0.28575-0.43109-0.28575-0.69003 3.6e-4 -0.25859 0.10337-0.50659 0.28611-0.68933 0.18309-0.18309 0.43074-0.2861 0.68968-0.2861m0 2.927c0.51717 0 1.0135-0.20567 1.3797-0.5715 0.36583-0.36618 0.5715-0.86254 0.5715-1.3801 0-0.51717-0.20567-1.0135-0.5715-1.3797-0.36618-0.36583-0.86254-0.5715-1.3797-0.5715-0.51753 0-1.0139 0.20567-1.3801 0.5715-0.36583 0.36618-0.5715 0.86254-0.5715 1.3797 3.5e-4 0.51752 0.20637 1.0135 0.5722 1.3794 0.36584 0.36583 0.86184 0.5715 1.3794 0.5722m22.928 8.781h-5.3661v-0.97578h5.854v0.97578zm-0.48789 12.684h-4.8782v-11.708h4.8782zm-5.854-14.147v14.147h-1.9512v-16.099c0-0.12947-0.0515-0.25365-0.14287-0.34502-0.0917-0.09137-0.21555-0.14288-0.34502-0.14288h-11.22v-0.97578h15.123v2.927h-0.97578c-0.26953 0-0.48789 0.21872-0.48789 0.48789m-2.927 14.147h-1.9512v-1.9516h0.48754c0.12947 0 0.25365-0.0511 0.34502-0.14287 0.0917-0.0914 0.14287-0.21555 0.14287-0.34502v-1.9512c0-0.12947-0.0512-0.2533-0.14287-0.34502-0.0914-0.0914-0.21555-0.14288-0.34502-0.14288h-7.8052c-0.26917 0-0.4879 0.21837-0.4879 0.4879v1.9512c0 0.12947 0.0515 0.25365 0.14288 0.34502 0.0917 0.0917 0.21555 0.14287 0.34502 0.14287h0.48789v1.9516h-1.9512v-15.611h10.732zm-8.2931-2.9274h-0.48789v-0.97543h6.8298v0.97543zm5.3661 2.9274h-4.8782v-1.9512h4.8782zm-9.2689-19.514h18.05v0.97578h-18.05zm0.48789 6.8298h-5.854v-0.97578h5.854zm0 12.684h-4.8782v-11.708h4.8782zm6.5599-24.021c-0.71402-0.40499-1.2555-1.0566-1.5236-1.8323 0.72038-0.02399 1.4393 0.07479 2.1266 0.2921 0.53058 0.17709 1.0248 0.5214 1.1155 1.7646-0.58279 0.06773-1.173-0.0092-1.7184-0.22437zm3.8386 0.1397c0.69074-0.20884 1.4217-0.2473 2.1304-0.11289-0.30445 0.71014-0.84349 1.294-1.5272 1.6531-0.54928 0.1965-1.1458 0.22013-1.7092 0.06773 0.0145-0.34466 0.12594-0.67839 0.32173-0.96273 0.19579-0.28469 0.46743-0.508 0.78423-0.64488zm11.554 12.173c0.12947 0 0.2533-0.05151 0.34502-0.14288 0.0914-0.09137 0.14287-0.2159 0.14287-0.34502v-1.9512c0-0.12947-0.0515-0.25365-0.14287-0.34502-0.0917-0.09172-0.21555-0.14288-0.34502-0.14288h-4.8786v-2.927h0.97578c0.12947 0 0.25365-0.05151 0.34502-0.14288 0.0914-0.09172 0.14287-0.2159 0.14287-0.34502v-1.9512c0-0.12947-0.0515-0.25365-0.14287-0.34502-0.0914-0.09172-0.21555-0.14288-0.34502-0.14288h-8.781l-3.5e-4 -0.79728c0.29139 0.05433 0.58702 0.08255 0.88371 0.08467 0.44379 0.01094 0.8837-0.08008 1.2866-0.26635 1.0894-0.57503 1.8895-1.5776 2.2084-2.7672 0.0565-0.24483-0.0829-0.49212-0.32138-0.5715-1.0552-0.31715-2.1802-0.31715-3.2357 0-0.3302 0.11042-0.63148 0.29351-0.88124 0.53587-0.0363-0.50024-0.22155-0.9779-0.53058-1.3727-0.30939-0.39476-0.72919-0.68827-1.2062-0.84314-1.0185-0.31891-2.093-0.41804-3.1528-0.2914-0.13194 0.01976-0.25012 0.09243-0.32703 0.20108-0.0769 0.10901-0.10618 0.24448-0.0804 0.37571 0.0176 0.08819 0.44485 2.1689 2.2119 3.0526 0.54468 0.24271 1.137 0.35983 1.7332 0.34255 0.15805 0 0.30374-0.0067 0.43498-0.01552l1e-3 2.3326h-9.2689c-0.26917 0-0.48754 0.21837-0.48754 0.48789v1.9512c0 0.12912 0.0512 0.25365 0.14288 0.34502 0.0914 0.09137 0.21555 0.14288 0.34466 0.14288h0.97579v2.927h-6.3419c-0.26917 0-0.48789 0.21837-0.48789 0.48789v1.9512c0 0.12912 0.0515 0.25365 0.14287 0.34502 0.0917 0.09137 0.2159 0.14288 0.34502 0.14288h0.48789v11.708h-0.48789c-0.26917 0-0.48789 0.21837-0.48789 0.48789 0 0.26917 0.21872 0.48754 0.48789 0.48754h28.295c0.26917 0 0.48789-0.21837 0.48789-0.48754 0-0.26952-0.21872-0.48789-0.48789-0.48789h-0.48789v-11.708zm-4.3907 5.854h0.97578v0.97579h-0.97578zm-0.48789 1.9512h1.9516c0.12947 0 0.2533-0.0515 0.34502-0.14288 0.0914-0.0914 0.14288-0.21555 0.14288-0.34501v-1.9512c0-0.12947-0.0515-0.25365-0.14288-0.34501-0.0917-0.0914-0.21555-0.14288-0.34502-0.14288h-1.9516c-0.26917 0-0.48754 0.21837-0.48754 0.48789v1.9512c0 0.12946 0.0512 0.25364 0.14287 0.34501 0.0914 0.0914 0.21555 0.14288 0.34467 0.14288m0.48789-5.854h0.97578v0.97579h-0.97578zm-0.48789 1.9512h1.9516c0.12947 0 0.2533-0.0512 0.34502-0.14288 0.0914-0.0914 0.14288-0.21555 0.14288-0.34466v-1.9516c0-0.12912-0.0515-0.25329-0.14288-0.34502-0.0917-0.09137-0.21555-0.14288-0.34502-0.14288h-1.9516c-0.26917 0-0.48754 0.21872-0.48754 0.48789v1.9516c0 0.12911 0.0512 0.25329 0.14287 0.34466 0.0914 0.0917 0.21555 0.14288 0.34467 0.14288m-20.001 1.9516h0.97578v0.97579h-0.97578zm-0.48789 1.9512h1.9516c0.12912 0 0.2533-0.0515 0.34467-0.14288 0.0917-0.0914 0.14287-0.21555 0.14287-0.34501v-1.9512c0-0.12947-0.0512-0.25365-0.14287-0.34501-0.0914-0.0914-0.21555-0.14288-0.34467-0.14288h-1.9516c-0.26917 0-0.48789 0.21837-0.48789 0.48789v1.9512c0 0.12946 0.0515 0.25364 0.14287 0.34501 0.0917 0.0914 0.2159 0.14288 0.34502 0.14288m0.48789-5.854h0.97578v0.97579h-0.97578zm-0.48789 1.9512h1.9516c0.12912 0 0.2533-0.0512 0.34467-0.14288 0.0917-0.0914 0.14287-0.21555 0.14287-0.34466v-1.9516c0-0.12912-0.0512-0.25329-0.14287-0.34502-0.0914-0.09137-0.21555-0.14288-0.34467-0.14288h-1.9516c-0.26917 0-0.48789 0.21872-0.48789 0.48789v1.9516c0 0.12911 0.0515 0.25329 0.14287 0.34466 0.0917 0.0917 0.2159 0.14288 0.34502 0.14288" fill="#f6f8f9"/>
 </g>
</svg>
