<svg xmlns="http://www.w3.org/2000/svg" width="187" height="71" viewBox="0 0 185 71"><path style="stroke:none;fill-rule:nonzero;fill:#000;fill-opacity:1" d="M10.297 28.18C4.324 28.18 0 24.05 0 17.43 0 10.813 4.23 6.676 10.297 6.676c5.945 0 10.133 4.047 10.133 10.418 0 .625-.035 1.25-.11 1.87H6.18c.21 2.755 1.851 4.005 3.855 4.005a3.306 3.306 0 0 0 3.25-2.02h6.621c-.953 4.086-4.562 7.23-9.61 7.23zM6.234 15.41h7.797c0-2.285-1.75-3.601-3.824-3.601-2.07 0-3.61 1.273-3.973 3.601zM31.96 28.18c-5.429 0-9.073-3.11-9.362-7.157h6.18c.144 1.465 1.421 2.434 3.136 2.434 1.602 0 2.438-.75 2.438-1.684 0-3.37-11.079-.937-11.079-8.613 0-3.558 2.95-6.484 8.27-6.484 5.32 0 8.172 3 8.566 7.12h-5.785c-.18-1.421-1.234-2.358-2.984-2.358-1.457 0-2.262.597-2.262 1.609 0 3.332 10.985.973 11.117 8.765.004 3.637-3.125 6.368-8.234 6.368zM45.012 12.297h-2.45V6.98h2.477V1.883h6.234V6.98h4.079v5.317h-4.106v8.39c0 1.239.508 1.762 1.895 1.762h2.222v5.426h-3.191c-4.227 0-7.18-1.828-7.18-7.266zM67.86 28.18c-5.973 0-10.297-4.13-10.297-10.75 0-6.617 4.222-10.754 10.296-10.754 6.075 0 10.133 4.047 10.133 10.418-.004.625-.035 1.25-.105 1.87H63.78c.219 2.755 1.86 4.005 3.864 4.005a3.301 3.301 0 0 0 3.242-2.02h6.629c-.98 4.086-4.582 7.23-9.657 7.23zm-4.016-12.77h7.797c0-2.285-1.75-3.601-3.825-3.601-2.07 0-3.636 1.273-3.972 3.601zM90.313 28.18c-5.977 0-10.297-4.13-10.297-10.75 0-6.617 4.23-10.754 10.296-10.754 5.938 0 10.133 4.047 10.133 10.418 0 .625-.035 1.25-.11 1.87H86.23c.22 2.755 1.86 4.005 3.864 4.005a3.298 3.298 0 0 0 3.27-2.02H100c-1.008 4.086-4.621 7.23-9.688 7.23zm-4.051-12.77h7.785c0-2.285-1.75-3.601-3.828-3.601-2.082 0-3.586 1.273-3.957 3.601zM131.75 16.531c0-2.754-1.531-4.234-3.898-4.234-2.372 0-3.903 1.5-3.903 4.234v11.344h-6.176V16.531c0-2.754-1.53-4.234-3.906-4.234-2.375 0-3.898 1.5-3.898 4.234v11.344h-6.235V6.98h6.235v2.622a7.112 7.112 0 0 1 5.945-2.848 7.539 7.539 0 0 1 6.926 3.894 8.123 8.123 0 0 1 6.863-3.894c5.027 0 8.238 3.293 8.238 8.945v12.176h-6.18zM151.355 28.18c-5.972 0-10.296-4.13-10.296-10.75 0-6.617 4.226-10.754 10.296-10.754 5.946 0 10.133 4.047 10.133 10.418 0 .625-.039 1.25-.11 1.87h-14.1c.214 2.755 1.855 4.005 3.859 4.005a3.298 3.298 0 0 0 3.246-2.02h6.633c-.985 4.086-4.594 7.23-9.66 7.23zm-4.042-12.77h7.832c0-2.285-1.75-3.601-3.825-3.601-2.074 0-3.644 1.273-4.007 3.601zM172.5 6.676a7.412 7.412 0 0 1 6.266 3.187V.16H185v27.715h-6.234v-2.992a6.979 6.979 0 0 1-6.266 3.297c-5 0-8.973-4.2-8.973-10.79 0-6.593 3.973-10.714 8.973-10.714zm1.816 5.582c-2.332 0-4.445 1.8-4.445 5.133 0 3.328 2.113 5.207 4.445 5.207 2.336 0 4.45-1.836 4.45-5.168 0-3.328-2.078-5.172-4.45-5.172zM88.445 40.39a8.519 8.519 0 0 1 7.75 4.669V33.496h2.528V60.91h-2.528v-4.52a8.188 8.188 0 0 1-7.785 4.817c-5.402 0-9.402-4.129-9.402-10.445 0-6.317 4-10.371 9.437-10.371zm.434 2.258c-4.117 0-7.317 2.965-7.317 8.114 0 5.144 3.176 8.187 7.317 8.187 4.035 0 7.316-3.11 7.316-8.148 0-5.035-3.28-8.153-7.316-8.153zM103.906 34.941c0-1.015.824-1.843 1.84-1.843a1.844 1.844 0 0 1 0 3.687 1.841 1.841 0 0 1-1.84-1.844zm.578 5.746h2.524V60.91h-2.524zM120.992 40.39c3.895 0 6.664 2.15 7.785 4.708v-4.41h2.528v20.746c0 5.664-3.79 9.406-9.192 9.406-5.09 0-8.617-2.672-9.414-6.883h2.492c.825 2.754 3.317 4.633 6.922 4.633 3.746 0 6.664-2.559 6.664-7.149V56.43a8.274 8.274 0 0 1-7.785 4.777c-5.41 0-9.406-4.129-9.406-10.445 0-6.317 3.996-10.371 9.406-10.371zm.469 2.258c-4.121 0-7.32 2.965-7.32 8.114 0 5.144 3.171 8.187 7.32 8.187 4.035 0 7.316-3.11 7.316-8.148 0-5.035-3.28-8.153-7.316-8.153zM136.484 34.941c0-1.015.825-1.843 1.84-1.843 1.02 0 1.84.828 1.84 1.843a1.839 1.839 0 1 1-3.68 0zm.578 5.746h2.528V60.91h-2.528zM146.043 42.871h-2.746v-2.184h2.746V35.61h2.555v5.078h5.406v2.184h-5.406v12.555c0 2.484.828 3.261 3.101 3.261h2.305v2.223H151.3c-3.434 0-5.258-1.445-5.258-5.504zM166.402 40.39c3.961 0 6.668 2.184 7.786 4.743v-4.446h2.519V60.91h-2.52v-4.48a8.288 8.288 0 0 1-7.824 4.777c-5.37 0-9.37-4.129-9.37-10.445 0-6.317 4-10.371 9.41-10.371zm.47 2.258c-4.122 0-7.321 2.965-7.321 8.114 0 5.144 3.172 8.187 7.32 8.187 4.035 0 7.316-3.11 7.316-8.148 0-5.035-3.253-8.153-7.316-8.153zM182.473 33.496H185V60.91h-2.527zM70.832 50.871l1.508 9.516-8.313-4.492-8.32 4.492 1.512-9.516-6.805-6.797 9.453-1.554 4.16-8.555 4.121 8.555 9.454 1.554zm0 0"/></svg>