<?xml version="1.0" encoding="UTF-8"?>
<!-- Created with Inkscape (http://www.inkscape.org/) -->
<svg width="86.597mm" height="14.986mm" version="1.1" viewBox="0 0 86.597 14.986" xmlns="http://www.w3.org/2000/svg">
 <defs>
  <clipPath id="clipPath259">
   <path d="m0 4006h875v-4006h-875z"/>
  </clipPath>
 </defs>
 <g transform="translate(-19.596 -14.52)">
  <g transform="matrix(.35278 0 0 -.35278 6.1903 1420.5)">
   <g clip-path="url(#clipPath259)">
    <g>
     <path d="m76.29 3947.1h-38.29v38.352h38.29z" fill="#282827"/>
     <path d="m73.992 3949.4h-10.659v10.659h10.659z" fill="#fff"/>
     <path d="m68.769 3954.7h-5.464v5.464h5.464z" fill="#282827"/>
     <path d="m40.256 3983.3h10.659v-10.66h-10.659z" fill="#fff"/>
     <path d="m45.48 3978.1h5.464v-5.464h-5.464z" fill="#282827"/>
     <path d="m74.007 3972.7h-10.659v10.659h10.659z" fill="#fff"/>
     <path d="m68.783 3972.7h-5.464v5.464h5.464z" fill="#282827"/>
    </g>
    <g transform="translate(40.242 3949.4)">
     <path d="m0 0v10.659h10.659v-10.659z" fill="#fff"/>
    </g>
    <g transform="translate(45.466 3954.7)">
     <path d="m0 0v5.464h5.464v-5.464z" fill="#282827"/>
    </g>
   </g>
   <text transform="matrix(1 0 0 -1 47.45 3959.6)" fill="#ffffff" font-family="'Poppins SemiBold'" font-size="18.59px" font-weight="600" xml:space="preserve"><tspan x="0" y="0">W</tspan></text>
   <g fill="#282827">
    <text transform="matrix(1 0 0 -1 85.124 3956.8)" font-family="'Poppins SemiBold'" font-size="28.529px" font-weight="600" xml:space="preserve"><tspan x="0 29.213594 51.60878 69.895805" y="0">WORK</tspan></text>
    <text transform="matrix(1 0 0 -1 173.93 3956.8)" font-family="'Poppins ExtraLight'" font-size="28.529px" font-weight="200" xml:space="preserve"><tspan x="0 11.639791 34.177624 52.578762 71.607536 94.059784" y="0">LOUNGE</tspan></text>
    <text transform="matrix(1 0 0 -1 220.25 3945)" font-family="'Poppins SemiBold'" font-size="9.1292px" font-weight="600" xml:space="preserve"><tspan x="0 6.1895976 11.712764 13.885513 19.51823 24.493643 28.035772 33.668491 39.301205 48.868607 54.501324" y="0">by esteemed</tspan></text>
   </g>
  </g>
 </g>
</svg>
