<?xml version="1.0" encoding="UTF-8"?>
<svg width="752pt" height="752pt" version="1.1" viewBox="0 0 752 752" xmlns="http://www.w3.org/2000/svg">
 <path d="m494.3 279.34c-8.6289-9.375-17.492-9.6836-42.406-9.6836h-67.898c-5.0664 0-8.8906 1.0195-11.508 2.1367-2.6094 1.1133-3.793 2.2148-3.9141 2.3242-0.007813 0.007812-0.011719 0.011718-0.007813 0.011718-0.085937 0.097656-0.17187 0.19531-0.26172 0.28906l-54.336 58.055c-0.15625 0.16797-0.32031 0.33203-0.49219 0.48828-1.4375 1.3203-3.1289 3.7734-3.5742 6.2812-0.32422 1.8242-0.20312 4.5 3.5742 7.9727 3.9336 3.6133 7.0938 3.875 9.3359 3.5195 2.7656-0.4375 5.207-2.0391 6.3828-3.2266 0.27344-0.27344 0.5625-0.53125 0.86719-0.76953l31.664-24.75c6.0273-4.7109 13.5-7.2773 21.199-7.2773h22.062c10.871 0 21.09 5.1016 27.504 13.73l53.508 71.984c2.1172 2.7891 4.5938 7.2305 5.7422 12.531h26.227l1.8203-118.19-11.793-5.1445c-5.8125-2.5391-10.27-6.5664-13.695-10.285zm26.477-4.1328-5.2461-2.2891c-2.4258-1.0586-4.8281-2.9922-7.4531-5.8438-14.496-15.75-31.848-15.727-53.395-15.695h-2.7891-67.898c-11.855 0-20.773 3.7461-26.086 7.7148h-70.215c-0.17578 0-0.34766 0.003906-0.52344 0.015625-11.137 0.61328-19.371 2.9258-25.207 7.9414-1.5547 1.3398-3.1211 2.7812-4.5312 4.082-0.48438 0.44531-0.95312 0.875-1.3945 1.2773-1.8398 1.6797-3.4414 3.0781-5.0078 4.2344-3.0664 2.2617-5.3984 3.1523-7.8203 3.1523h-8.6172c-3.2734-6.043-9.7031-10.191-17.148-10.309l-6.4844-0.10156c-5.1328-0.078125-9.3594 3.9453-9.4375 8.9922-0.082032 5.0469 4.0117 9.1992 9.1406 9.2812l6.4883 0.10156c0.65234 0.007812 1.1758 0.53125 1.1758 1.1719v130.49c0 1.3047-0.13281 2.3555-0.33203 3.1523-0.17969 0.73828-0.38672 1.1367-0.49609 1.3008-0.10547 0.023438-0.28125 0.042969-0.55469 0.042969h-6.1328c-5.1328 0-9.293 4.0898-9.293 9.1367 0 5.0469 4.1602 9.1367 9.293 9.1367h6.1328c6.7656 0 12.367-2.9102 15.887-7.9805 1.2305-1.7773 2.1211-3.6953 2.75-5.6523h23.711c4.6016 0 8.9609 2.0117 11.906 5.4883l48.406 57.227c6.3086 8.1367 15.484 9.5938 22.004 9.3242 6.5508-0.26953 12.137-2.2773 13.992-3.0039 0.69922-0.27344 1.4062-0.59766 2.1367-1.0039 1.7305-0.96484 6.6719-3.9375 10.48-9.0195 0.83984-1.1211 1.625-2.3555 2.3125-3.6914 8.5859 3.1445 17.785 2.7227 25.488-0.73438 6.2617-2.8086 11.656-7.6992 14.605-14.355 0.61719-1.3906 1.1133-2.8281 1.4883-4.3047 0.48437 0.125 0.97266 0.24219 1.457 0.34766 7.1445 1.5664 16.488 1.6836 24.492-3.3906 5.4883-3.4766 10.645-7.5547 13.824-12.711 0.48047-0.78125 0.91016-1.5742 1.2852-2.3828 7.8125 1.5742 17.488 0.85547 27.156-5.8086 3.9141-2.6992 6.8203-5.8633 8.793-9.3086h28.746v1c-0.023438 0.27344-0.039063 0.54688-0.039063 0.82422 0 5.0469 4.1602 9.1367 9.293 9.1367h14.062c5.1328 0 9.293-4.0898 9.293-9.1367 0-5.0469-4.1602-9.1367-9.293-9.1367h-4.7344v-4.1758l2.1719-130.66v-1.3672l2.7695-0.058594c5.1328-0.11719 9.1992-4.2969 9.082-9.3438-0.11719-5.043-4.3672-9.043-9.5-8.9297l-11.852 0.26562c-3.7539 0.082031-6.9531 2.3477-8.3438 5.5547zm-69.305 151.2c3.2383 2.0352 10.605 4.3906 18.188-0.83594 2.9023-2 3.7227-3.8672 4-5.25 0.27734-1.3711 0.14453-3-0.41797-4.7656-0.56641-1.7812-1.4492-3.3047-2.1484-4.2266l-0.066406-0.082031-53.535-72.023c-2.918-3.9219-7.5625-6.2383-12.504-6.2383h-22.062c-3.5 0-6.8984 1.1641-9.6367 3.3047l-31.258 24.434c-3.4453 3.3008-9.1602 6.9297-16.277 8.0547-7.9688 1.2539-16.883-0.78516-24.965-8.2148-8.2383-7.5703-10.621-16.398-9.1953-24.461 1.2734-7.1953 5.4023-12.91 8.9141-16.234l39.777-42.504h-52.32c-9.3047 0.54687-12.527 2.375-13.766 3.4414-1.3008 1.1172-2.5195 2.2383-3.8516 3.4688-0.53516 0.49219-1.0859 1-1.668 1.5312-1.9375 1.7656-4.1172 3.6992-6.4922 5.4531-4.8242 3.5586-11.023 6.8125-18.977 6.8125h-6.3008v112.21h22.383c10.121 0 19.719 4.4258 26.191 12.078l48.547 57.391c0.10547 0.125 0.20703 0.25391 0.30469 0.38281 1.1445 1.5039 3.0312 2.3477 6.4922 2.207 3.4297-0.14453 6.6992-1.2617 7.8438-1.7031 0.91406-0.51953 3.1094-1.9375 4.5859-3.9062 0.69922-0.93359 1.0703-1.7773 1.2109-2.5352 0.09375-0.51172 0.125-1.2148-0.13672-2.1914l-9.957-12.652c-3.1406-3.9883-2.3984-9.7266 1.6602-12.816 4.0586-3.0898 9.8945-2.3594 13.035 1.6328l10.695 13.59c5.8984 6.4688 13.48 7.0312 18.539 4.7617 2.5625-1.1484 4.3633-2.9492 5.2852-5.0352 0.79297-1.7852 1.1953-4.3438 0.19141-7.8242l-13.562-16.992c-3.168-3.9727-2.4609-9.7148 1.5742-12.832 4.0391-3.1133 9.8789-2.4219 13.047 1.5469l14.23 17.836c1.0859 0.96094 4.2266 2.8281 8.5469 3.7773 4.5078 0.98828 8.1367 0.50391 10.379-0.91406 4.7617-3.0195 7.0391-5.2656 8-6.8242 0.40625-0.66016 0.50391-1.0859 0.53125-1.3672 0.015625-0.14062 0.019531-0.34766-0.019531-0.63672l-18.77-23.762c-3.1445-3.9883-2.4141-9.7266 1.6406-12.824 4.0508-3.0938 9.8906-2.375 13.035 1.6133zm-233.84-2.5664s-0.007812 0.003906-0.019531 0.007812z" fill-rule="evenodd"/>
</svg>
