<svg xmlns="http://www.w3.org/2000/svg" xmlns:xlink="http://www.w3.org/1999/xlink" viewBox="0 0 196 211" xmlns:v="https://vecta.io/nano"><defs><clipPath id="A"><path d="M77.36 91.38c-11.8 0-22.08 4.28-27.49 10.61 5.41 6.33 15.69 10.61 27.49 10.61s22.09-4.28 27.49-10.61c-5.4-6.33-15.69-10.61-27.49-10.61z" fill="#fff"/></clipPath><path id="B" d="M86.85 106.28a1.78 1.78 0 1 1-.34-2.49 1.78 1.78 0 0 1 .34 2.49z"/></defs><path d="M108.82,81.33a29.15,29.15,0,0,0-45.28,5.1,26.49,26.49,0,0,1,3.18-1.63,26,26,0,0,1,4.88-1.59,22.71,22.71,0,0,1,2.72-.46,23.71,23.71,0,1,1,.14,38.5,25.06,25.06,0,0,1-2.73-.45,26.39,26.39,0,0,1-4.9-1.57,27.81,27.81,0,0,1-3.18-1.6A29.11,29.11,0,0,0,88.21,131.1,28.82,28.82,0,0,0,106,125a27.66,27.66,0,0,0,2.84-2.49,29.13,29.13,0,0,0-.05-41.18Z" fill="none" stroke="#000" stroke-miterlimit="10"/><g fill="#fff"><use xlink:href="#B" opacity=".2"/><path d="M85 100.8a3.9 3.9 0 1 1 5.47-.74 3.9 3.9 0 0 1-5.47.74zm-6.72 20.59a21.39 21.39 0 0 0 3.06 2.34 22.06 22.06 0 0 1-5.11-2.34h1.13zm22.19-38.71a22.9 22.9 0 0 0-6.88-1.05h0a22.67 22.67 0 0 0-9.11 1.91 26.15 26.15 0 0 0-7.09-1h-1.28a22.64 22.64 0 0 1 12.09-3.5h0a22.61 22.61 0 0 1 12.27 3.64z" opacity=".2"/></g><path d="M71.6 83.21a26 26 0 0 0-4.88 1.59 25.17 25.17 0 0 1 2-2.26 27.32 27.32 0 0 1 19.42-8.1h0v2.45a24.81 24.81 0 0 0-16.54 6.32zM88.22 127v2.45a27.45 27.45 0 0 1-21.38-10.22 26.39 26.39 0 0 0 4.9 1.57 24.89 24.89 0 0 0 16.47 6.2z"/><path d="M115 123.49l-4.64-4.76a3.67 3.67 0 0 0-2.6-1.09l-1.76 1.94a26.61 26.61 0 0 1-2 1.82 3.68 3.68 0 0 0 1.08 2.6l4.66 4.79c1.55 1.61 3.27 1 4.74-.53h0c1.52-1.51 1.99-3.26.52-4.77z" fill="none" stroke="#000" stroke-miterlimit="10"/><path d="M107.889 130.047l8.423-8.42 26.272 26.281-8.423 8.42z" fill="#484f59"/><path d="M112.156 125.764l3.478-3.48 26.285 26.267-3.478 3.48z" fill="#30363d"/><path d="M107.894 130.036l8.42-8.423 2.023 2.022-8.42 8.423z" fill="#e5e8ec"/><path d="M112.261 126.581l3.72-3.719 1.393 1.393-3.72 3.719z" fill="#cdd5d7"/><path d="M144.61 149.92a8.42 8.42 0 0 1-8.42 8.42l-2-2 8.42-8.42 2 2z" fill="#e5e8ec"/><path d="M138.336 152.647l3.721-3.718 1.739 1.74-3.721 3.718z" fill="#cdd5d7"/><path d="M84.45 83.54a26.15 26.15 0 0 0-7.09-1h-1.28c-.42 0-1.07.07-1.6.13h-.16a22.71 22.71 0 0 0-2.72.46 26 26 0 0 0-4.88 1.59 26.49 26.49 0 0 0-3.18 1.63A35 35 0 0 0 49.88 102a35 35 0 0 0 13.77 15.63 27.81 27.81 0 0 0 3.18 1.6 26.39 26.39 0 0 0 4.9 1.57 25.06 25.06 0 0 0 2.73.45h.17c.53 0 1.06.09 1.6.12h1.13.92c11.42-.37 21.31-8.09 26.58-19.37-4.29-9.2-11.65-16-20.41-18.46zm2.4 22.74a1.78 1.78 0 1 1-.34-2.49 1.78 1.78 0 0 1 .34 2.49zm3.57-6.22a3.9 3.9 0 1 1-.74-5.47 3.91 3.91 0 0 1 .74 5.47z" stroke="#000" stroke-miterlimit="10" fill="#acb9c4"/><g fill="#f0ca67"><use xlink:href="#B"/><path d="M90.42 100.06a3.9 3.9 0 1 1-.74-5.47 3.91 3.91 0 0 1 .74 5.47z"/></g><path d="M77.36 91.38c-11.8 0-22.08 4.28-27.49 10.61 5.41 6.33 15.69 10.61 27.49 10.61s22.09-4.28 27.49-10.61c-5.4-6.33-15.69-10.61-27.49-10.61z" fill="#fff"/><g clip-path="url(#A)"><path d="M94.89,102A17.53,17.53,0,1,1,77.36,84.46,17.53,17.53,0,0,1,94.89,102Z" fill="#4389c8"/><path d="M87.62,102A10.26,10.26,0,1,1,77.36,91.73,10.26,10.26,0,0,1,87.62,102Z" fill="#10303f"/></g><g fill="#fff"><path d="M90.42 100.06a3.9 3.9 0 1 1-.74-5.47 3.91 3.91 0 0 1 .74 5.47z"/><use xlink:href="#B"/></g></svg>