<svg xmlns="http://www.w3.org/2000/svg" viewBox="0 0 279 279" xmlns:v="https://vecta.io/nano"><path d="M223.88 142.88a5.91 5.91 0 0 0-6.22-4.52l-23.18.64a276 276 0 0 1 23.8-60.9c3.22-6-3.29-11.49-8.21-9.84a7.19 7.19 0 0 0-3.06-.18 59.21 59.21 0 0 0-29.66 13.45c2.87-21.91 11.28-42.53 20.54-62.73 3.22-7-5.85-13.28-10.33-8.72a6.9 6.9 0 0 0-2.31 1.52A235.29 235.29 0 0 0 133 88.3 115.76 115.76 0 0 0 76.88 36c-6-2.67-11.49 3.58-10.07 8.21A6.82 6.82 0 0 0 68.44 48a165.92 165.92 0 0 1 26.74 44.48c-9-6.49-19.42-10.14-30.84-8.69a7 7 0 0 0-3.53 1.48c-5.23.54-9.46 7-4.41 11.16 6.91 5.72 10 13.66 13.56 21.67q4.89 11.09 9.75 22.18H66.1c-4.54 0-6.66 3.59-6.48 7.09a6 6 0 0 0-.43 3.24A261.09 261.09 0 0 0 65 182.1a6 6 0 0 0 5.66 4.79 7.06 7.06 0 0 0 1.78.27h2.8Q82.1 225.79 90.91 264c1 4.24 4.75 5.46 8 4.54a7.14 7.14 0 0 0 2.25.52 565.11 565.11 0 0 0 78.29-.89 6.65 6.65 0 0 0 4.38-2c3.31 1 7.42-.06 8.81-4.29a352.83 352.83 0 0 0 15.86-76.79l1.5-.09a6.59 6.59 0 0 0 4.31-1.79 6.09 6.09 0 0 0 5-4.66 209.2 209.2 0 0 0 5.83-31.09 5.52 5.52 0 0 0-1.26-4.58zm-16.66 28.73q-65.16 3.07-130.39 2.09c-1.52-6.59-2.77-13.24-3.7-19.94q69 .39 138-1.73a186.21 186.21 0 0 1-3.91 19.58zm-6.84-87.88a290.08 290.08 0 0 0-19.91 55.65l-24.27.43c9.07-22.81 20.74-47.37 44.18-56.08zm-58.35 18a218.72 218.72 0 0 1 29.78-54.37c-5.39 16-9 32.43-9 49.72v.45c-6.93 9.85-12.39 21.14-17.09 32.35a119.92 119.92 0 0 0-5.72-25.25 6.87 6.87 0 0 0 2-2.87zm-9 38.37h-5.58a109.32 109.32 0 0 0-14.85-29.66 6 6 0 0 0 1.11-5.82A182.85 182.85 0 0 0 95.6 63.29c22.7 18.71 36.4 45.99 37.45 76.84zm-39.19-1c-5.51-12.53-10.17-28.67-18.28-41.1 17.91 4.54 31.24 24.86 37.68 42.29q-9.49 0-19 0a6.82 6.82 0 0 0-.38-1.13zm86.89 115.53a6.88 6.88 0 0 0-1.29 0 566 566 0 0 1-76.6 1q-7.76-34-14-68.34 53.05.49 106.07-1.7a336.36 336.36 0 0 1-14.16 69.1z" fill="#4389c8"/></svg>