<svg xmlns="http://www.w3.org/2000/svg" xmlns:xlink="http://www.w3.org/1999/xlink" viewBox="0 0 175 194" xmlns:v="https://vecta.io/nano"><g fill="none" stroke="#080717" stroke-miterlimit="10"><path d="M65.93 89a1.05 1.05 0 0 0-1.47.08l-4.85 5.43a1 1 0 0 0 .08 1.49l3.47 3.1a1 1 0 0 1-.07-1.45L68 92.18a1 1 0 0 1 1.43-.11zm3.49 3.12h0L65.93 89a1.05 1.05 0 0 0-1.47.08l-4.85 5.43a1 1 0 0 0 .08 1.49l3.47 3.1h0l1.33 1.19h0a23.11 23.11 0 0 1 6.24-7zm.67-16l-1.16-.25h0a40 40 0 0 0-22.58 25.45l-.12.45c0 .12-.07.24-.1.36l-.28 1.09-.24 1.09v.13a.3.3 0 0 0 0 .1c0 .2-.08.41-.12.62l-.19 1.13c0 .22-.07.44-.09.66l-.22 2v.66c0 .22-.05.7-.06 1v.42 1.31a39.69 39.69 0 0 0 .44 5.9l1 1a38.94 38.94 0 0 1 23.91-43.1zm54.59 29.66c0-.21-.07-.41-.11-.61l-.74 1-6.37 8.62-11.19 15.2a6.65 6.65 0 0 0-.59-.46l-.25-.17 12.09-18.34h0l5.58-8.46.63-1h0c0-.19-.1-.38-.16-.56a40.15 40.15 0 0 0-38-28.46A39.78 39.78 0 0 1 123 102l-5.47 8.3-12.44 18.87h0l-.06.1a2.34 2.34 0 0 0-.47-.05l.34.23a6 6 0 0 0-4.09-.34 22.68 22.68 0 0 0 1.37-1.4 23.39 23.39 0 0 0-31.44-34.42l-1.32-1.19h0L65.93 89a1.05 1.05 0 0 0-1.47.08l-4.85 5.43a1 1 0 0 0 .08 1.49l3.47 3.1h0l1.33 1.19a23.38 23.38 0 0 0 31.84 32.07l-.27.46c-1.85 3.27-3 8.56-1.26 10.9a2.41 2.41 0 0 0 .57.58c2.68 1.75 7.87-1.47 10.54-4.61a7.81 7.81 0 0 0 1.83-3.88 32.84 32.84 0 0 0 9.63-20.14l6.54-8.86a38.81 38.81 0 0 1 .39 5.53 39.76 39.76 0 0 1-38.73 39.75 40 40 0 0 0 39.64-39.75 40.39 40.39 0 0 0-.53-6.57zm-17.86 30.9a7.2 7.2 0 0 1-1.43 2.55c-2.75 3.23-7.59 5.9-9.73 4.5a1.37 1.37 0 0 1-.25-.23h0c-1.13-1.19-1.12-3.92-.38-6.64-.11 1.79.21 3.31 1.13 4 2.14 1.4 7-1.27 9.73-4.5a7.36 7.36 0 0 0 1.27-2.08 6.39 6.39 0 0 1-.32 2.41zM80.23 79.59h0l1.58.77-1.58-.77zM53.67 124c.24.66.51 1.32.8 2l-.8-2zm12.26-35a1.05 1.05 0 0 0-1.47.08l-4.85 5.43a1 1 0 0 0 .08 1.49l3.47 3.1a1 1 0 0 1-.07-1.45L68 92.18a1 1 0 0 1 1.43-.11z"/><path d="M65.93 89a1.05 1.05 0 0 0-1.47.08l-4.85 5.43a1 1 0 0 0 .08 1.49l3.47 3.1a1 1 0 0 1-.07-1.45L68 92.18a1 1 0 0 1 1.43-.11zm3.49 3.12h0L65.93 89a1.05 1.05 0 0 0-1.47.08l-4.85 5.43a1 1 0 0 0 .08 1.49l3.47 3.1h0l1.33 1.19h0a23.11 23.11 0 0 1 6.24-7zM84 72.56a39.58 39.58 0 0 0-15.19 3.26h0l-2.59 1.24-1.18.63-1 .61-.72.45-1.45 1-1.32 1-.6.47-2.1 1.78q-.56.5-1.08 1l-1 1-.29.32-.88 1a.05.05 0 0 0 0 0l-1 1.21-.69.89-.41.54-1.67 2.49-1.42 2.49-1.24 2.59-.47 1.13-.2.53-.38 1-.3.9-.24.77a3.17 3.17 0 0 0-.12.44l-.12.45c0 .12-.07.24-.1.36l-.11.39-.1.39a2.82 2.82 0 0 0-.07.31l-.15.64v.08.16a0 0 0 0 0 0 0v.14a.51.51 0 0 0 0 .13.3.3 0 0 0 0 .1c0 .2-.08.41-.12.62l-.19 1.13c0 .22-.07.44-.09.66l-.22 2v.66c0 .22-.05.7-.06 1v.42 1.31a39.69 39.69 0 0 0 .44 5.9l1 1a38.94 38.94 0 0 1 23.91-43.1l-1.16-.25A40.4 40.4 0 0 1 84 72.56zm39.87 33.6l-6.37 8.62-11.19 15.2a6.65 6.65 0 0 0-.59-.46l-.25-.17 12.09-18.34h0l5.58-8.46-.14-.55-5.47 8.3-12.44 18.87h0l-.06.1a2.34 2.34 0 0 0-.47-.05l.34.23a6 6 0 0 0-4.09-.34 22.68 22.68 0 0 0 1.37-1.4 23.39 23.39 0 0 0-31.44-34.42l-1.32-1.19h0L65.93 89a1.05 1.05 0 0 0-1.47.08l-4.85 5.43a1 1 0 0 0 .08 1.49l3.47 3.1h0l1.33 1.19a23.38 23.38 0 0 0 31.84 32.07l-.27.46c-1.85 3.27-3 8.56-1.26 10.9a2.41 2.41 0 0 0 .57.58c2.68 1.75 7.87-1.47 10.54-4.61a7.81 7.81 0 0 0 1.83-3.88 32.84 32.84 0 0 0 9.63-20.14l6.54-8.86q-.02-.33-.08-.65zm-17 30.51a7.2 7.2 0 0 1-1.43 2.55c-2.75 3.23-7.59 5.9-9.73 4.5a1.37 1.37 0 0 1-.25-.23h0c-1.13-1.19-1.12-3.92-.38-6.64-.11 1.79.21 3.31 1.13 4 2.14 1.4 7-1.27 9.73-4.5a7.36 7.36 0 0 0 1.27-2.08 6.39 6.39 0 0 1-.32 2.41zM80.23 79.59h0l1.58.77-1.58-.77zM46.84 125A39.76 39.76 0 0 0 84 152.07 40.23 40.23 0 0 1 46.84 125zm6.83-1c.24.66.51 1.32.8 2l-.8-2zm12.26-35a1.05 1.05 0 0 0-1.47.08l-4.85 5.43a1 1 0 0 0 .08 1.49l3.47 3.1a1 1 0 0 1-.07-1.45L68 92.18a1 1 0 0 1 1.43-.11z"/><path d="M117.48 110.26l-12.44 18.87h0l-.06.1a2.34 2.34 0 0 0-.47-.05l.34.23a6 6 0 0 0-4.09-.34 22.68 22.68 0 0 0 1.37-1.4 23.39 23.39 0 0 0-31.39-34.38l-1.32-1.19h0L65.93 89a1.05 1.05 0 0 0-1.47.08l-4.85 5.43a1 1 0 0 0 .08 1.49l3.47 3.1h0l1.33 1.19a23.38 23.38 0 0 0 31.84 32.07l-.27.46c-1.85 3.27-3 8.56-1.26 10.9a33.09 33.09 0 0 1-40.34-17.76 25.42 25.42 0 0 1-.83-2l-.7-2-.24-.81c-.15-.55-.28-1.1-.41-1.65l-.17-.84c-.06-.28-.12-.64-.17-1a25.67 25.67 0 0 1-.24-1.76q0-.32-.06-.63a29.24 29.24 0 0 1-.14-3v-1.56c0-.33 0-.66.06-1a.81.81 0 0 1 0-.16l.06-.65h0c0-.4.09-.79.14-1.18v-.18q.07-.56.18-1.11c0-.17.06-.35.1-.53.06-.36.14-.72.22-1.08.14-.59.29-1.18.46-1.76l.37-1.2.06-.18c.15-.44.31-.87.48-1.3a1.8 1.8 0 0 1 .08-.21c.15-.39.31-.78.48-1.16l.48-1q.43-.9.93-1.77c.19-.35.39-.7.6-1l.09-.14a25.48 25.48 0 0 1 .7-1.1l.07-.1c.24-.35.48-.7.74-1a30.13 30.13 0 0 1 1.67-2.1 14.85 14.85 0 0 1 .53-.59c.18-.19.35-.39.54-.58l.46-.48.25-.24c.32-.33.65-.64 1-.94a32.74 32.74 0 0 1 4.4-3.38c.29-.19.58-.37.88-.54.51-.3 1-.59 1.54-.87l.66-.33c.28-.15.56-.28.84-.41l1.15-.5c.36-.16.74-.31 1.11-.45l1-.36.77-.25 1-.31c.48-.13 1-.25 1.46-.36s1-.21 1.46-.3h0c.5-.09 1-.16 1.51-.23l1.58.77c-.52-.27-1-.53-1.58-.78a34.32 34.32 0 0 1 4.32-.28 33 33 0 0 1 33.13 30.87z"/><path d="M81.81 80.37l-1.58-.77h0l1.58.77zM117.52 111l-12.09 18.34.25.17a6.65 6.65 0 0 1 .59.46l11.19-15.2c0 .29 0 .58-.08.87a32.84 32.84 0 0 1-9.63 20.14 25.67 25.67 0 0 1-.92.88 6.39 6.39 0 0 0 .32-2.41 7.36 7.36 0 0 1-1.27 2.08c-2.75 3.23-7.59 5.9-9.73 4.5-.92-.68-1.24-2.2-1.13-4-.74 2.72-.75 5.45.38 6.64l-.59.21c-1.78-2.34-.59-7.63 1.26-10.9l.27-.46a23.38 23.38 0 0 1-31.84-32.05l-1.33-1.19h0L59.69 96a1 1 0 0 1-.08-1.47l4.85-5.43a1.05 1.05 0 0 1 1.47-.1l3.45 3.09h0l1.32 1.19a23.39 23.39 0 0 1 31.38 34.37c-.44.49-.9 1-1.37 1.4a6 6 0 0 1 4.09.34l-.34-.23a2.34 2.34 0 0 1 .47.05l.06-.1h0l12.44-18.87v.74z"/><path d="M124.31 112.32a39.76 39.76 0 0 1-38.73 39.75H84A40.23 40.23 0 0 1 46.84 125c-.35-1-.66-2.08-.92-3.15l-.37-1.68-.31-1.76a1 1 0 0 1 0-.16l1 1a38.94 38.94 0 0 1 23.91-43.1l-1.16-.25a40.4 40.4 0 0 1 15-3.3h1.62A39.78 39.78 0 0 1 123 102l-5.47 8.3a33 33 0 0 0-32.98-30.99 34.32 34.32 0 0 0-4.32.28h0l-1.51.23h0l-1.46.3-1.46.36-1 .31-.77.25-1 .36-1.11.45-1.15.5-.84.41-.66.33-1.54.87-.88.54a32.74 32.74 0 0 0-4.4 3.38l-1 .94-.25.24-.46.48-.54.58-.53.59-1.67 2.1-.74 1-.07.1-.7 1.1-.09.14-.6 1q-.49.87-.93 1.77l-.48 1-.48 1.16a1.8 1.8 0 0 0-.08.21l-.48 1.3-.06.18-.37 1.2-.46 1.76-.22 1.08c0 .18-.07.36-.1.53q-.11.55-.18 1.11v.18l-.14 1.18h0l-.06.65a.81.81 0 0 0 0 .16c0 .32 0 .65-.06 1v1.56a29.24 29.24 0 0 0 .14 3q0 .31.06.63l.24 1.76.17 1 .17.84.41 1.65.24.81.7 2 .8 2a33.09 33.09 0 0 0 40.18 17.83 2.41 2.41 0 0 0 .57.58c2.68 1.75 7.87-1.47 10.54-4.61a7.81 7.81 0 0 0 1.83-3.88 32.84 32.84 0 0 0 9.63-20.14l6.54-8.86a38.81 38.81 0 0 1 .39 5.53z"/><path d="M81.81 80.37l-1.58-.77h0l1.58.77z"/><use xlink:href="#B"/><use xlink:href="#B"/><path d="M130 98.57l-5.28 7.2-.76 1-6.54 8.86-11 14.9a.8.8 0 0 1 .08.16c.05.09.09.18.13.27l-1.91-1.33a2.42 2.42 0 0 1 .48.06h0l.21-.32.25.17a6.65 6.65 0 0 1 .59.46l11.19-15.2 6.37-8.62.74-1 5-6.86c.67-.9 1-2.48.34-3.18a.78.78 0 0 1 .2.11c.91.56.6 2.35-.09 3.32z"/><path d="M106.49 130.71l-.41-.44h0a1.62 1.62 0 0 0 .13-.19l.07-.09a6.65 6.65 0 0 0-.59-.46l-.25-.17-.39-.22h0l-.06.1-.12.19h0a6 6 0 0 0-4.09-.34 6.6 6.6 0 0 0-1.4.53 7.47 7.47 0 0 0-2 1.53h0a8 8 0 0 0-.94 1.2l-.27.46c-1.85 3.27-3 8.56-1.26 10.9a2.41 2.41 0 0 0 .57.58c2.68 1.75 7.87-1.47 10.54-4.61a7.81 7.81 0 0 0 1.83-3.88 6.31 6.31 0 0 0-1.36-5.09zm.33 6a7.2 7.2 0 0 1-1.43 2.55c-2.75 3.23-7.59 5.9-9.73 4.5a1.37 1.37 0 0 1-.25-.23h0c-1.13-1.19-1.12-3.92-.38-6.64-.11 1.79.21 3.31 1.13 4 2.14 1.4 7-1.27 9.73-4.5a7.36 7.36 0 0 0 1.27-2.08 6.39 6.39 0 0 1-.32 2.41z"/><path d="M129.6 98.3l-5 6.86-.74 1-6.37 8.62-11.19 15.2a6.65 6.65 0 0 0-.59-.46l-.25-.17 12.09-18.34h0l5.58-8.46.63-1h0l3.33-5c.62-1 2-1.81 2.88-1.44.61.71.3 2.29-.37 3.19z"/><path d="M129.94 95.12c-.87-.37-2.26.49-2.88 1.44l-3.33 5h0l-.63 1-5.58 8.46h0l-12.09 18.34.25.17a6.65 6.65 0 0 1 .59.46l-.07.09a2.46 2.46 0 0 1 .21.43l-.33-.23h0l-.85-.59-.37-.26h0l-.34-.23a2.34 2.34 0 0 1 .47.05h0l.06-.09 12.44-18.87 5.47-8.3.62-.94 3.14-4.74c.66-1 2.22-1.91 3.06-1.31a.8.8 0 0 1 .16.12zm-23.11 41.55h0a7.2 7.2 0 0 1-1.43 2.55c-2.75 3.23-7.59 5.9-9.73 4.5a1.37 1.37 0 0 1-.25-.23h0c-1.13-1.19-1.12-3.92-.38-6.64-.11 1.79.21 3.31 1.13 4 2.14 1.4 7-1.27 9.73-4.5a7.36 7.36 0 0 0 1.27-2.08 6.39 6.39 0 0 1-.34 2.4zM105 130.3a4.89 4.89 0 0 1 .95 1 4.38 4.38 0 0 0-.7-.66 5.6 5.6 0 0 0-4.43-.68 7.41 7.41 0 0 0-4.59 3.66l-.28.54.52-1a7 7 0 0 1 4.34-3.46 5.31 5.31 0 0 1 4.19.6z"/></g><path d="M69.38 92.07a1 1 0 0 0-1.43.11l-4.86 5.43a1 1 0 0 0 .07 1.45L59.69 96a1 1 0 0 1-.08-1.47l4.85-5.43a1.05 1.05 0 0 1 1.47-.1z" fill="#4389c8"/><path d="M75.3 98.77l-.51.57h0l-4.33 4.84a1 1 0 0 1-1.2.25 1 1 0 0 1-.25-.16l-1.13-1h0l-1.15-1-.84-.76-.4-.35h0l-.58-.51h0a22.35 22.35 0 0 1 2.76-3.81 23 23 0 0 1 3.48-3.16l.58.52.39.35h0l.26.23.46.4h0l.12.1 1.15 1 1.11 1a1 1 0 0 1 .08 1.49z" fill="#ffa38f"/><path d="M70.74 93.29a23.11 23.11 0 0 0-6.24 7l-1.33-1.18h0a1 1 0 0 1-.07-1.45l4.9-5.48a1 1 0 0 1 1.43-.11h0z" fill="#4389c8"/><g fill="#ff876c"><path d="M64.5 100.26v.01l-1.33-1.19 1.33 1.18z"/><path d="M78.79 101.89l-4.85 5.43a1.05 1.05 0 0 1-1.47.08l-3.25-2.91-.22-.2-1.13-1h0l-1.15-1-.84-.76-.4-.35h0l-.58-.51h0a22.35 22.35 0 0 1 2.76-3.81 23 23 0 0 1 3.48-3.16l.58.52.39.35h0l.26.23.46.4h0l.12.1 1.15 1 1.11 1 1.21 1.08 2.28 2.05a1 1 0 0 1 .09 1.46z"/></g><g fill="#4389c8"><path d="M102.12 127.66l-1.37 1.4-1.24 1.1h0l-1.75 1.29h0l-1.39.87a23.38 23.38 0 0 1-31.87-32.05l.4.35h0a22.86 22.86 0 0 0 4.54 28.46 22.6 22.6 0 0 0 4.82 3.31l1.16.56h0l1.21.5 1.26.43h0 .14l.68.2 1 .25h.19l.92.17a25.26 25.26 0 0 0 2.57.29h.37a21.11 21.11 0 0 0 2.25 0c.32 0 .64 0 1-.07a22.81 22.81 0 0 0 3.38-.61A5.44 5.44 0 0 0 91 134a20.12 20.12 0 0 0 2.7-.95l.49-.21a22.48 22.48 0 0 0 3.14-1.74h0a.27.27 0 0 0 .1-.06 3.62 3.62 0 0 0 .41-.27h0l.45-.33h0l.68-.53.37-.31a22.11 22.11 0 0 0 2.37-2.28A22.86 22.86 0 0 0 99.94 95l-.76-.65-.34-.27-.87-.65h0l-1.48-1-.69-.4-.87-.46-.86-.41-.58-.16-1.35-.5-.56-.19-1.52-.43-.55-.12a22 22 0 0 0-3.5-.47h-.44a22.54 22.54 0 0 0-5.32.42 18 18 0 0 0-1.76.42l-.86.26-.86.29a23 23 0 0 0-2.49 1.1 22.23 22.23 0 0 0-3.13 1.94l-.4-.36a23.39 23.39 0 0 1 31.38 34.37z"/><path d="M71.14,93.65a23,23,0,0,0-3.48,3.16,22.35,22.35,0,0,0-2.76,3.81l-.4-.35h0a23.11,23.11,0,0,1,6.24-7Z"/></g><use xlink:href="#C" fill="#ffa38f"/><use xlink:href="#C" fill="#e5e8ec"/><path d="M68.23 97.32a22.09 22.09 0 1 1 1.77 31.2 22.1 22.1 0 0 1-1.77-31.2z" fill="#cdd5d7"/><path d="M68.62 97.67a21.57 21.57 0 1 1 1.69 30.46 21.56 21.56 0 0 1-1.69-30.46z" fill="#140906"/><path d="M99.11 123.22a20 20 0 0 1-28.25 1.57l-1.26-1.23a19.46 19.46 0 0 0 2.4 2.63 19 19 0 0 0 31.2-10.13 19.78 19.78 0 0 1-4.09 7.16z" fill="#584e4d"/><path d="M95.26 113.5a19 19 0 0 0 4.84-12.5 19.76 19.76 0 0 0-2.75-3.06 19 19 0 0 0-31.63 14 19.76 19.76 0 0 0 2.75 3.06 19 19 0 0 0 26.79-1.5z" fill="#3f3534"/><path d="M65.77,110.78A22.83,22.83,0,0,1,97.49,98.06a1.85,1.85,0,0,0-.14-.14,19,19,0,0,0-31.58,12.86Z" fill="#5e5452"/><path d="M92.73 132.07a21.44 21.44 0 0 0 11.43-10.72l-.17.24c-2.09 2.63-1.6 1.5-4.46 4.69-2.33 2.6-4.67 4.83-6.8 5.79zm-20.09-3.48c-1.31-1.17-4.22-1.42-6.42-8.88s-2.94-5.76-2.28-8.83c.32-1.5-.11-2.92-.11-4.3a21.58 21.58 0 0 0 28.23 25.76 5.18 5.18 0 0 1-.73.18c-2.46.42-7.52 1.11-10.07-.13s-7.32-2.63-8.62-3.8zm-4.02-30.92a21.31 21.31 0 0 0-3.9 6.24 7 7 0 0 1 1.91-1.59c4.54-2.74 2.06-5.11 8.24-8.13 2.9-1.41 11.22-4 14.44-3.19s4.13 2.39 6.3 4.34 1.48 1.84 5.2 4.12a1.33 1.33 0 0 0 1.46.1 21.57 21.57 0 0 0-33.65-1.89z" fill="#7c633d"/><g fill="#140906"><path d="M66.9 100.32a.61.61 0 0 1 .87 0h0a.61.61 0 0 1 0 .87h0a.61.61 0 0 1-.87 0h0a.63.63 0 0 1 0-.87zm1.39-.55a.33.33 0 0 1 .46 0h0a.31.31 0 0 1 0 .46h0a.33.33 0 0 1-.46 0h0a.33.33 0 0 1 0-.46zm.86-1.16a.32.32 0 0 1 .46 0h0a.33.33 0 0 1 0 .46h0a.34.34 0 0 1-.46 0h0a.33.33 0 0 1 0-.46zm10.5 33.7a.32.32 0 0 1 .46 0h0a.33.33 0 0 1 0 .46h0a.33.33 0 0 1-.46 0h0a.33.33 0 0 1 0-.46zM65.39 120a.33.33 0 0 1 .46 0h0a.32.32 0 0 1 0 .45h0a.31.31 0 0 1-.45 0h0a.32.32 0 0 1 0-.46zm-.52-2a.33.33 0 0 1 .46 0h0a.32.32 0 0 1 0 .45h0a.32.32 0 0 1-.46 0h0a.33.33 0 0 1 0-.46zM97 96.1a.33.33 0 0 1 .46 0h0a.32.32 0 0 1 0 .45h0a.31.31 0 0 1-.45 0h0a.32.32 0 0 1 0-.46zm-24.69-1.29a.33.33 0 0 1 .46 0h0a.32.32 0 0 1 0 .46h0a.32.32 0 0 1-.45 0h0a.32.32 0 0 1 0-.46zm4.39-2.17a.32.32 0 0 1 .46 0h0a.33.33 0 0 1 0 .46h0a.34.34 0 0 1-.46 0h0a.32.32 0 0 1 0-.46zm-8.65 7.02a.1.1 0 0 1 .14 0h0a.11.11 0 0 1 0 .14h0a.1.1 0 0 1-.14 0h0a.09.09 0 0 1 0-.13zM72 95.48a.11.11 0 0 1 .14 0h0a.1.1 0 0 1 0 .14h0a.09.09 0 0 1-.13 0h0a.1.1 0 0 1 0-.14zm-1.14.71a.1.1 0 0 1 .14 0h0a.11.11 0 0 1 0 .14h0a.1.1 0 0 1-.14 0h0a.09.09 0 0 1 0-.13zm7.42 35.5a.11.11 0 0 1 .14 0h0a.1.1 0 0 1 0 .14h0a.1.1 0 0 1-.14 0h0a.11.11 0 0 1 0-.14zm2.77 1.09a.11.11 0 0 1 .14 0h0a.11.11 0 0 1 0 .14h0a.1.1 0 0 1-.14 0h0a.11.11 0 0 1 0-.14zm-6-2.06a.11.11 0 0 1 .14 0h0a.1.1 0 0 1 0 .14h0a.09.09 0 0 1-.13 0h0a.1.1 0 0 1 0-.14zm-8.87-9.82a.09.09 0 0 1 .13 0h0a.1.1 0 0 1 0 .14h0a.11.11 0 0 1-.14 0h0a.11.11 0 0 1 0-.14z"/><path d="M65 120a.1.1 0 0 1 .14 0h0a.11.11 0 0 1 0 .14h0a.1.1 0 0 1-.14 0h0a.09.09 0 0 1 0-.13zm.41-1.35a.1.1 0 0 1 .14 0h0a.1.1 0 0 1 0 .14h0a.09.09 0 0 1-.13 0h0a.09.09 0 0 1 0-.13zm-1-1.42a.11.11 0 0 1 .14 0h0a.11.11 0 0 1 0 .14h0a.11.11 0 0 1-.14 0h0a.1.1 0 0 1 0-.14zm.34-.57a.09.09 0 0 1 .13 0h0a.09.09 0 0 1 0 .14h0a.09.09 0 0 1-.13 0h0a.09.09 0 0 1 0-.14zm-.75-.58a.19.19 0 0 1 .26 0h0a.19.19 0 0 1 0 .26h0a.19.19 0 0 1-.26 0h0a.19.19 0 0 1 0-.26zm14.64 16.11a.19.19 0 0 1 .26 0h0a.19.19 0 0 1 0 .26h0a.19.19 0 0 1-.26 0h0a.19.19 0 0 1 0-.26zM74 130.1a.18.18 0 0 1 .26 0h0a.18.18 0 0 1 0 .25h0a.18.18 0 0 1-.26 0h0a.19.19 0 0 1 0-.26zm-1.2-1.04a.18.18 0 0 1 .26 0h0a.17.17 0 0 1 0 .25h0a.17.17 0 0 1-.25 0h0a.19.19 0 0 1 0-.26zm-6.88-7.12a.18.18 0 0 1 .26 0h0a.18.18 0 0 1 0 .25h0a.17.17 0 0 1-.25 0h0a.18.18 0 0 1 0-.26zM76 93.3a.09.09 0 0 1 .13 0h0a.09.09 0 0 1 0 .14h0a.09.09 0 0 1-.13 0h0a.09.09 0 0 1 0-.14zm1.73-1.08a.09.09 0 0 1 .13 0h0a.09.09 0 0 1 0 .14h0a.09.09 0 0 1-.13 0h0a.09.09 0 0 1 0-.14zm20.05 3.91a.1.1 0 0 1 .14 0h0a.11.11 0 0 1 0 .14h0a.1.1 0 0 1-.14 0h0a.09.09 0 0 1 0-.13zm-1.49-.72a.09.09 0 0 1 .13 0h0a.09.09 0 0 1 0 .14h0a.09.09 0 0 1-.13 0h0a.08.08 0 0 1 0-.13zm4.04 3.27a.1.1 0 0 1 .14 0h0a.1.1 0 0 1 0 .14h0a.1.1 0 0 1-.14 0h0a.09.09 0 0 1 0-.13zm-2.72-1.83a.1.1 0 0 1 .14 0h0a.11.11 0 0 1 0 .14h0a.11.11 0 0 1-.14 0h0a.1.1 0 0 1 0-.14z"/></g><path d="M67.2,100.7a.22.22,0,0,1,.32,0h0a.23.23,0,0,1,0,.33h0a.23.23,0,0,1-.33,0h0a.22.22,0,0,1,0-.32Z" fill="#5e5452"/><path d="M98.2,96.69a.62.62,0,0,1,.87,0h0a.61.61,0,0,1,.05.87h0a.61.61,0,0,1-.87,0h0a.63.63,0,0,1,0-.87Z" fill="#140906"/><path d="M98.5,97.07a.23.23,0,0,1,.32,0h0a.23.23,0,0,1,0,.33h0a.25.25,0,0,1-.33,0h0a.24.24,0,0,1,0-.33Z" fill="#5e5452"/><path d="M76.8,131.12a.63.63,0,0,1,.87-.05h0a.64.64,0,0,1,0,.88h0a.62.62,0,0,1-.87,0h0a.61.61,0,0,1,0-.87Z" fill="#140906"/><path d="M77.09,131.5a.25.25,0,0,1,.33,0h0a.25.25,0,0,1,0,.33h0a.24.24,0,0,1-.33,0h0a.24.24,0,0,1,0-.33Z" fill="#5e5452"/><path d="M75.6,130.69a.45.45,0,0,1,.64,0h0a.46.46,0,0,1,0,.64h0a.46.46,0,0,1-.64,0h0a.46.46,0,0,1,0-.65Z" fill="#140906"/><path d="M75.82,131a.17.17,0,0,1,.24,0h0a.17.17,0,0,1,0,.24h0a.16.16,0,0,1-.24,0h0a.16.16,0,0,1,0-.24Z" fill="#5e5452"/><defs ><path id="B" d="M102.94 122.55l-.45.77a20 20 0 0 1-6.32 6.36h0a25.54 25.54 0 0 1-7.32 3.18h0a29.65 29.65 0 0 1-3.73.74H85a33.67 33.67 0 0 1-3.38.31h0-3.66 0c-.66 0-1.34-.09-2-.16a23.38 23.38 0 0 1-11.46-33.48l-1.33-1.19h0L59.69 96a1 1 0 0 1-.08-1.47l4.85-5.43a1.05 1.05 0 0 1 1.47-.1l3.45 3.09h0l1.32 1.19a23.37 23.37 0 0 1 26.08-1.23l1.14 1.38h0l1.83 2.5 1.38 2.2h0l.82 1.5c4.11 7.86 4.74 16.17.99 22.92z"/><path id="C" d="M101.72,127.31A22.86,22.86,0,0,1,64.9,100.63h0a22.35,22.35,0,0,1,2.76-3.81,22.86,22.86,0,1,1,34.06,30.5Z"/></defs></svg>