<svg xmlns="http://www.w3.org/2000/svg" xmlns:xlink="http://www.w3.org/1999/xlink" viewBox="0 0 210 178" xmlns:v="https://vecta.io/nano"><style><![CDATA[.F{stroke-miterlimit:10}.G{stroke:#282d33}]]></style><g class="F G"><path d="M145.64 103.54a4.12 4.12 0 0 1-5.53 1.85l-6.54-3.28a4.19 4.19 0 0 1-.86-.58 4 4 0 0 1-1-.34l-3.59-1.8-.27.75 8.19 4.11a4.12 4.12 0 0 1-3.69 7.37l-8.15-4.08-.36.71 3.47 1.74a4.12 4.12 0 0 1-3.69 7.37l-3.51-1.74a10.68 10.68 0 0 1-.65 1 4.12 4.12 0 0 1-5.1 6.21l-5.46-2.73-.66-.22h0l.41-.31a4.21 4.21 0 0 0 .36-.37 3.6 3.6 0 0 0 .6-.88l1.45-2.9a4.13 4.13 0 0 0-7.38-3.69l-1.45 2.9a3 3 0 0 0-.19.45 2 2 0 0 0-.12.42.19.19 0 0 0 0 .07c0 .13 0 .25-.07.37s0 .2 0 .3a4.17 4.17 0 0 0 0 .5h0L99 115.29l.21-.15.22-.17.19-.18a.91.91 0 0 0 .19-.2 2.08 2.08 0 0 0 .32-.4 4.33 4.33 0 0 0 .31-.51l4.23-8.45a4.12 4.12 0 1 0-7.37-3.7L93 110a3.49 3.49 0 0 0-.2.44c0 .15-.09.3-.13.45v.18a1.57 1.57 0 0 0 0 .3 3.52 3.52 0 0 0 0 .45v.18.14h0l-2.88-1.44.22-.16.21-.16.2-.18.18-.2a1.12 1.12 0 0 0 .18-.2 3 3 0 0 0 .2-.29l.11-.17.13-.25 3.44-6.85a4.13 4.13 0 0 0-7.38-3.69l-3.43 6.85a3.43 3.43 0 0 0-.19.44c0 .12-.07.24-.1.36s0 .2-.07.29a1.87 1.87 0 0 0 0 .32 1.42 1.42 0 0 0 0 .35v.21a.61.61 0 0 0 0 .14h0l-3.24-1.63a1.53 1.53 0 0 0 .21-.14l.22-.17.19-.18a1.19 1.19 0 0 0 .19-.2 3 3 0 0 0 .32-.4 4.33 4.33 0 0 0 .31-.51l1.45-2.9a4.12 4.12 0 0 0-7.37-3.69l-1.45 2.9a3.92 3.92 0 0 0-.43 2A9.63 9.63 0 0 1 70 98.17l8.87-26.64.81.38 17-5.66h0l5.3.49h0l5.51.58 4.84.46h0 .11l1.56 4.78-5-1.11h0-.12-.06a0 0 0 0 0 0 0l-5 1v-.06l-5.37 1.14-4.82 1h0-.11l-2.89 14 .29.07 2.34.48a7.16 7.16 0 0 0 8.44-5.58l.3-1.5 8-.84v-.1h0 .1l.26.37c.09.12 0 0 0 0l.17.2a.19.19 0 0 0 .06.07c.09.12.2.25.31.37l.47.51c.16.17.34.33.51.49a4.19 4.19 0 0 0 .45.39l.46.38.48.36.45.32.47.3h0l.57.34.09.06.54.29.15.07.48.23h0l.2.09.46.19a2.68 2.68 0 0 0 .3.12l.43.17.35.12.38.13.46.13.4.24.77.19.81.16h.1l.71.11h.06l1.55.13 12.43 6.21a3.81 3.81 0 0 1 .87.59 3.91 3.91 0 0 1 1 .35l6.36 3.18.17.08a4.13 4.13 0 0 1 1.81 5.54z" fill="none"/><path d="M109.24 109.88a4.14 4.14 0 0 0-5.54 1.84l-1.44 2.9a4.121 4.121 0 1 0 7.37 3.69l1.45-2.9a4.12 4.12 0 0 0-1.84-5.53zM81.15 95.82a4.12 4.12 0 0 0-5.53 1.84l-1.45 2.9a4.121 4.121 0 0 0 7.37 3.69l1.45-2.9a4.13 4.13 0 0 0-1.84-5.53zm21.63 3.87a4.13 4.13 0 0 0-5.53 1.84L93 110a4.123 4.123 0 1 0 7.38 3.68l4.23-8.45a4.14 4.14 0 0 0-1.83-5.54zm-10.04-3.01a4.13 4.13 0 0 0-5.54 1.84l-3.43 6.85a4.13 4.13 0 0 0 7.38 3.69l3.43-6.85a4.13 4.13 0 0 0-1.84-5.53zm56.48-.61l-5.59 1.86-6.36-3.18a3.91 3.91 0 0 0-1-.35 3.81 3.81 0 0 0-.87-.59L123 87.6h-.79 0l-.75-.08h-.06l-.71-.11h-.1l-.81-.16L119 87l-.29-.08-.46-.13-.38-.13-.35-.12-.43-.17-.28-.1-.46-.19-.2-.09h0l-.48-.23-.15-.07-.54-.29-.09-.06c-.19-.1-.37-.22-.57-.34h0c-.16-.09-.32-.2-.47-.3l-.45-.32-.48-.36-.46-.38a4.19 4.19 0 0 1-.45-.39l-.51-.49-.47-.51-.31-.37a.19.19 0 0 1-.06-.07l-.17-.2c-.05-.07 0 0 0 0l-.26-.37c-.08-.13 0 0 0 0L110 81v.11h0v.1l-8 .79-.29 1.54a7.16 7.16 0 0 1-8.44 5.58l-2.34-.48-.29-.07 2.89-14h.11 0l4.82-1 5.37-1.14v.06l5-1a0 0 0 0 1 0 0h.06.12 0l5 1.11 13.55 3 13.4-4.46z" fill="#b7bec0"/></g><g fill="none" class="F"><path d="M153.36 101.26l-2.17.72-1.97-5.91-8.31-24.99-.64-1.92 2.16-.72.64 1.92 8.32 24.98 1.97 5.92zm9.04-3.01l-4.5 1.5a2.18 2.18 0 0 1-.06-.52 2.38 2.38 0 0 1 4.56-1z" stroke="#30363d"/><g class="G"><path d="M165.27 59.41L142 67.15l.43 1.29.64 1.92 8.32 25 2 5.91 2.12 6.37 23.27-7.74zm-5.05 42.22a2.37 2.37 0 0 1-2.32-1.88 2.18 2.18 0 0 1-.06-.52 2.38 2.38 0 0 1 4.56-1 2.34 2.34 0 0 1 .22 1 2.41 2.41 0 0 1-2.4 2.4z"/><use xlink:href="#B"/></g><path d="M63 100a2.2 2.2 0 0 1-.09.64l-4.53-1.5A2.39 2.39 0 0 1 63 100zm16.66-30.75l-.75 2.28-8.87 26.64-1.46 4.38-2.2-.73 2.05-6.14 8.36-25.13.67-2.03 2.2.73z" stroke="#30363d"/><g class="G"><path d="M54.67 59.41L41.19 99.89l23.26 7.74 1.93-5.81 2.05-6.14 8.36-25.13.67-2 .46-1.37zm8.27 41.26a2.39 2.39 0 0 1-4.7-.64 2.24 2.24 0 0 1 .17-.86A2.39 2.39 0 0 1 63 100a2.2 2.2 0 0 1-.06.67z"/><use xlink:href="#C"/></g></g><use xlink:href="#C" fill="#cdd5d7" class="F G"/><use xlink:href="#B" fill="#484f59" class="F G"/><defs ><path id="B" d="M162.62 99.23a2.41 2.41 0 0 1-2.4 2.4 2.37 2.37 0 0 1-2.32-1.88 2.18 2.18 0 0 1-.06-.52 2.38 2.38 0 0 1 4.56-1 2.34 2.34 0 0 1 .22 1z"/><path id="C" d="M63,100a2.2,2.2,0,0,1-.09.64,2.39,2.39,0,0,1-4.7-.64,2.24,2.24,0,0,1,.17-.86A2.39,2.39,0,0,1,63,100Z"/></defs></svg>