<?xml version="1.0" encoding="UTF-8"?>
<svg width="752pt" height="752pt" version="1.1" viewBox="0 0 752 752" xmlns="http://www.w3.org/2000/svg">
 <g>
  <path d="m387.25 201.19c0 6.2266-5.0508 11.277-11.277 11.277-6.2305 0-11.277-5.0508-11.277-11.277 0-6.2305 5.0469-11.277 11.277-11.277 6.2266 0 11.277 5.0469 11.277 11.277"/>
  <path d="m495.95 218.83h-46.336v-1.8516c0-10.418-8.4648-18.898-18.898-18.898h-13.008c-3.4023-19.949-20.809-35.18-41.734-35.18-20.898 0-38.359 15.23-41.766 35.18h-12.949c-10.402 0-18.871 8.4805-18.871 18.898l0.003906 1.8516h-46.34c-20.527 0-37.207 16.695-37.207 37.191v295.91c0 20.496 16.68 37.176 37.207 37.176h239.91c20.527 0 37.207-16.68 37.207-37.176v-295.91c-0.015625-20.496-16.695-37.191-37.223-37.191zm-179.23-1.8516c0-2.5156 2.0586-4.5586 4.543-4.5586h19.535c3.9648 0 7.1641-3.2109 7.1641-7.1758 0-15.438 12.578-28 28.016-28s27.984 12.566 27.984 28c0 3.9805 3.2422 7.1758 7.1914 7.1758h19.566c2.5156 0 4.543 2.043 4.543 4.5586v31.906c0 2.5-2.0273 4.543-4.543 4.543h-109.46c-2.4844 0-4.543-2.043-4.543-4.543zm-23.988 347.34-49.652-50.793h49.652zm-59.512-12.387v-27.984l49.652 50.805h-26.816c-12.609 0-22.836-10.258-22.836-22.82zm285.57 0c0 12.578-10.227 22.82-22.836 22.82h-188.86v-68.402c0-3.9648-3.2109-7.1641-7.1914-7.1641h-66.688v-243.17c0-12.594 10.227-22.82 22.836-22.82h46.336v15.703c0 10.418 8.4648 18.898 18.871 18.898h109.46c10.434 0 18.898-8.4805 18.898-18.898v-15.703h46.336c12.609 0 22.836 10.227 22.836 22.82z"/>
  <path d="m375.97 392.53c12.98 0 25.145-5.4922 34.246-15.465 8.9531-9.7812 13.883-22.746 13.852-36.496 0.03125-13.762-4.8828-26.715-13.852-36.496-9.1016-9.9609-21.281-15.438-34.277-15.438-26.504 0-48.098 23.293-48.098 51.945 0 28.656 21.594 51.949 48.129 51.949zm0-89.535c8.9102 0 17.316 3.832 23.68 10.773 6.4961 7.1172 10.094 16.648 10.094 26.816 0 10.168-3.582 19.684-10.094 26.832-6.3633 6.957-14.77 10.773-23.68 10.773-18.617 0-33.758-16.855-33.758-37.574s15.141-37.621 33.758-37.621z"/>
  <path d="m406.61 393.33c-2.4844-0.33984-4.8828 0.45703-6.4961 2.25l-24.137 26.461-24.078-26.477c-1.6445-1.7891-4.0391-2.6797-6.5273-2.2344-3.6719 0.62109-36.098 6.7188-42.52 28.18-5.5195 18.559-6.1875 48.75-6.2148 50.035-0.03125 1.9258 0.72656 3.7891 2.0586 5.1641 1.3633 1.375 3.2109 2.1602 5.1484 2.1602h144.35c1.9375 0 3.7891-0.76953 5.1484-2.1445 1.332-1.375 2.0859-3.2578 2.0273-5.1797-0.03125-1.2734-0.66406-31.477-6.2148-50.051-6.4961-21.445-38.875-27.527-42.547-28.164zm-95.32 71.168c0.51953-9.8125 1.8789-27.348 5.3125-38.895 2.8281-9.4258 18.59-15.125 27.438-17.332l26.652 29.258c1.3633 1.4961 3.3008 2.3398 5.2852 2.3398 2.0273 0 3.9648-0.85938 5.3125-2.3398l26.652-29.258c8.8516 2.207 24.598 7.918 27.438 17.344 3.4648 11.516 4.8242 29.066 5.3438 38.879z"/>
 </g>
</svg>
