<svg xmlns="http://www.w3.org/2000/svg" viewBox="0 0 279 279" fill="#4389c8" xmlns:v="https://vecta.io/nano"><path d="M252.47 176.67c-5.79-31.07-29.44-48.36-59-47.87l-.4-7.2a6.87 6.87 0 0 0-3.39-5.73c-3.77-9.42-17.21-12.82-26-15.18-16.44-4.43-33.36-2.73-50.17-3A174.61 174.61 0 0 0 93 99.12c-.13-6.12 3.64-12.33 5.7-18.93 2.27-7.26 2-14.2-1.75-20.86-4.49-8-16.8-.82-12.31 7.2 5 8.89-6 21.55-6.34 31.05a26.05 26.05 0 0 0 .21 4.07A174.57 174.57 0 0 0 59 107.12c-9 3.12-21.4 7.69-21.06 19.46 0 .19 0 .36.05.55a7.07 7.07 0 0 0-.54 3q1 47.12 2 94.22c.54 23.26 7.29 38.89 30.69 46.83 24 8.15 52.85 4.24 77.39.65 20.27-3 43.22-7.26 47.53-29.8a6.59 6.59 0 0 0 2.32-5.2v-7c30.45-1.54 61.8-17.12 55.09-53.16zm-56.88-9.39c8.46.2 17.28 4.75 18.12 14.16.87 9.72-8.7 11.58-17 11.78l-1.12-25.94zM83.75 114.8a35.29 35.29 0 0 0 3.71 4.35c5.33 5.27 13-.47 12.11-6.28 6.86-.65 12.25-1 14-1 9.16.18 18.32-.29 27.47 0 6.32.17 22.81.29 27.73 5.4 3.8 3.94 2.54 6.57-1 8.34a6.76 6.76 0 0 0-2.43-.83 311.9 311.9 0 0 0-99.78 1.32 6 6 0 0 0-4.38 2.9c-3.95-.55-6.5-1.31-6.61-2.37-.57-5.8 14.19-9.56 29.18-11.83zm97.53 124.69c-2.41 20.13-45.18 19.91-59.17 20.9-18.79 1.32-43.27 3.6-59.14-8.63-14.89-11.49-9.54-41-9.9-57.88q-.59-26.67-1.15-53.32a82.15 82.15 0 0 0 9.25 1.77c18 2.63 36.65 2.11 54.81 1.94 11.44-.1 45.88 2.18 63.76-6.92 1.83 32.64 3.59 65.28 3.41 98a7.45 7.45 0 0 0-1.87 4.14zm16-23.89c0-2.77-.07-5.54-.14-8.32 15.4-.92 31.69-7.13 30.89-25.68-.73-17.14-16.82-29.22-33.17-28.62l-.54-9.93c19.68-.05 34.68 8.58 42.17 29.08 10.78 29.53-14.33 42.09-39.22 43.47zM129.76 79.1c2 9 15.7 5.17 13.74-3.79-3.06-14.06 8.31-24.27 9.14-38 .71-11.68-3.8-22.69-10.31-32.15-5.17-7.51-17.52-.39-12.31 7.19 9.62 14 9.65 24.95 2.52 40-4.18 8.8-4.85 17.28-2.78 26.75z"/></svg>