<?xml version="1.0" encoding="UTF-8"?>
<svg width="752pt" height="752pt" version="1.1" viewBox="0 0 752 752" xmlns="http://www.w3.org/2000/svg">
 <g>
  <path d="m311.92 469.43c-87.281 0-158.29-71.008-158.29-158.29s71.004-158.29 158.29-158.29 158.29 71.008 158.29 158.29c0 87.273-71.008 158.29-158.29 158.29zm0-295.27c-75.535 0-136.99 61.453-136.99 136.99s61.453 136.99 136.99 136.99 136.99-61.453 136.99-136.99-61.453-136.99-136.99-136.99z"/>
  <path d="m311.92 428.52c-64.723 0-117.39-52.656-117.39-117.39 0-3.6758 2.9805-6.6523 6.6523-6.6523 3.6758 0 6.6523 2.9805 6.6523 6.6523 0 57.383 46.688 104.07 104.07 104.07 3.6758 0 6.6523 2.9805 6.6523 6.6523 0.007813 3.6797-2.9688 6.6602-6.6445 6.6602z"/>
  <path d="m463.21 437.27-26.805 27.547c-4.4336 4.5547-11.715 4.6562-16.266 0.22266l-6.6641-6.4844c-4.5547-4.4336-4.6523-11.715-0.22266-16.266l26.805-27.547c4.4336-4.5547 11.715-4.6523 16.266-0.22266l6.6641 6.4844c4.5547 4.4258 4.6562 11.707 0.22266 16.266z"/>
  <path d="m598.74 570.57-25.352 26.051c-4.8359 4.9688-12.777 5.0781-17.746 0.24219l-114.39-111.31c-4.9688-4.8359-5.0781-12.777-0.24219-17.746l25.352-26.051c4.8359-4.9688 12.777-5.0781 17.746-0.24219l114.39 111.31c4.957 4.832 5.0664 12.777 0.23828 17.746z"/>
 </g>
</svg>
