<svg xmlns="http://www.w3.org/2000/svg" viewBox="0 0 279 279" fill="#4389c8" xmlns:v="https://vecta.io/nano"><path d="M141.11 47C130 38.32 117 33.66 102.81 34.43c-9.44.51-9.5 15.25 0 14.74 10.07-.55 19.84 2 27.87 8.3 7.38 5.8 17.88-4.56 10.43-10.47zm124.67 184.91a1014.38 1014.38 0 0 1-72.7-73.91 6.37 6.37 0 0 0-5-2.35c-2.71-1.2-5.77-.41-8.23 1.5-2.91 2.26-5.7 4.65-8.45 7.08a98.54 98.54 0 0 0-11.79-11.32c22.46-20.46 34.8-51.65 25.2-86.13C173.6 26.41 134 2.68 93.4 7.73h-.09C57 8.91 24.14 32.68 13.65 68s3.65 74.11 34.15 94.66c32.48 21.89 71.33 18.2 99.91-.54a98.74 98.74 0 0 1 13.11 12.34l-4.17 4.5a7.83 7.83 0 0 0-1 1.45c-3.32 2.47-4.79 7.21-.8 10.68a680.35 680.35 0 0 1 75.92 77.24 6 6 0 0 0 8.05 3.17c13.12-5 17.85-16.74 26.89-26.35a6.9 6.9 0 0 0 1.94-6 6.32 6.32 0 0 0-1.87-7.24zM25.18 98.38c-3.44-40.11 28.31-74.61 68.13-75.92a8.12 8.12 0 0 0 1.76-.25h.2c41.6-6.17 77.8 26.72 78 68.18.21 39.13-33.22 71.71-71.9 73.05-37.91 1.3-72.9-26.55-76.19-65.06zm213.61 156.71a680.51 680.51 0 0 0-68.1-69.64 171 171 0 0 1 14.77-14q31.6 35.31 66.35 67.52c-3.98 5.55-7.71 12.26-13.02 16.12z"/></svg>