<svg id="Active_Design" data-name="Active Design" xmlns="http://www.w3.org/2000/svg" viewBox="0 0 279 279"><defs><style>.cls-1{fill:#4389c8;}</style></defs><g id="We_bring_together" data-name="We bring together"><path id="Plant" class="cls-1" d="M223.88,142.88a5.91,5.91,0,0,0-6.22-4.52c-7.73.25-15.45.43-23.18.64a276,276,0,0,1,23.8-60.9c3.22-6-3.29-11.49-8.21-9.84a7.19,7.19,0,0,0-3.06-.18,59.21,59.21,0,0,0-29.66,13.45C180.22,59.62,188.63,39,197.89,18.8c3.22-7-5.85-13.28-10.33-8.72a6.9,6.9,0,0,0-2.31,1.52A235.29,235.29,0,0,0,133,88.3,115.76,115.76,0,0,0,76.88,36c-6-2.67-11.49,3.58-10.07,8.21A6.82,6.82,0,0,0,68.44,48,165.92,165.92,0,0,1,95.18,92.48c-9-6.49-19.42-10.14-30.84-8.69a7,7,0,0,0-3.53,1.48c-5.23.54-9.46,7-4.41,11.16,6.91,5.72,10,13.66,13.56,21.67q4.89,11.09,9.75,22.18c-4.53,0-9.07,0-13.61,0s-6.66,3.59-6.48,7.09a6,6,0,0,0-.43,3.24A261.09,261.09,0,0,0,65,182.1a6,6,0,0,0,5.66,4.79,7.06,7.06,0,0,0,1.78.27l2.8,0Q82.1,225.79,90.91,264c1,4.24,4.75,5.46,8,4.54a7.14,7.14,0,0,0,2.25.52,565.11,565.11,0,0,0,78.29-.89,6.65,6.65,0,0,0,4.38-2c3.31,1,7.42-.06,8.81-4.29a352.83,352.83,0,0,0,15.86-76.79L210,185a6.59,6.59,0,0,0,4.31-1.79,6.09,6.09,0,0,0,5-4.66,209.2,209.2,0,0,0,5.83-31.09A5.52,5.52,0,0,0,223.88,142.88Zm-16.66,28.73q-65.16,3.07-130.39,2.09c-1.52-6.59-2.77-13.24-3.7-19.94q69,.39,138-1.73A186.21,186.21,0,0,1,207.22,171.61Zm-6.84-87.88a290.08,290.08,0,0,0-19.91,55.65c-8.09.18-16.18.3-24.27.43C165.27,117,176.94,92.44,200.38,83.73Zm-58.35,18a218.72,218.72,0,0,1,29.78-54.37c-5.39,16-9,32.43-9,49.72,0,.16,0,.3,0,.45-6.93,9.85-12.39,21.14-17.09,32.35A119.92,119.92,0,0,0,140,104.63,6.87,6.87,0,0,0,142,101.76Zm-9,38.37-5.58,0a109.32,109.32,0,0,0-14.85-29.66,6,6,0,0,0,1.11-5.82A182.85,182.85,0,0,0,95.6,63.29C118.3,82,132,109.28,133.05,140.13Zm-39.19-1C88.33,126.57,83.67,110.43,75.56,98c17.91,4.54,31.24,24.86,37.68,42.29q-9.49,0-19,0A6.82,6.82,0,0,0,93.86,139.16Zm86.89,115.53a6.88,6.88,0,0,0-1.29,0,566,566,0,0,1-76.6,1q-7.76-34-14-68.34,53.05.49,106.07-1.7A336.36,336.36,0,0,1,180.75,254.69Z"/></g></svg>