<svg xmlns="http://www.w3.org/2000/svg" xmlns:xlink="http://www.w3.org/1999/xlink" version="1.1" width="1000" height="1000" viewBox="0 0 1000 1000" xml:space="preserve">
<desc>Created with Fabric.js 3.5.0</desc>
<defs>
</defs>
<rect x="0" y="0" width="100%" height="100%" fill-opacity="0"/>
<g transform="matrix(1.5152 0 0 1.5152 500.0145 500.0145)" id="760410">
<g style="" vector-effect="non-scaling-stroke">
		<g transform="matrix(1 0 0 1 0.5013 0.4578)" id="path2342_00000134238304210784560220000009740367927600251047_">
<path style="stroke: none; stroke-width: 1; stroke-dasharray: none; stroke-linecap: butt; stroke-dashoffset: 0; stroke-linejoin: miter; stroke-miterlimit: 4; is-custom-font: none; font-file-url: none; fill: #000000; fill-rule: nonzero; opacity: 1;" transform=" translate(-181.3602, 887.2835)" d="M 319.3 -1009.5 c -8.8 -6.3 -21.1 -4.3 -27.4 4.6 L 153.6 -811.3 l -84.8 -84.8 c -7.7 -7.7 -20.1 -7.7 -27.8 0 c -7.7 7.7 -7.7 20.1 0 27.8 l 101.2 101.2 c 3.7 3.7 8.7 5.7 13.9 5.7 c 0.5 0 1.1 0 1.6 -0.1 c 5.8 -0.5 11 -3.5 14.4 -8.2 l 151.8 -212.5 C 330.1 -990.9 328.1 -1003.2 319.3 -1009.5" stroke-linecap="round"/>
</g>
		<g transform="matrix(1 0 0 1 0.5023 0.5457)" id="path2346_00000057135427320716191640000000108338479593395621_">
<path style="stroke: none; stroke-width: 1; stroke-dasharray: none; stroke-linecap: butt; stroke-dashoffset: 0; stroke-linejoin: miter; stroke-miterlimit: 4; is-custom-font: none; font-file-url: none; fill: #000000; fill-rule: nonzero; opacity: 1;" transform=" translate(-192.1, 857.8)" d="M 192.1 -602.6 c -140.7 0 -255.2 -114.5 -255.2 -255.2 s 114.5 -255.2 255.2 -255.2 s 255.2 114.5 255.2 255.2 S 332.8 -602.6 192.1 -602.6 M 192.1 -1152.3 c -162.4 0 -294.5 132.1 -294.5 294.5 c 0 162.4 132.1 294.5 294.5 294.5 s 294.5 -132.1 294.5 -294.5 C 486.6 -1020.2 354.5 -1152.3 192.1 -1152.3" stroke-linecap="round"/>
</g>
</g>
</g>
</svg>
