<?xml version="1.0" encoding="UTF-8"?><svg id="Layer_1" xmlns="http://www.w3.org/2000/svg" viewBox="0 0 525.28 92.86"><defs><style>.cls-1{fill:#fff;}.cls-2{fill:#282827;}</style></defs><g><rect class="cls-1" width="82.43" height="82.56"/><g><rect class="cls-2" x="54.54" y="54.66" width="22.95" height="22.95"/><rect class="cls-1" x="54.48" y="54.6" width="11.76" height="11.76"/></g><g><rect class="cls-2" x="4.85" y="4.67" width="22.95" height="22.95"/><rect class="cls-1" x="16.11" y="15.93" width="11.76" height="11.76"/></g><g><rect class="cls-2" x="54.57" y="4.64" width="22.95" height="22.95"/><rect class="cls-1" x="54.5" y="15.89" width="11.76" height="11.76"/></g><g><rect class="cls-2" x="4.83" y="54.69" width="22.95" height="22.95"/><rect class="cls-1" x="16.08" y="54.63" width="11.76" height="11.76"/></g></g><g><path class="cls-1" d="M102.8,18.96h9.21l7.55,33.29,8.72-33.29h9.58l8.23,33.1,7.62-33.1h9.27l-11.98,42.87h-10.13l-8.05-30.52-8.41,30.52-10.07,.06-11.55-42.93h.01Z"/><path class="cls-1" d="M188.48,62.26c-12.1,0-21.99-9.09-21.99-21.99s9.89-21.93,21.99-21.93,21.93,9.09,21.93,21.93-9.77,21.99-21.93,21.99h0Zm0-7.68c7.74,0,13.08-5.59,13.08-14.31s-5.34-14.19-13.08-14.19-13.14,5.47-13.14,14.19,5.34,14.31,13.14,14.31Z"/><path class="cls-1" d="M232.88,18.96c10.32,0,15.48,5.96,15.48,13.14,0,5.22-2.89,10.5-9.77,12.34l10.26,17.38h-9.95l-9.46-16.71h-4.05v16.71h-8.6V18.96h16.09Zm-.31,7.12h-7.19v12.59h7.19c4.79,0,6.94-2.52,6.94-6.39s-2.15-6.2-6.94-6.2Z"/><path class="cls-1" d="M264.75,42.73v19.1h-8.6V18.96h8.6v19.22l15.6-19.22h10.38l-17.69,21.25,18.18,21.62h-10.87s-15.6-19.1-15.6-19.1Z"/><path class="cls-1" d="M300.44,18.71V59.49h16.03v2.33h-18.79V18.71h2.76Z"/><path class="cls-1" d="M341.95,62.32c-12.04,0-20.94-9.09-20.94-21.99s8.91-21.99,20.94-21.99,20.94,9.03,20.94,21.99-8.91,21.99-20.94,21.99Zm0-2.46c10.13,0,18.06-7.43,18.06-19.53s-7.92-19.59-18.06-19.59-18.12,7.43-18.12,19.59,7.98,19.53,18.12,19.53Z"/><path class="cls-1" d="M371,18.71h2.76v26.96c0,10.26,5.22,14.13,12.34,14.13s12.16-3.87,12.16-14.13V18.71h2.76v26.9c0,11.67-6.33,16.64-14.92,16.64s-15.11-4.97-15.11-16.64V18.71h0Z"/><path class="cls-1" d="M441.7,18.77V61.83h-2.76l-25.3-38.57V61.83h-2.76V18.77h2.76l25.3,38.45V18.77h2.76Z"/><path class="cls-1" d="M490.46,31.43h-3.19c-2.4-6.26-8.29-10.62-16.21-10.62-10.13,0-18.12,7.43-18.12,19.53s7.98,19.47,18.12,19.47,17.38-6.88,17.93-18.06h-19.22v-2.33h22.05v1.84c-.37,12.1-8.84,21-20.76,21s-20.94-9.03-20.94-21.93,8.91-21.99,20.94-21.99c9.33,0,16.34,5.04,19.41,13.08h0Z"/><path class="cls-1" d="M521.97,21.05h-19.04v18h17.2v2.33h-17.2v18.12h19.04v2.33h-21.8V18.71h21.8v2.33h0Z"/></g><g><path class="cls-1" d="M400.05,76.14c2.79,0,4.97,2.18,4.97,5.58s-2.18,5.66-4.97,5.66c-1.71,0-2.93-.79-3.6-1.73v1.55h-2.75v-14.54h2.75v5.25c.67-1,1.95-1.77,3.6-1.77Zm-.73,2.42c-1.47,0-2.87,1.14-2.87,3.2s1.4,3.2,2.87,3.2,2.89-1.18,2.89-3.24-1.4-3.16-2.89-3.16Z"/><path class="cls-1" d="M414.52,76.32h2.93l-6.74,16.04h-2.93l2.36-5.42-4.36-10.61h3.08l2.81,7.61,2.85-7.61h0Z"/><path class="cls-1" d="M428.35,87.38c-3.16,0-5.46-2.2-5.46-5.62s2.24-5.62,5.46-5.62,5.37,2.14,5.37,5.39c0,.35-.02,.71-.08,1.06h-7.96c.14,1.61,1.24,2.52,2.61,2.52,1.18,0,1.83-.59,2.18-1.32h2.97c-.59,2-2.4,3.6-5.09,3.6h0Zm-2.65-6.65h5.17c-.04-1.43-1.18-2.34-2.59-2.34-1.32,0-2.36,.85-2.57,2.34h-.01Z"/><path class="cls-1" d="M439.89,87.38c-2.73,0-4.64-1.59-4.76-3.62h2.77c.1,.83,.86,1.45,1.96,1.45s1.67-.49,1.67-1.12c0-1.95-6.15-.71-6.15-4.7,0-1.81,1.61-3.26,4.3-3.26s4.23,1.44,4.38,3.6h-2.63c-.08-.85-.75-1.42-1.83-1.42-1.02,0-1.55,.41-1.55,1.04,0,1.99,6.03,.75,6.11,4.74,0,1.87-1.63,3.28-4.28,3.28h.01Z"/><path class="cls-1" d="M446.87,78.58h-1.3v-2.26h1.3v-2.69h2.77v2.69h2.44v2.26h-2.44v5.27c0,.73,.29,1.04,1.16,1.04h1.28v2.32h-1.73c-2.08,0-3.48-.88-3.48-3.38v-5.25h0Z"/><path class="cls-1" d="M458.82,87.38c-3.16,0-5.46-2.2-5.46-5.62s2.24-5.62,5.46-5.62,5.37,2.14,5.37,5.39c0,.35-.02,.71-.08,1.06h-7.96c.14,1.61,1.24,2.52,2.61,2.52,1.18,0,1.83-.59,2.18-1.32h2.97c-.59,2-2.4,3.6-5.09,3.6h0Zm-2.65-6.65h5.17c-.04-1.43-1.18-2.34-2.59-2.34-1.32,0-2.36,.85-2.57,2.34h-.01Z"/><path class="cls-1" d="M470.94,87.38c-3.16,0-5.46-2.2-5.46-5.62s2.24-5.62,5.46-5.62,5.37,2.14,5.37,5.39c0,.35-.02,.71-.08,1.06h-7.96c.14,1.61,1.24,2.52,2.61,2.52,1.18,0,1.83-.59,2.18-1.32h2.97c-.59,2-2.4,3.6-5.09,3.6h0Zm-2.65-6.65h5.17c-.04-1.43-1.18-2.34-2.59-2.34-1.32,0-2.36,.85-2.57,2.34h-.01Z"/><path class="cls-1" d="M493.54,81.19c0-1.73-.96-2.63-2.42-2.63s-2.44,.9-2.44,2.63v6.01h-2.75v-6.01c0-1.73-.96-2.63-2.42-2.63s-2.46,.9-2.46,2.63v6.01h-2.75v-10.89h2.75v1.32c.69-.9,1.85-1.47,3.2-1.47,1.69,0,3.08,.73,3.83,2.08,.71-1.24,2.14-2.08,3.73-2.08,2.61,0,4.46,1.65,4.46,4.66v6.39h-2.75v-6.01h.02Z"/><path class="cls-1" d="M503.66,87.38c-3.16,0-5.46-2.2-5.46-5.62s2.24-5.62,5.46-5.62,5.37,2.14,5.37,5.39c0,.35-.02,.71-.08,1.06h-7.96c.14,1.61,1.24,2.52,2.61,2.52,1.18,0,1.83-.59,2.18-1.32h2.97c-.59,2-2.4,3.6-5.09,3.6h0Zm-2.65-6.65h5.17c-.04-1.43-1.18-2.34-2.59-2.34-1.32,0-2.36,.85-2.57,2.34h-.01Z"/><path class="cls-1" d="M515.32,76.14c1.43,0,2.81,.67,3.56,1.69v-5.17h2.79v14.54h-2.79v-1.61c-.65,1-1.87,1.79-3.58,1.79-2.77,0-4.97-2.26-4.97-5.66s2.2-5.58,4.99-5.58Zm.69,2.42c-1.47,0-2.87,1.1-2.87,3.16s1.4,3.24,2.87,3.24,2.89-1.14,2.89-3.2-1.38-3.2-2.89-3.2Z"/></g></svg>