<?xml version="1.0" standalone="no"?>
<!DOCTYPE svg PUBLIC "-//W3C//DTD SVG 20010904//EN"
 "http://www.w3.org/TR/2001/REC-SVG-20010904/DTD/svg10.dtd">
<svg version="1.0" xmlns="http://www.w3.org/2000/svg"
 width="1280.000000pt" height="895.000000pt" viewBox="0 0 1280.000000 895.000000"
 preserveAspectRatio="xMidYMid meet">
<metadata>
Created by potrace 1.16, written by Peter Selinger 2001-2019
</metadata>
<g transform="translate(0.000000,895.000000) scale(0.100000,-0.100000)"
fill="#000000" stroke="none">
<path d="M4980 8939 c-1693 -35 -2897 -112 -3431 -219 -264 -53 -434 -121
-634 -254 -272 -182 -480 -442 -599 -751 -188 -488 -316 -1806 -316 -3250 0
-1437 128 -2753 315 -3236 196 -509 621 -874 1155 -993 500 -111 1620 -187
3335 -227 582 -13 3171 -7 3635 10 1253 44 1829 78 2390 142 299 34 513 74
668 125 505 165 897 576 1042 1091 121 429 209 1223 251 2243 13 335 7 1657
-10 1935 -55 914 -111 1428 -203 1849 -81 377 -208 617 -452 861 -220 220
-449 352 -738 426 -499 127 -1689 209 -3638 249 -537 11 -2218 11 -2770 -1z
m1848 -3534 c887 -511 1612 -932 1612 -935 0 -4 -2708 -1570 -3272 -1893 l-48
-27 0 1920 0 1920 48 -27 c27 -16 774 -446 1660 -958z"/>
</g>
</svg>
