<svg xmlns="http://www.w3.org/2000/svg" width="1706.667" height="1193.333" viewBox="0 0 1280 895" preserveAspectRatio="xMidYMid meet" xmlns:v="https://vecta.io/nano"><path d="M498 1.1C328.7 4.6 208.3 12.3 154.9 23c-26.4 5.3-43.4 12.1-63.4 25.4-27.2 18.2-48 44.2-59.9 75.1C12.8 172.3 0 304.1 0 448.5c0 143.7 12.8 275.3 31.5 323.6C51.1 823 93.6 859.5 147 871.4c50 11.1 162 18.7 333.5 22.7 58.2 1.3 317.1.7 363.5-1 125.3-4.4 182.9-7.8 239-14.2 29.9-3.4 51.3-7.4 66.8-12.5 50.5-16.5 89.7-57.6 104.2-109.1 12.1-42.9 20.9-122.3 25.1-224.3 1.3-33.5.7-165.7-1-193.5-5.5-91.4-11.1-142.8-20.3-184.9-8.1-37.7-20.8-61.7-45.2-86.1-22-22-44.9-35.2-73.8-42.6C1088.9 13.2 969.9 5 775 1 721.3-.1 553.2-.1 498 1.1zm184.8 353.4L844 448c0 .4-270.8 157-327.2 189.3L512 640V448 256l4.8 2.7 166 95.8z"/></svg>