<svg xmlns="http://www.w3.org/2000/svg" viewBox="0 0 112.87 110.87"><defs><style>.cls-1{fill:#fff;}</style></defs><g id="Layer_2" data-name="Layer 2"><g id="Option_1" data-name="Option 1"><path class="cls-1" d="M79.2,92.56c-7.37,5.82-13.39,8.16-22.06,9.42-9,1.3-17.31,5.28-25.71,1.94-8.15-3.23-17.43-7-23.25-14.41s-2.2-18-3.46-26.7c-1.3-9-7-17.94-3.69-26.34,3.23-8.15,9.36-15.91,16.73-21.73S34.36,6.54,43,5.28A50.94,50.94,0,0,1,69.28,8.84c8.15,3.23,15.75,8,21.57,15.4s12.06,15.4,13.31,24.07c1.3,8.95-7.75,16.4-11.09,24.8C89.84,81.26,86.58,86.74,79.2,92.56Z"/><path d="M105.53,82.88a55,55,0,0,0,0-54.9,1.14,1.14,0,0,0-.09-.26,1.49,1.49,0,0,0-.23-.27A55.84,55.84,0,0,0,85.42,7.66a1.49,1.49,0,0,0-.27-.23c-.09,0-.18-.06-.27-.1A55,55,0,0,0,30,7.33a2.15,2.15,0,0,0-.27.1,1.27,1.27,0,0,0-.28.24A55.73,55.73,0,0,0,9.67,27.44a1.67,1.67,0,0,0-.25.28,1.15,1.15,0,0,0-.09.28,55,55,0,0,0,0,54.87,1.31,1.31,0,0,0,.09.28c.05.08.14.12.2.19A55.71,55.71,0,0,0,29.44,103.2a1.61,1.61,0,0,0,.28.24,1.41,1.41,0,0,0,.22.06,55,55,0,0,0,55,0,1.41,1.41,0,0,0,.22-.06,1.22,1.22,0,0,0,.27-.24,55.64,55.64,0,0,0,19.84-19.87c.06-.07.14-.1.18-.18A1.22,1.22,0,0,0,105.53,82.88ZM84.9,99.94l-2.54-4.41a1.53,1.53,0,0,0-2.66,1.53l2.57,4.46A52.08,52.08,0,0,1,59,107.73v-5.11a1.54,1.54,0,0,0-3.07,0v5.11a52.08,52.08,0,0,1-23.3-6.21l2.57-4.46a1.53,1.53,0,1,0-2.65-1.53L30,99.94a52.74,52.74,0,0,1-17-17l4.41-2.54a1.53,1.53,0,0,0-1.53-2.66l-4.46,2.57A52,52,0,0,1,5.15,57h5.1a1.54,1.54,0,0,0,0-3.07H5.15a52,52,0,0,1,6.2-23.3l4.45,2.57a1.57,1.57,0,0,0,.77.21,1.54,1.54,0,0,0,.77-2.87L12.93,28a52.74,52.74,0,0,1,17-17l2.54,4.41a1.55,1.55,0,0,0,1.33.76,1.53,1.53,0,0,0,.77-.2,1.54,1.54,0,0,0,.56-2.1L32.6,9.35A52.08,52.08,0,0,1,55.9,3.14V8.25a1.54,1.54,0,0,0,3.07,0V3.14a52,52,0,0,1,23.3,6.21L79.7,13.81a1.53,1.53,0,0,0,.56,2.09,1.5,1.5,0,0,0,.77.2,1.52,1.52,0,0,0,1.32-.76l2.55-4.41a52.74,52.74,0,0,1,17,17l-4.41,2.55a1.53,1.53,0,0,0,.77,2.85,1.49,1.49,0,0,0,.76-.2l4.46-2.58a52,52,0,0,1,6.2,23.31h-5.1a1.54,1.54,0,1,0,0,3.07h5.1a52,52,0,0,1-6.2,23.3L99.06,77.7a1.53,1.53,0,1,0-1.53,2.65l4.41,2.55A52.74,52.74,0,0,1,84.9,99.94Z"/><path d="M61.77,58.51a5.29,5.29,0,0,0-2.9-8.18V30.16a1.54,1.54,0,0,0-3.07,0V50.39a5.3,5.3,0,0,0-3.69,5c0,.13,0,.25,0,.38L21.8,67.35a1.54,1.54,0,0,0,1.1,2.87L53.23,58.67a5.24,5.24,0,0,0,6.07,1.74l10.29,9.5a1.52,1.52,0,0,0,1,.41,1.54,1.54,0,0,0,1-2.66Z"/></g></g></svg>